<svg xmlns="http://www.w3.org/2000/svg" viewBox="0 0 432 336.909" id="people-standing-together"><g data-name="Layer 2"><g data-name="Layer 1"><path fill="#fff4f2" d="M401.71513,230.82791c6.86676-67.6949-98.2779-212.71284-168.74927-140.95123C195.87124,127.6506,105.61409,171.581,39.35035,194.07088c-64.43221,21.86856,68.68469,130.8007,168.749,140.95091S394.84837,298.52282,401.71513,230.82791Z"></path><path fill="#ffa574" d="M70.32 281.31875c3.86071 0 3.8671-6 0-6-3.86072 0-3.86711 6 0 6zM34.69106 143.78034c3.86072 0 3.86711-6 0-6-3.86071 0-3.86711 6 0 6zM95.58 57.15019c3.86071 0 3.86711-6 0-6-3.86071 0-3.86711 6 0 6z"></path><path fill="#ffa574" d="M95.58 57.15019c3.86071 0 3.86711-6 0-6-3.86071 0-3.86711 6 0 6zM18.72 277.89442c3.86071 0 3.86711-6 0-6-3.86071 0-3.86711 6 0 6zM205.22843 6c3.86071 0 3.86711-6 0-6-3.86071 0-3.86711 6 0 6zM166.86 236.43019c3.86071 0 3.86711-6 0-6-3.86071 0-3.86711 6 0 6zM64.26 119.79019c3.86071 0 3.86711-6 0-6-3.86071 0-3.86711 6 0 6zM90.88109 310.47417c3.86071 0 3.86711-6 0-6-3.86071 0-3.86711 6 0 6zM300.41686 284.03222c3.86071 0 3.86711-6 0-6-3.86072 0-3.86711 6 0 6zM311.58 49.59019c3.86071 0 3.86711-6 0-6-3.86071 0-3.86711 6 0 6zM390.64917 236.43019c3.86071 0 3.86711-6 0-6-3.86071 0-3.86711 6 0 6zM81.53429 238.41875a1.5009 1.5009 0 000-3 1.5009 1.5009 0 000 3zM272.69429 19.17875a1.5009 1.5009 0 000-3 1.5009 1.5009 0 000 3zM224.15546 119.13691a1.5009 1.5009 0 000-3 1.5009 1.5009 0 000 3zM248.93429 244.89875a1.5009 1.5009 0 000-3 1.5009 1.5009 0 000 3zM192.77429 323.73875a1.5009 1.5009 0 000-3 1.5009 1.5009 0 000 3zM364.49429 321.57875a1.5009 1.5009 0 000-3 1.5009 1.5009 0 000 3zM226.25429 177.93875a1.5009 1.5009 0 000-3 1.5009 1.5009 0 000 3z"></path><path fill="#ffd1ca" d="M139.14487 13.19825a1.5009 1.5009 0 000-3 1.5009 1.5009 0 000 3zM37.589 211.81447a1.5009 1.5009 0 000-3 1.5009 1.5009 0 000 3zM221.80713 47.37528a1.5009 1.5009 0 000-3 1.5009 1.5009 0 000 3zM393.5471 60.44565a1.5009 1.5009 0 000-3 1.5009 1.5009 0 000 3zM147.07106 223.67432a1.5009 1.5009 0 000-3 1.5009 1.5009 0 000 3zM308.02894 201.89666a1.5009 1.5009 0 000-3 1.5009 1.5009 0 000 3zM336.96 14.73447a1.5009 1.5009 0 000-3 1.5009 1.5009 0 000 3zM391.44393 292.13219a1.5009 1.5009 0 000-3 1.5009 1.5009 0 000 3z"></path><path fill="#fed4c0" d="M176.90179,46.92145v8.31029l-4.238,1.8172s1.367,21.0228,11.44695,15.5028,12.79289-14.7828,10.63289-15.5028l-3.02085-1.8172-.36533-7.90747Z"></path><path fill="#fabb05" d="M290.248,88.18492l-34.22974,5.26929a10.43393,10.43393,0,0,1-8.66259-2.63257c-16.48487-15.20874-27.3711-22.813-33.98828-26.60913-.00538-.00244-.00977-.00781-.01514-.00976l-.00586-.00245c-5.9292-3.39917-18.47412-7.685-18.47412-7.685l.1272.63964-.25586-.10595c-11.76,24.48-22.07984,0-22.07984,0s-12.54492,4.28589-18.47412,7.68506l-.00586.00244c-.00537.00195-.01.00732-.01514.00976-6.61718,3.79615-17.50341,11.40039-33.98828,26.60913a10.43441,10.43441,0,0,1-8.66259,2.63257L77.28794,88.71862l-6.83557,17.39965,39.50341,10.56031a20.28188,20.28188,0,0,0,16.656-2.8313l25.44067-17.3291.10987-.36988c.523,19.394,2.02148,40.58057,2.02148,40.58057l.48,9.59985h58.07984l.02661-.53369h.102l.48-9.59985s1.49853-21.18653,2.02148-40.58057l.10987.36987,25.44043,17.32911a20.28234,20.28234,0,0,0,16.65625,2.83129l39.50341-10.5603Z"></path><path fill="#fed4c0" d="M198.51075,28.6718c0-11.86316-6.33966-21.48011-14.16-21.48011s-14.16,9.61695-14.16,21.48011l.0003.009c-.03082-.00061-.05938-.009-.09033-.009a4.71,4.71,0,1,0,0,9.41992,4.66187,4.66187,0,0,0,1.4585-.25379c2.26892,7.27161,7.13586,12.31385,12.7915,12.31385,5.64905,0,10.51105-5.03052,12.78345-12.28833a4.66011,4.66011,0,0,0,1.37659.22827,4.71,4.71,0,0,0,0-9.41992Z"></path><path fill="#200100" d="M171.75074,32.87174s-.84-16.56,5.04-20.16c0,0,2.16-2.76,8.28,3.72S197.139,19.43882,197.139,19.43882s1.49178,11.15292.53178,13.43292c0,0,8.64-14.76-.84-22.32s-14.64-4.92-22.2,0C174.63074,10.55174,160.47074,12.23174,171.75074,32.87174Z"></path><path fill="#200100" d="M183.45524 29.79705c-.01779.74463-.09025 1.45507-.15666 2.15722a20.02062 20.02062 0 00-.12236 2.04981c-.00731.66162.11369 1.27881.46708 1.42676a3.71277 3.71277 0 001.91194-.23389 3.649 3.649 0 01-.87363.7124 1.84078 1.84078 0 01-1.23286.27735 1.48469 1.48469 0 01-1.066-.96045 3.66942 3.66942 0 01-.20584-1.21 7.543 7.543 0 01.35956-2.21534A7.668 7.668 0 01183.45524 29.79705zM173.44928 26.56382s3.339-3.57428 7.26362-.63586M186.2698 26.25453s3.48317-3.43394 7.28362-.3366"></path><ellipse cx="177.995" cy="30.547" fill="#200100" rx="1.02" ry="1.53"></ellipse><ellipse cx="189.635" cy="30.127" fill="#200100" rx="1.02" ry="1.53"></ellipse><path fill="#200100" d="M167.13524 34.277a2.03812 2.03812 0 01.29915-1.21094 2.13657 2.13657 0 01.99658-.8916 1.7233 1.7233 0 011.3948.02 1.7873 1.7873 0 01.90947.88281c-.43465-.04541-.78255-.13135-1.10212-.127a1.7438 1.7438 0 00-.82194.14843A8.09005 8.09005 0 00167.13524 34.277zM201.73524 34.277a8.09005 8.09005 0 00-1.67594-1.17823 1.74376 1.74376 0 00-.82193-.14843c-.31958-.0044-.66748.08154-1.10213.127a1.78728 1.78728 0 01.90948-.88281 1.72327 1.72327 0 011.39479-.02 2.1365 2.1365 0 01.99657.8916A2.038 2.038 0 01201.73524 34.277zM177.39411 47.37224a13.69851 13.69851 0 006.61684 2.19385A10.28926 10.28926 0 00187.426 49.153a13.88989 13.88989 0 001.67039-.5747c.55525-.21924 1.07348-.52149 1.65168-.75147a13.38561 13.38561 0 01-1.41756 1.18311 9.132 9.132 0 01-1.64879.88037 8.44726 8.44726 0 01-3.7119.67431 9.0887 9.0887 0 01-3.65264-.93017A8.75083 8.75083 0 01177.39411 47.37224z"></path><path fill="#602922" d="M176.72278 38.09882a1.5009 1.5009 0 000-3 1.5009 1.5009 0 000 3zM191.72278 37.13882a1.5009 1.5009 0 000-3 1.5009 1.5009 0 000 3z"></path><path fill="#200100" d="M179.847,41.10372s4.94917,5.73025,9.23557-1.578"></path><polygon fill="#fa81a2" points="156.344 146.329 156.344 311.449 178.424 311.449 181.304 167.449 187.064 167.449 198.104 311.449 220.184 311.449 210.584 146.329 156.344 146.329"></polygon><path fill="#2c66bf" d="M202.90367,317.20884s-6,16.8-.96,19.2h5.04s2.4-6.72,5.76,0h30.72s1.92-5.28-5.52-7.68-19.92-11.52-19.92-11.52Z"></path><polygon fill="#fed4c0" points="201.944 311.449 202.904 317.209 218.024 317.209 218.024 311.449 201.944 311.449"></polygon><path fill="#2c66bf" d="M174.71058,317.20884s6,16.8.96,19.2h-5.04s-2.4-6.72-5.76,0h-30.72s-1.92-5.28,5.52-7.68,19.92-11.52,19.92-11.52Z"></path><polygon fill="#fed4c0" points="175.671 311.449 174.711 317.209 159.591 317.209 159.591 311.449 175.671 311.449"></polygon><path fill="#e06c96" d="M189.05271,167.03777a21.51946,21.51946,0,0,1-4.89007.49951,21.27372,21.27372,0,0,1-4.89007-.49951,21.27436,21.27436,0,0,1,4.89007-.5A21.52011,21.52011,0,0,1,189.05271,167.03777Z"></path><path fill="#eda606" d="M155.84666 117.63689a29.40162 29.40162 0 001.01857 4.51563c.20126.74218.47784 1.46191.71191 2.1914l.87493 2.126a29.40524 29.40524 0 004.94334 7.65283 27.34372 27.34372 0 007.049 5.74268 29.47016 29.47016 0 004.11754 2.041c1.40906.62207 2.9125.99414 4.36882 1.55225q-1.13645-.23511-2.27473-.50147l-1.14047-.26269-.57153-.13135-.55072-.19629a29.46845 29.46845 0 01-4.32058-1.82812 24.58014 24.58014 0 01-7.42551-5.75342 26.15014 26.15014 0 01-4.90106-8.01856A26.80949 26.80949 0 01155.84666 117.63689zM162.75107 120.3156a29.39456 29.39456 0 001.93419 4.20557c.351.68408.771 1.33056 1.15147 1.9956l1.29738 1.89795a29.40834 29.40834 0 006.42485 6.45948 27.3468 27.3468 0 008.08788 4.15332 29.43487 29.43487 0 004.45167 1.1416c1.5075.31543 3.05544.36718 4.596.61133q-1.16056.00585-2.32936-.01856l-1.17009-.02-.58641-.00976-.57949-.07764a29.39856 29.39856 0 01-4.606-.89111 24.57853 24.57853 0 01-8.45843-4.08545 26.155 26.155 0 01-6.45948-6.82618A26.81415 26.81415 0 01162.75107 120.3156z"></path><rect width="16.965" height="21.16" x="188.264" y="80.262" fill="#eda606"></rect><path fill="#b86a4b" d="M351.71789,46.89856v9.31028l3.83105.84s-.96,21-11.04,15.48-13.2-14.76-11.04-15.48l3.36-1.08.43328-8.66747Z"></path><path fill="#b86a4b" d="M330.10893,28.6489c0-11.86316,6.33966-21.4801,14.16-21.4801s14.16,9.61694,14.16,21.4801l-.0003.009c.03082-.00061.05939-.009.09033-.009a4.71,4.71,0,1,1,0,9.41992,4.66175,4.66175,0,0,1-1.45849-.25378c-2.26893,7.27161-7.13587,12.31384-12.79151,12.31384-5.649,0-10.51105-5.03051-12.78345-12.28833a4.65972,4.65972,0,0,1-1.37658.22827,4.71,4.71,0,1,1,0-9.41992Z"></path><path fill="#200100" d="M356.86894,32.84884s.84-16.56-5.04-20.16c0,0-2.16-2.76-8.28,3.72s-12.06823,3.00709-12.06823,3.00709-1.49177,11.15291-.53177,13.43291c0,0-8.64-14.76.84-22.32s14.64-4.92,22.2,0C353.98894,10.52884,368.14894,12.20884,356.86894,32.84884Z"></path><path fill="#200100" d="M345.16443 29.7741a7.67465 7.67465 0 01.91879 2.0039 7.54273 7.54273 0 01.35956 2.21534 3.66942 3.66942 0 01-.20584 1.21 1.48466 1.48466 0 01-1.066.96045 1.84078 1.84078 0 01-1.23287-.27735 3.64892 3.64892 0 01-.87362-.7124 3.7126 3.7126 0 001.91192.23389c.3534-.148.4744-.76514.46709-1.42676a20.01778 20.01778 0 00-.12236-2.04981C345.25468 31.22918 345.18222 30.51873 345.16443 29.7741zM355.18539 24.95622s-4.51789-1.87431-6.8768 2.42365M341.80686 27.59638s-1.89558-4.509-6.59463-3.11051"></path><ellipse cx="350.624" cy="30.524" fill="#200100" rx="1.02" ry="1.53"></ellipse><ellipse cx="338.984" cy="30.104" fill="#200100" rx="1.02" ry="1.53"></ellipse><path fill="#200100" d="M361.48444 34.25408a8.09036 8.09036 0 00-1.67594-1.17822 1.74375 1.74375 0 00-.82194-.14844c-.31958-.0044-.66747.08154-1.10213.127a1.78735 1.78735 0 01.90948-.88281 1.72333 1.72333 0 011.3948-.02 2.13648 2.13648 0 01.99656.8916A2.03806 2.03806 0 01361.48444 34.25408zM326.88443 34.25408a2.03805 2.03805 0 01.29916-1.21094 2.13655 2.13655 0 01.99657-.8916 1.72331 1.72331 0 011.39479.02 1.78734 1.78734 0 01.90949.88281c-.43467-.04541-.78255-.13135-1.10213-.127a1.74377 1.74377 0 00-.822.14844A8.09007 8.09007 0 00326.88443 34.25408zM351.22557 47.34929a8.75849 8.75849 0 01-2.92311 2.2627 9.09644 9.09644 0 01-3.65265.92969 8.44047 8.44047 0 01-3.7119-.67432 9.13265 9.13265 0 01-1.64879-.88037 13.38549 13.38549 0 01-1.41755-1.18311c.5782.23 1.09642.53223 1.65167.75147a13.89049 13.89049 0 001.67039.5747 10.28929 10.28929 0 003.41509.41309A13.69855 13.69855 0 00351.22557 47.34929zM348.729 39.41848s-2.78091 6.3-8.36091 1.08"></path><path fill="#b86a4b" d="M393.38645,160.58735l3.79681,22.19676a8.775,8.775,0,0,1-1.68132,6.81306l-7.614,9.94727a2.173,2.173,0,0,1-1.72555.85222h0a2.173,2.173,0,0,1-2.173-2.173h0a5.1143,5.1143,0,0,1,1.0794-3.14255l5.84025-7.49858s-.76885-10.25133-.93971-8.71363l-3.02725,4.93606a1.58107,1.58107,0,0,1-2.673.03575h0a1.56782,1.56782,0,0,1-.26395-.943,8.37037,8.37037,0,0,1,1.02038-3.52065l.84328-1.53324s-1.87941-11.44732.51257-17.2564Z"></path><path fill="#8c4d3e" d="M342.9469,76.8934l2.54232,8.56466L317.73479,121.9234c-4.30812,5.78315-12.41817,5.50564-16.02587-1.76775,0,0-.27362-5.30241.449-6.86248,3.24874-7.01413,6.78991-7.88812,12.40955-12.60075Z"></path><path fill="#8c4d3e" d="M343.9469,77.8934l2.54232,8.56466L318.73479,122.9234c-4.30812,5.78315-12.41817,5.50564-16.02587-1.76775,0,0-.27362-5.30241.449-6.86248,3.24874-7.01413,6.78991-7.88812,12.40955-12.60075Z"></path><path fill="#b86a4b" d="M279.92644,100.29619s-.193-3.84857-6.18662-9.87418-11.35272-10.12874-8.20869-5.02871L267.99135,89.24s-6.39991-2.39449-10.08763-4.15489a5.06017,5.06017,0,0,0-5.928,1.05437c-1.3636,1.50637-1.3025,3.1345,2.542,5.97924,5.75,4.25469,14.65534,10.73028,16.38252,11.3653C271.49858,103.704,279.92644,100.29619,279.92644,100.29619Z"></path><path fill="#4285f4" d="M315.70894,146.32884h57.84l.48-9.6,8.16,33.12,15.12-2.4c-4.155-48.82168-13.80509-80.409-18.86026-94.22144a19.14115,19.14115,0,0,0-10.65379-11.101l-12.24595-5.0776s-10.32,24.48-22.08,0l-12.246,5.0776c-4.94795,2.05158-11.35309,5.93431-13.194,10.96443-2.28879,6.25374-6.58109,19.97662-9.82548,26.32354a3.19838,3.19838,0,0,1-4.78353,1.08885l-18.18418-10.8495-6.99889,13.51094,23.17341,19.2477a14.2258,14.2258,0,0,0,19.64061-3.45033l3.93806-5.51323.48,32.88h57.84"></path><path fill="#160b07" d="M271.739 90.9948a8.70823 8.70823 0 01-1.96444-.688 10.19841 10.19841 0 01-1.78318-1.06689 4.5212 4.5212 0 011.03634.21533 7.19528 7.19528 0 01.97054.38135A6.82666 6.82666 0 01271.739 90.9948zM262.925 89.92009a21.54821 21.54821 0 01-2.381-.92968c-.78008-.34327-1.53685-.73536-2.28181-1.15039a21.67152 21.67152 0 01-2.15836-1.377 11.759 11.759 0 01-1.92392-1.69238c1.4099.958 2.865 1.7876 4.338 2.61621C259.98367 88.22478 261.46961 89.027 262.925 89.92009zM259.47641 93.39519a15.08173 15.08173 0 01-2.23072-.7168 20.035 20.035 0 01-2.125-.98974 13.92992 13.92992 0 01-3.732-2.82324c.66059.42187 1.30427.84277 1.9682 1.23388.67009.38086 1.33151.771 2.0118 1.13184zM261.36713 91.90105a20.84284 20.84284 0 01-2.652-.8999 23.53266 23.53266 0 01-2.53376-1.20313 15.78021 15.78021 0 01-2.34961-1.55175 6.60426 6.60426 0 01-1.856-2.10694 9.56679 9.56679 0 002.0942 1.78516c.766.50342 1.55053.98242 2.363 1.418C258.04389 90.23943 259.7078 91.04412 261.36713 91.90105z"></path><path fill="#8c4d3e" d="M282.98979 307.47417l2.0645 12.02955 14.85328 10.98s-17.46 6.3-26.28-3.06l1.8-8.28-4.14-10.62zM227.96535 307.47417l-.0645 12.02955-14.85328 10.98s17.46 6.3 26.28-3.06l-1.8-8.28 2.14-10.62z"></path><path fill="#df382b" d="M254.91326,132.04369l-7.27524,13.025a86.24824,86.24824,0,0,0-9.96037,29.031l-20.13127,136.61,74.07-2.186L295.81724,178.948a75.729,75.729,0,0,0-6.30623-33.6619,52.69906,52.69906,0,0,0-8.19779-13.24245Z"></path><path fill="#200100" d="M247.05177,44.32827c.12113,1.69494.76868,1.73673,1.16416,3.62639.57071,2.727-.63982,3.299-.06419,5.48215.32741,1.24179.75384,1.18876,2.93224,4.28,2.2476,3.18954,1.75609,3.19265,2.93659,4.469,2.08035,2.24915,3.02383,1.60913,5.38356,4.03519,1.56266,1.60664,1.38463,2.12964,3.10828,3.709a28.15289,28.15289,0,0,0,3.6492,2.56281c4.4347,2.95224,4.7043,3.23948,5.74844,3.46a10.24066,10.24066,0,0,0,4.83765-.34134c1.75316-.44646,1.802-.82848,4.74854-1.95588,3.0222-1.15643,3.20217-.84305,4.31014-1.61,1.67156-1.15708,1.31762-1.9088,3.31835-3.6664,1.89053-1.66089,2.41992-1.17693,3.53311-2.53726,1.42012-1.73542.705-2.70167,2.17208-4.20719,1.11239-1.14153,1.77556-.84454,2.975-2.14673a11.17729,11.17729,0,0,0,1.63552-2.872c1.61207-3.072,2.31689-2.73579,3.28826-4.98853.52056-1.20726.18644-.99843,1.21475-4.7524.8165-2.98079.96847-2.89812,1.046-3.86575.23469-2.93-1.20607-3.09188-.6857-5.214.31589-1.28822,1.19134-2.63353.69314-4.45l-.00014-.00051c-.47176-3.38825-.81734-5.87054-2.68113-8.16666-1.00811-1.24193-1.191-.86557-4.24589-3.87217-1.93517-1.9046-2.34469-2.53086-3.6664-3.31835-1.72631-1.02859-2.03062-.55769-4.19429-1.60542-2.80542-1.35841-2.73137-2.362-4.98429-3.09931-1.48447-.48579-1.4987-.04432-4.35744-.46781-3.62622-.53714-3.7517-1.26958-5.57385-1.08891-1.95072.19346-2.16867,1.06881-4.99123,1.89642-2.35786.69131-2.72381.00549-4.52291.68625-1.82908.69209-1.66112,1.3423-3.90842,2.52953-2.663,1.40689-3.43532.77749-4.67931,1.99635-1.24129,1.21637-.61593,1.98382-1.979,4.39184-1.11377,1.96773-1.65906,1.68074-3.49434,4.23729a32.36075,32.36075,0,0,0-2.72589,4.7868,12.95848,12.95848,0,0,0-1.60973,4.00547c-.19737,1.67541.36982,1.8577.27919,3.96247C247.567,42.41851,246.93,42.62386,247.05177,44.32827Z"></path><path fill="#8c4d3e" d="M259.99454 51.825c.01861-.00042.03589.005.05444.00487.334-9.60543 6.41732-17.31667 14.07122-17.4909s14.0819 7.25219 14.85262 16.83247c.01855-.00066.03556-.00691.05417-.00734a4.70742 4.70742 0 01.213 9.35757 3.77569 3.77569 0 01-1.3357-.232c-1.59409 4.772-4.72306 8.50557-8.62316 10.17191l.01462.00138.11849 11.88807-.52179 8.71409-11.96286-.868.24783-7.56753.94277-13.218.03151.00295a17.521 17.521 0 01-6.6204-8.52452 3.77533 3.77533 0 01-1.32377.29254 4.70742 4.70742 0 01-.213-9.35757zM231.62 171.64664l-2.11665 15.7245a5.72543 5.72543 0 001.55825 4.709l6.27657 6.66242a1.75584 1.75584 0 001.37015.52652h0a1.61311 1.61311 0 001.60433-1.61372h0a3.3783 3.3783 0 00-.95444-2.15951l-4.80951-5.0182s.21384-7.22156.40373-6.15013l2.53212 3.337a1.30032 1.30032 0 002.07452-.08522h0a1.02462 1.02462 0 00.16954-.67231 5.46632 5.46632 0 00-.92277-2.42712l-.71126-1.04056s1.03056-8.10619-1.04141-12.08174z"></path><polygon fill="#8c4d3e" points="234.974 119.732 230.689 179.083 237.957 175.812 247.219 125.089 234.974 119.732"></polygon><path fill="#34a853" d="M233.95193,129.22372l2.42449-31.66995a16.74136,16.74136,0,0,1,7.97063-13.00837,31.88123,31.88123,0,0,1,8.5451-3.65005,61.16916,61.16916,0,0,1,14.25225-1.65158s5.04,13.91992,12.24,0l9.93468,3.34746a21.95618,21.95618,0,0,1,12.99032,11.74982l10.73569,17.6637-8.55366,10.47895L290.05151,112.472l-8.74713,19.57165h-26.4L249.073,112.00475l-2.12429,17.219Z"></path><circle cx="115.691" cy="37.018" r="7.357" fill="#200100"></circle><circle cx="82.488" cy="38.518" r="7.357" fill="#200100"></circle><path fill="#b86a4b" d="M114.91063,54.16117c-.01859-.001-.036.00386-.05458.00308-.01979-9.61121-5.8478-17.5172-13.49192-17.94154s-14.31145,6.788-15.39493,16.338c-.01852-.00127-.03532-.00808-.0539-.00911a4.70742,4.70742,0,0,0-.51881,9.3456,3.77579,3.77579,0,0,0,1.34258-.1882c.6001,5.92739,2.078,9.61494,8.20534,12.28559l-.441,10.04151L94.74,92.76254l11.98484-.47646.43862-7.84151-.88464-10.6227c4.94369-1.25418,6.70015-8.50061,6.79948-10.65076a3.77534,3.77534,0,0,0,1.31349.33565,4.70742,4.70742,0,0,0,.5188-9.34559Z"></path><path fill="#200100" d="M96.41845 74.89714c1.46315-.00146 2.82526.08057 4.18659.04541.67859-.01318 1.34652-.07324 2.02156-.14892a19.3928 19.3928 0 002.04876-.43262A4.69242 4.69242 0 01102.8149 75.551a7.60259 7.60259 0 01-2.18522.39112 9.09152 9.09152 0 01-2.18191-.23682A6.6412 6.6412 0 0196.41845 74.89714zM99.2282 55.21355c-.059.74219-.17077 1.44775-.276 2.145a20.03208 20.03208 0 00-.23579 2.04c-.04395.66016.04266 1.28271.38728 1.45068a3.71779 3.71779 0 001.922-.12744 3.66423 3.66423 0 01-.91176.6626 1.84164 1.84164 0 01-1.24634.2085 1.48414 1.48414 0 01-1.01115-1.01807 3.67071 3.67071 0 01-.13845-1.21973 7.539 7.539 0 01.48179-2.1914A7.66992 7.66992 0 0199.2282 55.21355zM88.89513 50.7603s3.63289-3.27513 7.29139-.01135M102.377 51.04277s3.28493-3.624 7.25324-.74489M95.25657 64.02407s3.23221 6.84711 9.32061.95513"></path><ellipse cx="93.735" cy="55.66" fill="#200100" rx="1.53" ry="1.02" transform="rotate(-86.823 93.735 55.66)"></ellipse><ellipse cx="105.38" cy="55.886" fill="#200100" rx="1.53" ry="1.02" transform="rotate(-86.823 105.38 55.886)"></ellipse><path fill="#200100" d="M117.28721 59.70134a8.08635 8.08635 0 00-1.60805-1.269 1.73723 1.73723 0 00-.81246-.19385c-.31884-.022-.67095.044-1.10744.06543a1.78731 1.78731 0 01.957-.831 1.72151 1.72151 0 011.39375.05762 2.13422 2.13422 0 01.94562.94531A2.03779 2.03779 0 01117.28721 59.70134zM82.7404 57.78386a2.03621 2.03621 0 01.36581-1.19238 2.1366 2.1366 0 011.04447-.83545 1.72423 1.72423 0 011.39155.09717 1.79 1.79 0 01.85915.93164c-.43148-.06934-.77408-.17383-1.09342-.1875a1.73972 1.73972 0 00-.82889.10254A8.09636 8.09636 0 0082.7404 57.78386zM89.97992 44.96366c4.34549.061 3.64676-3.169 4.19777-5.797 0 0 2.58345 5.96309 7.7165.42837 1.1688-1.26027.51312 8.25185 6.50217 1.6136.92737-1.02789 1.68732 1.84236 2.865 4.12811.70663 1.37145 1.56365 2.53248 2.69747 2.51483l-.09151 8.50515S126.06016 35.579 99.7709 31.35543a15.04251 15.04251 0 00-8.3221 1.2206c-13.03062 6.71018-8.82152 19.461-4.0103 25.01142C87.4385 57.58745 85.08636 44.895 89.97992 44.96366z"></path><path fill="#200100" d="M98.68948,32.28692l-2.0919-2.91042s-4.98729.53439-2.09183-1.28793,3.44467-.3496,3.41474.18956Z"></path><path fill="#b86a4b" d="M142.4088,173.60811l2.11665,15.7245a5.72541,5.72541,0,0,1-1.55825,4.709l-6.27658,6.66243a1.75576,1.75576,0,0,1-1.37014.52651h0a1.6131,1.6131,0,0,1-1.60433-1.61372h0a3.37828,3.37828,0,0,1,.95444-2.15951l4.8095-5.01821s-.21383-7.22155-.40372-6.15013l-2.53213,3.337a1.3003,1.3003,0,0,1-2.07451-.08522h0a1.02452,1.02452,0,0,1-.16954-.6723,5.46619,5.46619,0,0,1,.92277-2.42713l.71126-1.04055s-1.03057-8.1062,1.04141-12.08174Z"></path><polygon fill="#b86a4b" points="139.055 121.693 143.34 181.045 136.072 177.774 126.81 127.05 139.055 121.693"></polygon><rect width="1" height=".5" x="120.087" y="145.409" fill="#200100" transform="rotate(-16.806 120.587 145.66)"></rect><path fill="#200100" d="M124.44848,160.12326l-.30469-1.00586.957-.28906.30469,1.00586Zm-.60938-2.01074-.30469-1.00489.957-.291.30468,1.00488Zm-.61035-2.01172-.30469-1.00586.957-.28907.30469,1.00586Zm-.60937-2.01172-.30469-1.00586.957-.28906.30469,1.00586Zm-.60938-2.01172-.30469-1.00586.957-.28906.30469,1.00586Zm-.61035-2.01074-.30469-1.00586.957-.28906.30469,1.00585Zm-.60938-2.01172-.30468-1.00586.957-.28906.30468,1.00586Z"></path><rect width="1" height=".5" x="124.804" y="160.974" fill="#200100" transform="rotate(-16.914 125.304 161.224)"></rect><path fill="#df382b" d="M140.0769,131.18518l-2.4245-31.66995a16.74133,16.74133,0,0,0-7.97062-13.00837,31.88132,31.88132,0,0,0-8.5451-3.65,61.16918,61.16918,0,0,0-14.25226-1.65159s-5.04,13.91992-12.24,0L84.70976,84.5527A21.95612,21.95612,0,0,0,71.71944,96.30252l-10.73569,17.6637v20.835L83.97732,114.4335l8.74713,19.57166h26.4l5.83142-20.03894,2.12429,17.219Z"></path><path fill="#b7251d" d="M78.56441 103.52507a33.15 33.15 0 013.15408 5.23194 32.76864 32.76864 0 012.25883 5.67627 32.74994 32.74994 0 01-3.15408-5.23194A33.11535 33.11535 0 0178.56441 103.52507zM124.95584 113.966a47.91512 47.91512 0 011.646-7.165 47.37384 47.37384 0 012.60257-6.876 47.35661 47.35661 0 01-1.646 7.16552A47.87941 47.87941 0 01124.95584 113.966z"></path><path fill="#b86a4b" d="M57.50212,76.91746,50.0135,81.78957l-2.513,45.75711a8.41617,8.41617,0,0,0,13.48328,7.25458h0a37.28643,37.28643,0,0,0,2.69368-21.36457Z"></path><path fill="#b86a4b" d="M58.252,85.02223s1.97219-2.88649.94788-10.52858-2.645-13.547-3.17166-8.13718l-.3331,4.12913s-3.31015-5.24152-5.00864-8.53678A4.5907,4.5907,0,0,0,45.825,59.458c-1.81172.34018-2.66089,1.55-1.44406,5.71475C46.20086,71.40171,49.082,80.9665,49.98146,82.373,50.29307,82.86024,58.252,85.02223,58.252,85.02223Z"></path><path fill="#160b07" d="M57.44,73.80974a8.29377,8.29377,0,0,1-1.04155-1.57519,9.79523,9.79523,0,0,1-.70324-1.749,5.63308,5.63308,0,0,1,1.12246,1.53223A6.41673,6.41673,0,0,1,57.44,73.80974Z"></path><path fill="#b86a4b" d="M126.45781,319.30122l4.29517-97.1269.367-57.63264c2.68838,4.65432.67238-6.905-4.04008-17.458a52.69831,52.69831,0,0,0-8.19781-13.24243h-26.4l-7.27521,13.025a86.24718,86.24718,0,0,0-9.96038,29.031l-18.43293,134.61-1.50921,8.79394L40.4511,330.28133s17.46,6.29992,26.28-3.05994l-1.8-8.28,39.041-152.70007h1.42664L116.8311,318.94136l-1.80005,8.28c8.82,9.35986,26.28,3.05994,26.28,3.05994Z"></path><path fill="#df382b" d="M147.07106,336.40132s-19.62.36808-24.3-4.046v4.05348h-8.64s-2.71429-14.44975,1.88285-13.70864,20.96172,13.235,21.32944,4.64807l6.41992,3.30449a6.09907,6.09907,0,0,1,3.30779,5.42287Z"></path><path fill="#4285f4" d="M92.5911,133.8413l-7.27524,13.025a86.24817,86.24817,0,0,0-9.96037,29.031l-7.07661,46.25436,63.70162.02264,1.51458-41.42867a75.729,75.729,0,0,0-6.30623-33.66191,52.69882,52.69882,0,0,0-8.19779-13.24244Z"></path><path fill="#df382b" d="M34.69106,336.40132s19.62.36808,24.3-4.046v4.05348h8.64s2.7143-14.44975-1.88285-13.70864-20.96171,13.235-21.32943,4.64807l-6.41992,3.30449a6.09906,6.09906,0,0,0-3.3078,5.42287Z"></path><path fill="#200100" d="M277.75 71.00164a6.63229 6.63229 0 01-2.05465.74121 9.05854 9.05854 0 01-2.18848.165 7.59513 7.59513 0 01-2.17128-.46192 4.694 4.694 0 01-1.82055-1.25049 19.39968 19.39968 0 002.03351.5c.67221.09717 1.33782.1792 2.01561.21485C274.9236 70.98943 276.28765 70.95232 277.75 71.00164zM275.63418 53.38933a7.67144 7.67144 0 01.96416 1.98291 7.53931 7.53931 0 01.40988 2.20606 3.67007 3.67007 0 01-.17825 1.21435 1.48391 1.48391 0 01-1.04388.98438 1.84 1.84 0 01-1.23886-.249 3.65792 3.65792 0 01-.88961-.69189 3.71409 3.71409 0 001.91677.18994c.34992-.15625.45684-.77588.43449-1.437a20.01487 20.01487 0 00-.169-2.04639C275.75752 54.84246 275.66891 54.13347 275.63418 53.38933zM286.05269 49.53871s-3.27245-3.6353-7.25064-.76982M272.684 48.8656s-3.4153-3.50144-7.27564-.47907"></path><ellipse cx="281.11" cy="54.015" fill="#200100" rx="1.02" ry="1.53" transform="rotate(-1.304 281.11 54.015)"></ellipse><ellipse cx="269.463" cy="53.86" fill="#200100" rx="1.02" ry="1.53" transform="rotate(-1.304 269.462 53.86)"></ellipse><path fill="#560d0d" d="M281.6809 21.01974a2.18917 2.18917 0 01-.58789-.081 3.592 3.592 0 01-2.01074-2.00586.50015.50015 0 01.92773-.374c.00488.01172.48926 1.17872 1.35547 1.418a1.73363 1.73363 0 001.48144-.43457.5.5 0 01.60157.79883A2.95827 2.95827 0 01281.6809 21.01974zM297.32836 29.62619a3.928 3.928 0 01-2.2168-.86524.50008.50008 0 01.6377-.7705 2.63346 2.63346 0 001.86719.60449A1.73022 1.73022 0 00298.7141 27.508a.49988.49988 0 01.9082.418 2.65554 2.65554 0 01-1.78808 1.64453A2.25456 2.25456 0 01297.32836 29.62619zM287.81566 34.52658a3.92356 3.92356 0 01-2.21582-.86524.49971.49971 0 01.6377-.76953 2.66464 2.66464 0 001.86621.60352 1.73023 1.73023 0 001.09766-1.08692.49988.49988 0 01.9082.418 2.65335 2.65335 0 01-1.78809 1.64453A2.25456 2.25456 0 01287.81566 34.52658zM274.218 38.969a3.92354 3.92354 0 01-2.21582-.86523l.63769-.76953a2.63378 2.63378 0 001.86621.60253 1.72785 1.72785 0 001.09766-1.08691l.9082.418a2.65714 2.65714 0 01-1.78808 1.64551A2.31353 2.31353 0 01274.218 38.969zM293.39672 44.32541a2.16947 2.16947 0 01-.64551-.09766 3.59185 3.59185 0 01-1.95605-2.06055.50011.50011 0 01.9375-.34863c.0039.01172.457 1.19141 1.3164 1.4541a1.71034 1.71034 0 001.49414-.39355.50019.50019 0 11.57813.8164A3.00262 3.00262 0 01293.39672 44.32541zM268.63891 18.11837a2.195 2.195 0 01-.64453-.09765 3.59187 3.59187 0 01-1.95606-2.06055.50011.50011 0 01.9375-.34863c.00391.01172.457 1.19141 1.31641 1.4541a1.73038 1.73038 0 001.49218-.39355.5.5 0 11.58008.81445A2.99724 2.99724 0 01268.63891 18.11837zM254.47875 31.799a2.16947 2.16947 0 01-.64551-.09766 3.59529 3.59529 0 01-1.95508-2.06054.50012.50012 0 01.9375-.34864c.00391.01172.457 1.19141 1.31543 1.4541a1.72184 1.72184 0 001.49414-.39355.50019.50019 0 11.57813.81641A3.00268 3.00268 0 01254.47875 31.799zM253.02953 45.842a2.16947 2.16947 0 01-.64551-.09766A3.5952 3.5952 0 01250.429 43.6838a.50011.50011 0 01.9375-.34863c.0039.01172.457 1.19141 1.31543 1.4541a1.71753 1.71753 0 001.49414-.39355.50018.50018 0 01.57812.8164A3.0026 3.0026 0 01253.02953 45.842zM266.03832 28.36349a3.75577 3.75577 0 01-2.36816-1.12207.5.5 0 01.71972-.69433 2.71926 2.71926 0 001.78711.80859 1.7287 1.7287 0 001.21289-.958.49993.49993 0 01.85547.51758 2.65673 2.65673 0 01-1.96094 1.43457A2.33733 2.33733 0 01266.03832 28.36349z"></path><path fill="#200100" d="M257.43812 57.28484a2.03836 2.03836 0 01.27151-1.21777 2.13947 2.13947 0 01.976-.91407 1.72246 1.72246 0 011.39488-.01171 1.7868 1.7868 0 01.92933.86181c-.43557-.03564-.78532-.11328-1.10472-.10156a1.74241 1.74241 0 00-.81835.167A8.08853 8.08853 0 00257.43812 57.28484zM287.92766 45.91386s-4.8087-1.18771-6.1876-9.033c0 0-.42056 9.64316-20.588 8.669l-.18657 8.5036L256.2941 47.4542s4.66613-17.74121 20.557-15.93806a15.40231 15.40231 0 017.02592 2.88718A22.42768 22.42768 0 01293.03215 50.083l.21015 1.70538s-3.44179-5.51294-5.90232 4.35914z"></path><path fill="#560d0d" d="M261.81078 38.56662a3.92352 3.92352 0 01-2.21582-.86524.49971.49971 0 01.6377-.76953 2.60046 2.60046 0 001.86621.60352 1.72931 1.72931 0 001.09863-1.08692.49988.49988 0 01.9082.418 2.65462 2.65462 0 01-1.78906 1.64453A2.25456 2.25456 0 01261.81078 38.56662zM275.69555 38.25119a3.92348 3.92348 0 01-2.21582-.86524.49971.49971 0 01.63769-.76953 2.66891 2.66891 0 001.86621.60352 1.73023 1.73023 0 001.09766-1.08692.49988.49988 0 01.9082.418 2.65333 2.65333 0 01-1.78808 1.64453A2.25469 2.25469 0 01275.69555 38.25119zM297.885 54.06662a3.928 3.928 0 01-2.2168-.86524.50009.50009 0 01.6377-.77051 2.65022 2.65022 0 001.86719.6045 1.7302 1.7302 0 001.09765-1.08692.49989.49989 0 01.90821.418 2.6556 2.6556 0 01-1.78809 1.64453A2.25456 2.25456 0 01297.885 54.06662z"></path><path fill="#200100" d="M291.99988,56.49773a8.08663,8.08663,0,0,0-1.70232-1.13965,1.73845,1.73845,0,0,0-.8251-.12939c-.3196.00244-.66545.09619-1.099.15136a1.78927,1.78927,0,0,1,.88915-.90332,1.72343,1.72343,0,0,1,1.394-.05127,2.13576,2.13576,0,0,1,1.01662.86866A2.03724,2.03724,0,0,1,291.99988,56.49773Z"></path><path fill="#23893c" d="M291.05878,51.69353a42.92857,42.92857,0,0,0-1.40116-7.65723,26.09754,26.09754,0,0,0-3.00622-6.98681,13.276,13.276,0,0,0-5.32-4.92969,13.452,13.452,0,0,0-7.10862-1.19336,17.86886,17.86886,0,0,0-12.63142,7.00049,17.54714,17.54714,0,0,0-3.14361,6.813,25.83712,25.83712,0,0,0-.459,7.70654,21.77584,21.77584,0,0,1-.50678-7.88428,17.41622,17.41622,0,0,1,2.836-7.53759,18.5917,18.5917,0,0,1,13.73866-8.08985,17.4256,17.4256,0,0,1,4.148.18506,12.85028,12.85028,0,0,1,3.98,1.31543,14.32361,14.32361,0,0,1,5.79817,5.81152,24.3902,24.3902,0,0,1,2.62648,7.57032A32.19793,32.19793,0,0,1,291.05878,51.69353Z"></path><path fill="#602922" d="M281.33 61.40565a1.5009 1.5009 0 000-3 1.5009 1.5009 0 000 3zM268.73 60.44565a1.5009 1.5009 0 000-3 1.5009 1.5009 0 000 3z"></path><path fill="#fabb05" d="M305.66757 336.60372s-19.62.36808-24.3-4.046v4.05348h-8.64s-2.7143-14.44976 1.88285-13.70864 20.96172 13.235 21.32943 4.64806l6.41993 3.3045a6.09907 6.09907 0 013.30779 5.42286zM207.28757 336.60372s19.62.36808 24.3-4.046v4.05348h8.64s2.71429-14.44976-1.88285-13.70864-20.96172 13.235-21.32944 4.64806l-6.41992 3.3045a6.09907 6.09907 0 00-3.30779 5.42286z"></path><path fill="#b7251d" d="M283.13891 145.39377a.49974.49974 0 01-.47852-.3545l-.43555-1.43554a.50015.50015 0 11.957-.291l.43554 1.43555a.49972.49972 0 01-.47851.64551zM286.33227 155.93185a.49973.49973 0 01-.47852-.35449l-.79883-2.63477a.50015.50015 0 01.957-.291l.79883 2.63476a.49969.49969 0 01-.47851.64551zm-1.59668-5.26855a.49974.49974 0 01-.47852-.3545l-.79883-2.63476a.50015.50015 0 01.957-.291l.79883 2.63477a.49972.49972 0 01-.47851.64551zM287.56566 160.00119a.49942.49942 0 01-.47851-.35547l-.43457-1.43555a.49987.49987 0 11.957-.28906l.43457 1.43555a.49973.49973 0 01-.334.623A.49386.49386 0 01287.56566 160.00119z"></path><path fill="#23893c" d="M295.46442 101.56365a33.13192 33.13192 0 01-2.25884 5.67627 32.7495 32.7495 0 01-3.15407 5.23193 32.76892 32.76892 0 012.25882-5.67627A33.15068 33.15068 0 01295.46442 101.56365zM249.073 112.00457a47.90183 47.90183 0 01-2.60257-6.87549 47.37034 47.37034 0 01-1.646-7.16553 47.374 47.374 0 012.60257 6.876A47.917 47.917 0 01249.073 112.00457z"></path><path fill="#200100" d="M279.54624,63.8081s-2.78091,6.3-8.36091,1.08"></path><polygon fill="#fabb05" points="371.869 146.329 371.869 311.449 349.789 311.449 346.909 167.449 341.149 167.449 330.109 311.449 308.029 311.449 317.629 146.329 371.869 146.329"></polygon><path fill="#2c66bf" d="M314.98894 86.32879c.20624 2.26025.30285 4.52.38286 6.78027.09141 2.25976.10427 4.52.11683 6.77978-.01121 2.25977-.02446 4.52-.11508 6.77979l-.13951 3.39014c-.08305 1.12988-.13173 2.26025-.2451 3.39013-.11338-1.12988-.16205-2.26025-.2451-3.39013l-.13952-3.39014c-.09062-2.25977-.10386-4.52-.11508-6.77979.01256-2.25976.02542-4.52.11684-6.77978C314.68608 90.8488 314.7827 88.589 314.98894 86.32879zM373.54893 87.529c.24622 4.09766.38285 8.19678.50284 12.2959.12233 4.09961.15477 8.19971.23656 12.29932.00085 4.10009.04486 8.20019.0052 12.30078l-.07949 6.15136c-.06307 2.05078-.09173 4.10157-.18511 6.15235-.13336-2.04883-.202-4.09815-.30508-6.14746l-.1995-6.14844c-.11966-4.09961-.15567-8.19922-.23481-12.29932.0018-4.1001-.04577-8.20019-.00344-12.30078C373.3261 95.73162 373.38272 91.631 373.54893 87.529z"></path><path fill="#34a853" d="M325.30894,317.20884s6,16.8.96,19.2h-5.04s-2.4-6.72-5.76,0h-30.72s-1.92-5.28,5.52-7.68,19.92-11.52,19.92-11.52Z"></path><polygon fill="#b86a4b" points="326.269 311.449 325.309 317.209 310.189 317.209 310.189 311.449 326.269 311.449"></polygon><path fill="#34a853" d="M353.502,317.20884s-6,16.8-.96,19.2h5.04s2.4-6.72,5.76,0h30.72s1.92-5.28-5.52-7.68-19.92-11.52-19.92-11.52Z"></path><polygon fill="#b86a4b" points="352.542 311.449 353.502 317.209 368.622 317.209 368.622 311.449 352.542 311.449"></polygon><path fill="#eda606" d="M339.75909,167.03777a21.52031,21.52031,0,0,1,4.89008-.5,21.2745,21.2745,0,0,1,4.89008.5,21.27386,21.27386,0,0,1-4.89008.49951A21.51966,21.51966,0,0,1,339.75909,167.03777Z"></path><path fill="#8c4d3e" d="M312.04508,111.00475l2.94386,2.92335.16,10.47826s-8.81956,4.81293-11.65748-2.92266Z"></path><path fill="#fabb05" d="M259.68871 67.95138h-4.1416V59.06955h4.1416zm-3.3916-.75h2.6416V59.81955h-2.6416zM293.61742 67.45236h-4.14258V58.57052h4.14258zm-3.39258-.75h2.64258V59.32052h-2.64258z"></path><path fill="#8c4d3e" d="M290.22218 59.30821V58.262h2.5179a4.84022 4.84022 0 01-2.5179 2.10751zM258.96161 61.00286v-1.9534h-2.3743A4.49994 4.49994 0 00258.96161 61.00286z"></path><path fill="#fed4c0" d="M90.5531,81.65806,91.82622,84.751a4.55633,4.55633,0,0,1-.56117,4.47037,4.042,4.042,0,0,1-.68018.72438,4.47271,4.47271,0,0,1-1.24456.76948l-4.49549,1.85047a3.16043,3.16043,0,0,1-.48713.16095,3.38926,3.38926,0,0,1-.92161.16175,4.53807,4.53807,0,0,1-4.55549-2.80861l-1.27312-3.09289A2.74361,2.74361,0,0,1,79.099,83.40831l7.87554-3.24179A2.74365,2.74365,0,0,1,90.5531,81.65806Z"></path><path fill="#200100" d="M91.26505 89.22132a4.042 4.042 0 01-.68018.72438L88.074 84.06189a.45695.45695 0 01.84162-.35608zM89.06989 90.82649l-.845.34783-2.58542-6.04081a.45822.45822 0 01.24859-.59642.4503.4503 0 01.59285.23993zM86.58555 91.84912l-.845.34783-2.51787-5.90071a.44472.44472 0 01.24014-.59294l.00845-.00348a.46228.46228 0 01.59286.23993zM84.35769 92.7266a3.38926 3.38926 0 01-.92161.16175l-2.58733-6.06946a.45855.45855 0 01.23657-.60161.44851.44851 0 01.60488.24511z"></path><path fill="#fed4c0" d="M296.44879,85.843l-1.29455,3.084a4.55632,4.55632,0,0,1-3.56479,2.75525,4.04223,4.04223,0,0,1-.99325.02875,4.47259,4.47259,0,0,1-1.42329-.33952l-4.48254-1.88162a3.16118,3.16118,0,0,1-.45768-.23179,3.38947,3.38947,0,0,1-.7647-.53924,4.53809,4.53809,0,0,1-1.2221-5.2103l1.29455-3.084a2.7436,2.7436,0,0,1,3.5888-1.46668l7.85286,3.29635A2.74365,2.74365,0,0,1,296.44879,85.843Z"></path><path fill="#200100" d="M291.58945 91.68226a4.04223 4.04223 0 01-.99325.02875l2.4-5.92989a.45694.45694 0 01.846.34546zM288.90328 91.2583l-.84258-.35368 2.45869-6.09349a.45823.45823 0 01.59813-.24445.45029.45029 0 01.24807.58949zM286.42609 90.21847l-.84258-.35369 2.407-5.94678a.44471.44471 0 01.5897-.248l.00843.00354a.46227.46227 0 01.24808.58949zM284.23269 89.25808a3.38947 3.38947 0 01-.7647-.53924l2.47766-6.115a.45856.45856 0 01.59333-.25662.44849.44849 0 01.25288.60167z"></path><path fill="#8c4d3e" d="M372.19578,64.11687l-1.29454,3.084a4.55635,4.55635,0,0,1-3.5648,2.75525,4.04223,4.04223,0,0,1-.99325.02875,4.47234,4.47234,0,0,1-1.42329-.33953l-4.48254-1.88161a3.16021,3.16021,0,0,1-.45768-.2318,3.38937,3.38937,0,0,1-.76469-.53923,4.53806,4.53806,0,0,1-1.2221-5.2103l1.29454-3.084a2.74362,2.74362,0,0,1,3.5888-1.46669l7.85286,3.29636A2.74364,2.74364,0,0,1,372.19578,64.11687Z"></path><path fill="#200100" d="M367.33644 69.9561a4.04223 4.04223 0 01-.99325.02875l2.4-5.92989a.45694.45694 0 01.846.34546zM364.65027 69.53214l-.84258-.35369 2.45869-6.09349a.45823.45823 0 01.59813-.24444.45031.45031 0 01.24808.58949zM362.17308 68.4923l-.84258-.35368 2.407-5.94678a.44472.44472 0 01.5897-.248l.00844.00354a.46228.46228 0 01.24807.5895zM359.97968 67.53191a3.38937 3.38937 0 01-.76469-.53923l2.47766-6.115a.45855.45855 0 01.59332-.25663.4485.4485 0 01.25288.60168z"></path><path fill="#b86a4b" d="M258.9237,77.964l1.20313,3.12078a4.55632,4.55632,0,0,1-.66171,4.4566,4.04231,4.04231,0,0,1-.69632.70888,4.47285,4.47285,0,0,1-1.26158.74125l-4.536,1.74874a3.16022,3.16022,0,0,1-.49064.14994,3.38894,3.38894,0,0,1-.925.141,4.53806,4.53806,0,0,1-4.49107-2.9105l-1.20314-3.12078a2.74361,2.74361,0,0,1,1.57177-3.544l7.94656-3.0636A2.74366,2.74366,0,0,1,258.9237,77.964Z"></path><path fill="#200100" d="M259.46512 85.54142a4.04231 4.04231 0 01-.69632.70888l-2.37769-5.93887a.45694.45694 0 01.84942-.337zM257.23437 87.09674l-.85263.32871L253.933 81.32794a.45823.45823 0 01.262-.59067.4503.4503 0 01.5873.25322zM254.72762 88.06315l-.85263.32871-2.38432-5.95592a.44472.44472 0 01.25343-.58738l.00853-.00329a.46227.46227 0 01.5873.25322zM252.48056 88.89023a3.38894 3.38894 0 01-.925.141l-2.45-6.12619a.45855.45855 0 01.25-.59613.44851.44851 0 01.59921.25867z"></path><line x2="432" y1="336.409" y2="336.409" fill="none" stroke="#020202" stroke-miterlimit="10"></line></g></g></svg>