<svg xmlns="http://www.w3.org/2000/svg" enable-background="new 0 0 1920 1080" viewBox="0 0 1920 1080" id="mountain-biking"><g><ellipse cx="930.61" cy="1060.56" fill="#2a94f4" opacity=".1" rx="458.58" ry="19.44"></ellipse><path fill="#2a94f4" d="M469.96 754.02c0-88.51 71.75-160.26 160.27-160.26 78.94 0 144.51 57.09 157.77 132.23V377.63c0-115.9 93.95-209.85 209.85-209.85 115.9 0 209.85 93.95 209.85 209.85v678.79H469.96v-302.4zM1300.55 0c50.1 0 90.71 40.61 90.71 90.71v965.72h-181.41V90.71c-.01-50.1 40.61-90.71 90.7-90.71z" opacity=".1"></path></g><g><path fill="#fcd2b1" d="M1084.76 787.21s-95-161.72-106.06-165.17l-20.85-53.95s-49.73 25.12-49.73 50.71c-.01 31.19 157.15 168.41 157.15 168.41h19.49z"></path><path fill="#0b4870" d="m1023.93 517.38-74.86 57.45s22.9 32.55 35.05 43.97c0 0 95.51-80.96 39.81-101.42z"></path><path fill="#fcd2b1" d="M836.01 484.91s-10.94 35.61-15.1 42.49c-4.16 6.88-135.17 60.95-135.17 60.95v24.95s124.08-33.44 157.53-52.51c10.4-5.93 36.91-70.19 36.91-70.19s-20.25-38.96-44.17-5.69z"></path><path fill="#2a94f4" d="M865.93 376.57s-25.24 56.81-34.62 114.03l54.07 17.68 24.95-67.07c0 .01 3.43-58.4-44.4-64.64z"></path><path fill="#0b4870" d="M1084.76 787.21v14.04l-74.09 3.12s-3.12-15.6 14.82-17.16c17.94-1.56 25.7-12.49 24.7-13.38l1 .9s11.21.03 25.51-1.15c0-.01 8.06 5.83 8.06 13.63z"></path><circle cx="1198.92" cy="882.93" r="21.2" fill="#ffbe55"></circle><circle cx="658.51" cy="882.93" r="21.2" fill="#ffbe55"></circle><path fill="#0e538c" d="M1034.59 801.24h49.39v13h-49.39z"></path><path fill="#ffbe55" d="M1198.92 1062.46c-98.99 0-179.53-80.54-179.53-179.53s80.54-179.53 179.53-179.53 179.53 80.54 179.53 179.53-80.54 179.53-179.53 179.53zm0-338.48c-87.65 0-158.95 71.31-158.95 158.95s71.3 158.95 158.95 158.95c87.65 0 158.95-71.3 158.95-158.95s-71.31-158.95-158.95-158.95zM658.51 1062.46c-98.99 0-179.53-80.54-179.53-179.53S559.52 703.4 658.51 703.4s179.53 80.54 179.53 179.53-80.54 179.53-179.53 179.53zm0-338.48c-87.65 0-158.95 71.31-158.95 158.95s71.3 158.95 158.95 158.95 158.95-71.3 158.95-158.95-71.31-158.95-158.95-158.95z"></path><path fill="#ffbe55" d="M655.64 592.64h49.13v15.6h-49.13z" transform="rotate(90 680.21 600.435)"></path><path fill="#cce9ff" d="M715.89 610.18h346.25V625H715.89zM996.38 875.33h199.64v12.19H996.38zM978.23 883.08 697.97 679.74l10.34-27.18 286.4 207.8zM688.01 575.87H799.6v15.6H688.01z"></path><path fill="#cce9ff" d="m649.33 888.79 62.47-301.66 15.27 3.16-62.47 301.66a1.896 1.896 0 0 1-2.24 1.47l-11.56-2.39a1.9 1.9 0 0 1-1.47-2.24zM984.4 893.13l58.92-284.53 15.27 3.16-58.92 284.53a1.896 1.896 0 0 1-2.24 1.47l-11.56-2.39a1.9 1.9 0 0 1-1.47-2.24z"></path><path fill="#cce9ff" d="m1200.86 877.96-156.19-277.52-15.27 3.16 158.52 281.65a7.42 7.42 0 0 0 7.98 3.63c4.91-1.02 7.42-6.54 4.96-10.92z"></path><path fill="#ffbe55" d="M782.83 592.64h49.13v15.6h-49.13z" transform="rotate(90 807.395 600.435)"></path><circle cx="990.03" cy="883.08" r="24.95" fill="#ffbe55"></circle><path fill="#0b4870" d="M1078.3 621.88h-47.18V582.5l83.95-15.65c6.55-1.22 13.32-.05 19.08 3.31 19.67 19.23-34.1 51.72-55.85 51.72z"></path><path fill="#cce9ff" d="M950.37 934.08h-9.36l42.12-48.43a3.535 3.535 0 0 1 4.88-.43 3.538 3.538 0 0 1 .45 5.07l-38.09 43.79z"></path><circle cx="990.03" cy="883.08" r="15.61" fill="#cce9ff"></circle><path fill="#ffbe55" d="M904.1 929.14h53.03v17.16H904.1z"></path><path fill="#0b4870" d="M896.5 339.01s12.92-23.6 9.93-52.07c-2.99-28.46-43.93-38.21-57.19-22.62-13.26 15.6-44.45 15.6-44.45 15.6s-9.5 21.45 7.73 23.01c17.23 1.56 83.98 36.08 83.98 36.08z"></path><path fill="#fcd2b1" d="M892.14 333.08s4.68 9.36 14.3 12.22c0 0-4.16 38.2-22.88 35.87-16.27-2.02-16.74-2.42-16.74-2.42l-3.8-9.27c0-.01 3.9-36.66 29.12-36.4z"></path><path fill="#ffe3ca" d="M827.39 287.61c-9.12 3.06-15.09 11.82-14.86 21.44.26 10.77 1.21 25.74 4.22 35.99 5.2 17.68 14.03 32.2 36.39 32.23 22.36.03 38.99-14.56 38.99-44.19 0 0 2.34-.65 3.64-6.76 1.41-6.63 2.21-25.34-12.09-19.76 0 0 1.56 6.24 1.3 7.8-.26 1.56-.64 7.06-4.81 6.76 0 0-6.76-31.19-20.8-34.83-9.39-2.44-21.17-2.31-31.98 1.32z"></path><path fill="#2a94f4" d="M863.02 383.45s11.96 68.69 69.15 95.72c57.19 27.03 90.46 47.83 90.46 47.83s71.75 14.56 86.3-57.19c0 0-88.38-124.77-206.92-127.89 0 0 8.63 40.89-36.08 34.66l-2.91 6.87z"></path><path fill="#31a1f4" d="M916.6 401.17c1.87 34.41 13.23 94.9 14.53 102.96h59.27v-85.4c0-6.12-.82-12.22-2.45-18.12-6.03-21.91-28.76-34.71-50.62-28.5-12.85 3.66-21.45 15.71-20.73 29.06z"></path><path fill="#ffe3ca" d="M805.32 585.23s-15.6 2.08-14.56 16.64c1.04 14.56 1.21 25.25 23.92 17.68 9.36-3.12 25.99-15.91 25.99-15.91s99.82-17.37 125.81-34c25.99-16.64 15.57-65.51 15.57-65.51h-45.73s-1.04 27.03-1.04 32.23c0 5.2-92.54 45.75-92.54 45.75l-37.42 3.12zM927.85 897.91l21.22 4.72s18.19-161 20.28-173.9c4.66-28.85 45.23-65.51 51.47-74.08l-48.35-46.79s-46.03 79.54-45.25 104.5.63 185.55.63 185.55z"></path><path fill="#0b4870" d="M875.76 929.14h73.31v-31.97l-21.22.74s-9.97 4.72-26.35 8.61c-16.38 3.9-27.3 9.36-25.74 22.62z"></path><path fill="#0e538c" d="M1022.63 527s-54.72 84.21-59.27 95.04l43.01 55.61s126.74-93.98 130.64-127.77c6.79-58.88-28.07-80.06-28.07-80.06l-9.54 12.12c-18 22.87-43.6 38.54-72.15 44.16l-4.62.9z"></path><path fill="#ffe3ca" d="M672.41 595.97s16.97-10.14 16.97 0v15.4c0 5.92-4.8 10.72-10.72 10.72h-6.24c-.01.01-15.61-15.2-.01-26.12z"></path><path fill="#ffbe55" d="m794.06 285.74 44.07-6.06c12.86.57 25.73 4.26 38.02 8.09l36.04 14.1c1.47.58 3.1-.34 3.37-1.9 5.49-31.88-15.91-62.17-47.79-67.66l-9.8-1.69c-28.2-4.85-54.26 10.69-63.69 36.41-2.21 6.01-2.17 12.62-.22 18.71z"></path><path fill="#0e538c" d="m887.41 292.18-7.23-2.83-.57 67.64c-.04 5.12-2.86 9.83-7.41 12.18-4.31 2.22-10.63 4.42-19.28 4.96l-15.7.14s1.36 6.64 10.85 6.64 20.44-2.99 27.68-7.02c.06-.03.12-.07.18-.1 5.79-3.28 9.22-9.57 9.43-16.22l2.05-65.39z"></path></g></svg>