<svg xmlns="http://www.w3.org/2000/svg" width="4000" height="3000" enable-background="new 0 0 4000 3000" id="fighter"><g><g><path fill="#ffe8d9" d="M2049.6 223.7c352.8 0 679.7 79.4 948.2 214.7l36.7 42.3-111.8 129h110.5l88.6-102.3c59.8 36.6 115.9 76.3 167.9 118.6-88.7 104.5-220.3 167.7-362.4 167.7H1171.8c-142 0-273.6-63.2-362.4-167.7 73.1-59.5 154.3-113.6 242.4-161.6l14.2 16.3-111.8 129h110.5l111.8-129-48.2-55.6c31.8-15.4 64.4-30 97.7-43.7l86.1 99.3c-37.3 43-74.5 86-111.8 129h110.5c37.3-43 74.5-86 111.8-129-37.2-43-74.5-86-111.8-129h-8.6c224.4-81.8 478.4-128 747.4-128zm-603.2 128.1h110.5c37.3 43 74.5 86 111.8 129-37.3 43-74.5 86-111.8 129h-110.5c37.3-43 74.5-86 111.8-129-37.3-43.1-74.6-86-111.8-129zm246 0h110.5c37.3 43 74.5 86 111.8 129-37.2 43-74.5 86-111.8 129h-110.5c37.3-43 74.5-86 111.8-129-37.3-43.1-74.5-86-111.8-129zm246.1 0H2049c37.3 43 74.5 86 111.8 129-37.2 43-74.5 86-111.8 129h-110.5c37.3-43 74.5-86 111.8-129-37.3-43.1-74.6-86-111.8-129zm246.1 0h110.5c37.3 43 74.5 86 111.8 129-37.3 43-74.5 86-111.8 129h-110.5c37.3-43 74.5-86 111.8-129-37.3-43.1-74.6-86-111.8-129zm246 0h110.5c37.3 43 74.5 86 111.8 129-37.3 43-74.5 86-111.8 129h-110.5c37.3-43 74.5-86 111.8-129-37.3-43.1-74.5-86-111.8-129zm246.1 0h110.5c37.3 43 74.5 86 111.8 129-37.2 43-74.5 86-111.8 129h-110.5c37.3-43 74.5-86 111.8-129-37.3-43.1-74.6-86-111.8-129zm841.5 513.4c48.4 66.9 88.1 137.5 118.3 211l-331.7 91.4 343.8-60.4c32.2 87.2 50.9 178.4 54.5 272.3l-372 31.4 372.6 9.9c-.9 101.5-19.6 200-53.9 294l-345-60.6 333 91.8c-36.4 89.6-87 174.9-150.1 254.5-112.1-55-235.3-85.1-361-87.7H972.5c-125.7 2.6-248.9 32.7-361 87.7-62.7-79.1-113.1-163.8-149.4-252.9l332.3-91.6-344.4 60.5c-34.5-93.9-53.3-192.4-54.5-293.9l372.6-9.9-372.1-31.4c3.4-93.9 21.9-185.1 54-272.4l344.4 60.5-332.3-91.6c30.2-74.1 70.2-145.3 118.9-212.6 120.1 64.9 254.3 100.5 391.5 103.4h2154.1c137.3-2.9 271.5-38.5 391.6-103.4zm-258.5 1358c-48.2 37.1-99.6 72-153.9 104.5l-2027.2-102.8 1796.7 218.2c-243 100.8-524.9 158.6-825.7 158.6-477.8 0-908.2-145.7-1210.1-378.5 87.1-85.2 205.6-135.6 332.4-135.6h1755.5c126.8 0 245.2 50.4 332.3 135.6z"></path><path fill="#ffd4ba" d="M3583 1859.3c-27.5 48.8-59.4 95.9-95.3 141.2-112.1-54.9-235.3-85.1-361-87.7H972.5c-125.7 2.6-248.9 32.7-361 87.7-35.9-45.3-67.8-92.4-95.3-141.2 122.7-63.3 258.6-98 397.5-100.9h2271.9c138.8 2.9 274.7 37.6 397.4 100.9z"></path><path fill="#fff" d="M1159.3 1829.1h1780.6l-52.7-47.3H1212z"></path><path fill="#ffd4ba" d="M3583 965.9c-19.4-34.4-41-68-64.7-100.8-120.1 64.9-254.3 100.6-391.6 103.4H972.5C835.2 965.6 701 930 580.9 865.1c-23.7 32.7-45.3 66.3-64.7 100.8 122.7 63.3 258.6 98 397.5 100.9h2271.9c138.8-2.9 274.7-37.6 397.4-100.9z"></path><path fill="#ffd8bf" d="M979.6 968.6v944.2h-7.1c-35.2.7-70.2 3.6-104.8 8.6V960c34.6 5 69.6 7.9 104.8 8.6h7.1zm2251.9-8.6v961.4c-34.6-5-69.6-7.9-104.8-8.6h-7.1V968.6h7.1c35.2-.8 70.2-3.7 104.8-8.6z"></path><path fill="#fff" d="m1528.9 1221.8 392.9 14.7 392.9 14.7 393.1-3.5 393.2-3.5-392.9-14.7-392.9-14.8-393.1 3.5zM1126.7 1591.2l392.9 14.7 392.9 14.7 393.2-3.5 393.1-3.5-392.9-14.7-392.8-14.7-393.2 3.5zM993.9 1409.4l506.4 19 506.3 19 506.7-4.6 506.6-4.5-506.3-19-506.3-19-506.7 4.6z"></path><path fill="#ffd8bf" d="M1341.4 857.1h1416.3c13 0 23.6 10.6 23.6 23.6 0 13-10.6 23.6-23.6 23.6H1341.4c-13 0-23.6-10.6-23.6-23.6 0-13 10.6-23.6 23.6-23.6zM1341.4 1977.5h1416.3c13 0 23.6 10.6 23.6 23.6 0 13-10.6 23.6-23.6 23.6H1341.4c-13 0-23.6-10.6-23.6-23.6 0-13 10.6-23.6 23.6-23.6z"></path><path fill="#ffe8d9" d="M2049.6 2096.9c749.2 0 1383 108.6 1593.7 258l-2564.8-130 2602 316c-161.5 165.4-830.3 289.4-1631 289.4-921.4 0-1668.3-164.2-1668.3-366.7.1-202.5 747-366.7 1668.4-366.7z"></path><path fill="#fff7f2" d="M2654.9 2805.5c-187.7 16.1-391.8 24.9-605.3 24.9-921.4 0-1668.3-164.2-1668.3-366.7 0-50.9 47.1-99.3 132.3-143.3l2141.3 485.1z"></path><ellipse cx="2141.4" cy="2402.4" fill="#f5b790" rx="454.4" ry="115.5"></ellipse><ellipse cx="1978.4" cy="2512.5" fill="#f5b790" rx="232" ry="58.9"></ellipse><path fill="#ffd4ba" d="M870.6 2519.6c77.3 0 139.9 18.4 139.9 41.1s-62.6 41.1-139.9 41.1c-77.3 0-139.9-18.4-139.9-41.1s62.6-41.1 139.9-41.1zm2332.5-134.7c50.2 0 90.9 12.8 90.9 28.6s-40.7 28.6-90.9 28.6-90.9-12.8-90.9-28.6 40.7-28.6 90.9-28.6zm-309.5 175.7c64.7 0 117.2 16.6 117.2 37.2 0 20.5-52.5 37.2-117.2 37.2s-117.2-16.6-117.2-37.2c.1-20.5 52.5-37.2 117.2-37.2zm-314.5-428.3c21.2 0 38.3 3.7 38.3 8.3s-17.2 8.3-38.3 8.3c-21.2 0-38.3-3.7-38.3-8.3-.1-4.6 17.1-8.3 38.3-8.3zm-1275.8 56.8c31.4 0 56.8 7.2 56.8 16.2 0 8.9-25.4 16.2-56.8 16.2s-56.8-7.2-56.8-16.2 25.5-16.2 56.8-16.2z"></path><path fill="#fff" d="M925.1 1138.2H954v48.6h-28.9v-48.6zm2220.2 0h28.9v48.6h-28.9v-48.6zm28.8 75.5v98.7h-28.9v-98.7h28.9zm0 136v98.7h-28.9v-98.7h28.9zm0 143.7v67.8h-28.9v-67.8h28.9zM953.9 1213.7v98.7H925v-98.7h28.9zm0 136v98.7H925v-98.7h28.9zm0 143.7v67.8H925v-67.8h28.9zM2372.2 589.2c-2 1.1-4.5.5-5.6-1.5-1.1-2-.5-4.5 1.5-5.6l187.6-108.3c.6-.4 1.4-.6 2.1-.6h453.3c2.3 0 4.1 1.9 4.1 4.1 0 2.3-1.9 4.1-4.1 4.1h-452.2l-186.7 107.8zM2560.3 435.2v-2.4c0-7.3 5.9-13.2 13.2-13.2h22.1c7.3 0 13.2 5.9 13.2 13.2v2.4c0 7.3-5.9 13.2-13.2 13.2h-22.1c-7.2 0-13.2-5.9-13.2-13.2zm88.8-15.6h72.3c7.3 0 13.2 5.9 13.2 13.2v2.4c0 7.3-5.9 13.2-13.2 13.2h-72.3c-7.3 0-13.2-5.9-13.2-13.2v-2.4c0-7.3 5.9-13.2 13.2-13.2zm136 0h72.3c7.3 0 13.2 5.9 13.2 13.2v2.4c0 7.3-5.9 13.2-13.2 13.2h-72.3c-7.3 0-13.2-5.9-13.2-13.2v-2.4c-.1-7.3 5.9-13.2 13.2-13.2zm143.6 0h41.4c7.3 0 13.2 5.9 13.2 13.2v2.4c0 7.3-5.9 13.2-13.2 13.2h-41.4c-7.3 0-13.2-5.9-13.2-13.2v-2.4c0-7.3 5.9-13.2 13.2-13.2z"></path><path fill="#e3915d" d="M2358.9 573.1c-2 1.1-4.5.5-5.6-1.5-1.1-2-.5-4.5 1.5-5.6l187.6-108.3c.6-.4 1.4-.6 2.1-.6h453.3c2.3 0 4.1 1.9 4.1 4.1 0 2.3-1.9 4.1-4.1 4.1h-452.2l-186.7 107.8zM2547 419.1v-2.4c0-7.3 5.9-13.2 13.2-13.2h22.1c7.3 0 13.2 5.9 13.2 13.2v2.4c0 7.3-5.9 13.2-13.2 13.2h-22.1c-7.3 0-13.2-5.9-13.2-13.2zm88.8-15.6h72.3c7.3 0 13.2 5.9 13.2 13.2v2.4c0 7.3-5.9 13.2-13.2 13.2h-72.3c-7.3 0-13.2-5.9-13.2-13.2v-2.4c-.1-7.3 5.9-13.2 13.2-13.2zm135.9 0h72.3c7.3 0 13.2 5.9 13.2 13.2v2.4c0 7.3-5.9 13.2-13.2 13.2h-72.3c-7.3 0-13.2-5.9-13.2-13.2v-2.4c0-7.3 5.9-13.2 13.2-13.2zm143.7 0h41.4c7.3 0 13.2 5.9 13.2 13.2v2.4c0 7.3-5.9 13.2-13.2 13.2h-41.4c-7.3 0-13.2-5.9-13.2-13.2v-2.4c0-7.3 5.9-13.2 13.2-13.2z"></path><path fill="#fff" d="M1667.5 825.1c2 1.1 4.5.5 5.6-1.5 1.1-2 .5-4.5-1.5-5.6L1484 709.7c-.6-.4-1.4-.6-2.1-.6h-453.3c-2.3 0-4.1 1.9-4.1 4.1 0 2.3 1.9 4.1 4.1 4.1h452.2l186.7 107.8zM1479.4 671.1v-2.4c0-7.3-5.9-13.2-13.2-13.2h-22.1c-7.3 0-13.2 5.9-13.2 13.2v2.4c0 7.3 5.9 13.2 13.2 13.2h22.1c7.3 0 13.2-5.9 13.2-13.2zm-88.8-15.6h-72.3c-7.3 0-13.2 5.9-13.2 13.2v2.4c0 7.3 5.9 13.2 13.2 13.2h72.3c7.3 0 13.2-5.9 13.2-13.2v-2.4c.1-7.3-5.9-13.2-13.2-13.2zm-135.9 0h-72.3c-7.3 0-13.2 5.9-13.2 13.2v2.4c0 7.3 5.9 13.2 13.2 13.2h72.3c7.3 0 13.2-5.9 13.2-13.2v-2.4c0-7.3-6-13.2-13.2-13.2zm-143.7 0h-41.4c-7.3 0-13.2 5.9-13.2 13.2v2.4c0 7.3 5.9 13.2 13.2 13.2h41.4c7.3 0 13.2-5.9 13.2-13.2v-2.4c0-7.3-5.9-13.2-13.2-13.2z"></path><path fill="#e3915d" d="M1650.2 809c2 1.1 4.5.5 5.6-1.5 1.1-2 .5-4.5-1.5-5.6l-187.6-108.3c-.6-.4-1.4-.6-2.1-.6h-453.3c-2.3 0-4.1 1.9-4.1 4.1 0 2.3 1.9 4.1 4.1 4.1h452.2L1650.2 809zM1462.1 655v-2.4c0-7.3-5.9-13.2-13.2-13.2h-22.1c-7.3 0-13.2 5.9-13.2 13.2v2.4c0 7.3 5.9 13.2 13.2 13.2h22.1c7.2 0 13.2-5.9 13.2-13.2zm-88.8-15.6H1301c-7.3 0-13.2 5.9-13.2 13.2v2.4c0 7.3 5.9 13.2 13.2 13.2h72.3c7.3 0 13.2-5.9 13.2-13.2v-2.4c0-7.3-5.9-13.2-13.2-13.2zm-136 0H1165c-7.3 0-13.2 5.9-13.2 13.2v2.4c0 7.3 5.9 13.2 13.2 13.2h72.3c7.3 0 13.2-5.9 13.2-13.2v-2.4c0-7.3-5.9-13.2-13.2-13.2zm-143.7 0h-41.4c-7.3 0-13.2 5.9-13.2 13.2v2.4c0 7.3 5.9 13.2 13.2 13.2h41.4c7.3 0 13.2-5.9 13.2-13.2v-2.4c.1-7.3-5.9-13.2-13.2-13.2z"></path><path fill="#fff" d="M1636.9 1501.1c2 1.1 4.5.5 5.6-1.5 1.1-2 .5-4.5-1.5-5.6l-187.6-108.3c-.7-.4-1.4-.6-2.1-.6H998c-2.3 0-4.1 1.9-4.1 4.1 0 2.3 1.9 4.1 4.1 4.1h452.2l186.7 107.8zM1448.7 1347.1v-2.4c0-7.3-5.9-13.2-13.2-13.2h-22.1c-7.3 0-13.2 5.9-13.2 13.2v2.4c0 7.3 5.9 13.2 13.2 13.2h22.1c7.3 0 13.2-5.9 13.2-13.2zm-88.7-15.6h-72.3c-7.3 0-13.2 5.9-13.2 13.2v2.4c0 7.3 5.9 13.2 13.2 13.2h72.3c7.3 0 13.2-5.9 13.2-13.2v-2.4c0-7.3-6-13.2-13.2-13.2zm-136 0h-72.3c-7.3 0-13.2 5.9-13.2 13.2v2.4c0 7.3 5.9 13.2 13.2 13.2h72.3c7.3 0 13.2-5.9 13.2-13.2v-2.4c0-7.3-5.9-13.2-13.2-13.2zm-143.7 0h-41.4c-7.3 0-13.2 5.9-13.2 13.2v2.4c0 7.3 5.9 13.2 13.2 13.2h41.4c7.3 0 13.2-5.9 13.2-13.2v-2.4c0-7.3-5.9-13.2-13.2-13.2z"></path><path fill="#e3915d" d="M1650.2 1485.1c2 1.1 4.5.5 5.6-1.5 1.1-2 .5-4.5-1.5-5.6l-187.6-108.3c-.7-.4-1.4-.6-2.1-.6h-453.3c-2.3 0-4.1 1.9-4.1 4.1 0 2.3 1.9 4.1 4.1 4.1h452.2l186.7 107.8zM1462.1 1331v-2.4c0-7.3-5.9-13.2-13.2-13.2h-22.1c-7.3 0-13.2 5.9-13.2 13.2v2.4c0 7.3 5.9 13.2 13.2 13.2h22.1c7.2 0 13.2-5.9 13.2-13.2zm-88.8-15.6H1301c-7.3 0-13.2 5.9-13.2 13.2v2.4c0 7.3 5.9 13.2 13.2 13.2h72.3c7.3 0 13.2-5.9 13.2-13.2v-2.4c0-7.3-5.9-13.2-13.2-13.2zm-136 0H1165c-7.3 0-13.2 5.9-13.2 13.2v2.4c0 7.3 5.9 13.2 13.2 13.2h72.3c7.3 0 13.2-5.9 13.2-13.2v-2.4c0-7.3-5.9-13.2-13.2-13.2zm-143.7 0h-41.4c-7.3 0-13.2 5.9-13.2 13.2v2.4c0 7.3 5.9 13.2 13.2 13.2h41.4c7.3 0 13.2-5.9 13.2-13.2v-2.4c.1-7.3-5.9-13.2-13.2-13.2z"></path><path fill="#fff" d="M2372.2 1720.4c-2 1.1-4.5.5-5.6-1.5-1.1-2-.5-4.5 1.5-5.6l187.6-108.3c.6-.4 1.4-.6 2.1-.6h453.3c2.3 0 4.1 1.9 4.1 4.1 0 2.3-1.9 4.1-4.1 4.1h-452.2l-186.7 107.8zM2560.3 1566.3v-2.4c0-7.3 5.9-13.2 13.2-13.2h22.1c7.3 0 13.2 5.9 13.2 13.2v2.4c0 7.3-5.9 13.2-13.2 13.2h-22.1c-7.2.1-13.2-5.9-13.2-13.2zm88.8-15.6h72.3c7.3 0 13.2 5.9 13.2 13.2v2.4c0 7.3-5.9 13.2-13.2 13.2h-72.3c-7.3 0-13.2-5.9-13.2-13.2v-2.4c0-7.3 5.9-13.2 13.2-13.2zm136 0h72.3c7.3 0 13.2 5.9 13.2 13.2v2.4c0 7.3-5.9 13.2-13.2 13.2h-72.3c-7.3 0-13.2-5.9-13.2-13.2v-2.4c-.1-7.3 5.9-13.2 13.2-13.2zm143.6 0h41.4c7.3 0 13.2 5.9 13.2 13.2v2.4c0 7.3-5.9 13.2-13.2 13.2h-41.4c-7.3 0-13.2-5.9-13.2-13.2v-2.4c0-7.3 5.9-13.2 13.2-13.2z"></path><path fill="#e3915d" d="M2358.9 1704.3c-2 1.1-4.5.5-5.6-1.5-1.1-2-.5-4.5 1.5-5.6l187.6-108.3c.7-.4 1.4-.6 2.1-.6h453.3c2.3 0 4.1 1.9 4.1 4.1 0 2.3-1.9 4.1-4.1 4.1h-452.2l-186.7 107.8zM2547 1550.2v-2.4c0-7.3 5.9-13.2 13.2-13.2h22.1c7.3 0 13.2 5.9 13.2 13.2v2.4c0 7.3-5.9 13.2-13.2 13.2h-22.1c-7.3.1-13.2-5.9-13.2-13.2zm88.8-15.6h72.3c7.3 0 13.2 5.9 13.2 13.2v2.4c0 7.3-5.9 13.2-13.2 13.2h-72.3c-7.3 0-13.2-5.9-13.2-13.2v-2.4c-.1-7.2 5.9-13.2 13.2-13.2zm135.9 0h72.3c7.3 0 13.2 5.9 13.2 13.2v2.4c0 7.3-5.9 13.2-13.2 13.2h-72.3c-7.3 0-13.2-5.9-13.2-13.2v-2.4c0-7.2 5.9-13.2 13.2-13.2zm143.7 0h41.4c7.3 0 13.2 5.9 13.2 13.2v2.4c0 7.3-5.9 13.2-13.2 13.2h-41.4c-7.3 0-13.2-5.9-13.2-13.2v-2.4c0-7.2 5.9-13.2 13.2-13.2z"></path></g></g><g><g><path fill="#fff" d="M2284.7 1661.2c8.3-5 16.2-10.5 23.6-16.4l.6-129.9c.5-100.8-8.9-201.5-28.1-300.5-6.1-31.5-10.3-67.4-13.1-99.3-.3-.8-.7-1.6-1-2.4 5-12.8 3.6-28.1-.2-47.8-7-36.7-20.2-71.9-8.9-107.5 3.2-10 5.5-20.1 7.1-30.4 3.5 1.8 7.1 3.3 10.7 4.5 4.8 1.5 30.5 17.6 32 17.7 3.1.3 6.2-.6 8.6-2.6 12.3-10.3 27.8-14.7 42.2-21.5 20.3-9.5 35.3-21 47.3-34 3.7-.8 7.4-2.2 11.1-4.1l41-20.9c18.7-9.5 28.6-24.4 32-40.9 24.5-11.5 46.6-26.5 65.4-44.5 12.7-12.2 16-30.1 8.9-46.6 1.4-1 2.5-2.5 3.1-4.2.9-2.3.7-4.9-.4-7.2l-33.3-66.2c-.7-1.8-2.1-3.1-3.9-3.8s-3.7-.5-5.4.4l-.4.2-2.8-5.7c-8.7-13.5-27.3-19.5-42.3-13.7l-35 13.7c-.9.5-1.8 1-2.6 1.5-2.1-10.8-7.4-20.7-15.5-29.6-8.3-9.1-28 .5-24.1 12.2 4.5 13.6 3.8 28.3-1.9 41.4-4.9 11.4-3.5 24.6 3.7 34.7l7.6 10.6.9 8.7c-11.2 1.2-22.8 5.9-34.3 15.2l-26.5 21.5c-.4.3-.8.6-1.1 1-2.4-27.2-11.2-53.5-25.6-76.6-4.2-6.7-4.8-15.1-1.6-22.3 7.2-16.6 7.2-35.5 0-52l-23-52.8c-5.2-20.3-22.3-35-42.8-36.8l-80.2-7.1-15.6-10.9-143.7-78.8c-11.2 23.3-31.5 40.8-56 48.4-27.7 8.6-53.4 22.8-75.5 41.8l-21.9 18.9c-4.5-.1-8.6 2.5-10.6 6.6-2 4.2-3.9 8.4-5.7 12.7-21.9 9.5-40.2 26.3-51.8 48.1-7.2 13.7-10.6 29.1-9.7 44.6.6 11.7-3.1 23.2-10.6 32.2-20.4 24.7-33.7 54.7-38.2 86.7-6 42.5-18 103.5-34.1 143.2-8.3 20.5-8.4 23.9-1.6 45 3.1 9.7.7 19.6 0 29.7-3.9 60.1 11.1 136.2 47.1 192.3l82-21.8-4.2-40.1c-2.9-27.2 14.8-111.3-.7-181.2-2-8.8-8.2-34.1 0-37.5 17.6-7.4 30.9-20.9 41.8-36.6 7.8 13.2 16.6 25.9 26.3 38 12.8 16 20 36 20.3 56.6.5 32.8 1 65.6 1.6 98.5.1 4.3 2.3 8.2 6 10.4 3.6 2.2 8.1 2.3 11.9.3 46.1-24.6 102.9-13.3 136.4 27.1 16.9 20.3 38.2 35.3 61.6 44.4-3.9 78.4 11.7 232.9 8.6 256.5-11.8 89.7-26.9 154.6-44.1 211.4l-25.9 5.5-75.5-46.9-140.6 35.1c-9.9 58.9-16.1 128.5-15.3 188.2.3 20.8-5.7 41.1-17.1 58.5l-64.3 112.1c-9 15.7-10.8 29.8-11.4 47.9-3.6 116.2 3.9 210.6 20.5 325.6 1.6 10.8-1 21.9-7.3 30.9-7.5 10.7-9 24.5-4.1 36.5l7.5 18.5c-3.7 14-10.8 27-20.6 38.1-11.3 12.8-12.6 31.1-3.1 43.9l1.2 1.6c5.7 7.6 12.7 12.4 21.9 15.1 2.9.8 5.6 2.3 7.9 4.2.6.5 7.2 14.3 15.8 23.8 5.8 6.4 14.7 9.6 15.3 10.5 6.1 8.3 16.1 12.8 26.8 12.2l6.9-.4c3.6-.2 6.8.7 9.6 2.7 5.1 3.8 11.9 5.1 18.5 3.4l2.6-.7c4-1 7.7-.6 11.1 1.4 5.6 3.2 12.7 3.6 19.3.9l2.5-1c4.6-1.9 9.2-1.7 13.3.6 7.4 4.1 17 3.4 24.5-2.4l1.4-1.1c3.3-2.6 7-3.7 11-3.5 4.6.3 9.3-1 14-2.4 20.7-6.2 35.2-46.6 4.5-46.2-11.9.6-22.5-5.7-27.3-16.2-4-8.9-9.5-17-16.2-24-15.1-15.7-28.4-33-39.8-51.6l-18.6-30.9c-14.7-85.2-3-173 33.7-251.4 15.6-33.4 24.7-69.5 26.8-106.4 1.4-24.5 4.1-48.9 8.1-73.1l4.9-29.2 17.1-49.5c14.6-10.4 25.9-24.7 32.5-41.4l12.2-30.9c8.9-4.2 16.1-11.4 20.3-20.3 18.5-38.7 34.7-79.2 47.3-120.3l23 83.3-1 32.5c-16 48.3-31.5 96.7-46.3 145.4-6.9 22.6-6.5 46.8 1.2 69 16.5 47.7 24.8 98 24.5 148.6l-.7 122.2-4.8 5.3c-2.1 8.8-13.3 45.9-10.3 64.8 1.4 8.6 8.8 15 16.8 18.4 31.2 13.2 55.2 5.5 87.2-5.7 28.8-10 60.7-3.9 83.7 16.1 11.4 10 27.4 13 41.7 7.8 9-3.2 18.7-4.1 28.2-2.4 10.2 1.8 20.6 1.8 30.9 0 13.2-2.3 23.1-13.1 24.4-26.4.3-3.2-1.1-6.2-3.7-8.1-2.6-1.8-6-2.2-8.9-.8-8 3.6-17.3 3-24.8-1.6-7-4.4-14.9-7-23.1-7.7-14.4-1.2-27.8-8.3-36.9-19.5-15.6-19.1-34.8-34.9-56.4-46.7-11.2-6.1-21.7-13.4-31.3-21.9l-6-5.3c-11.8-43.1-10.7-88.7 3-131.4 15.7-48.6 26-98.7 30.9-149.4l9.5-99.1c10.1-15 19.9-30.2 29.5-45.5 6.6-10.5 10.3-22.6 10.8-34.9l1.9-50.3c10.6-21.5 18.6-43.7 23.7-66.6zM2128.1 204.8l24.2 58.6 2.8 39.5 9.2 26.8c3 8.8 4 18.3 2.8 27.5-3.4 26.7-3.7 43.8-11.1 69.7-5 17.5-27 22.6-44.6 18l-76.2-19.9c-14.8-3.9-26.5-15.1-31-29.6-9.8-31.5-23.6-61.6-40.9-89.6l-8.5-48 40.9-38.1c36-33.7 89.8-39.7 132.4-14.9z"></path><path fill="#fff" d="m1994.8 454.2 1.9-16.2c1.8-15.1.6-30.5-3.4-45.2-8.9-32-18.1-63.9-27.8-95.6l163.5 53.3 14 64.6 1.1 15.5c3 43.3-6.1 86.5-26.3 124.6l-23.5-7.4c-45.1-14.3-81.6-48.6-99.5-93.6z"></path><path fill="#f93" d="m1981.6 460.1 1.9-16.2c1.8-15.1.7-30.5-3.4-45.2-8.9-32-18.1-63.9-27.8-95.6l163.5 53.3 14 64.6 1.1 15.5c3 43.3-6.1 86.5-26.3 124.6l-23.5-7.4c-45.1-14.3-81.6-48.6-99.5-93.6z"></path><path fill="#fa8220" d="m2033.2 329.4 82.6 26.9 14 64.6 1.1 15.5c3 43.3-6.1 86.5-26.3 124.6l-8.7-2.8-48.8-100.2 1.2-13.6c3.6-39-1.6-78.3-15.1-115z"></path><path fill="#e85c10" d="m2127.2 409.3 2.5 11.6 1.1 15.5c1.5 21.8-.1 43.5-4.5 64.6 1.7-21.2-7.5-32.5-17.2-41.7-13.8-12.9-27.7-25.6-41.6-38.4l59.7-11.6z"></path><path fill="#db310f" d="M1947.3 2526.6c4.7 2.8 10.1 4.3 15.6 4.4 30.7 1.5 19 41.2-1.2 46.2-4.6 1.1-9.3 2.1-13.9 1.5-4.1-.5-7.6.4-10.8 2.8l-1.3 1c-7 5.3-16.7 5.5-24.3.9-4.3-2.6-8.9-3-13.3-1.4l-2.4.9c-6.3 2.3-13.4 1.5-19.3-2.1-3.6-2.2-7.3-2.9-11.2-2.1l-2.5.5c-6.5 1.3-13.3-.4-18.7-4.5-3-2.3-6.2-3.4-9.8-3.4h-6.8c-10.6 0-20.9-5.2-27.6-13.9-.6-.7-6.4-3.3-12-7.7 11.5 6.4 25.2 6.1 35.6-.7 5.3-3.5 12.5-2.7 17.5 1.9 5.7 5.3 14 6 19.9 1.6 6.8-5 16.7-3.7 22.7 3 2.3 2.6 5.5 4.2 8.9 4.5 3.4.3 6.6-.8 9-3 4.5-4.1 10.8-5.7 17-4.2 5.8 1.3 11.6-.7 14.9-5.2 3.4-4.6 3.7-10.8.9-16.1-.9-1.7-1.9-3.3-2.9-4.8l16-.1z"></path><path fill="#e85c10" d="m2407.7 726.6-7.5-10.4c-7.1-9.9-8.5-22.8-3.7-34 5.6-12.9 6.2-27.3 1.8-40.6-3.8-11.5 15.5-20.9 23.7-12 14.7 16.1 19.8 35.4 13.9 58.3l-28.2 38.7zM2276.9 1562v39.4c0 43.7-10.3 86.9-30 125.9l-1.6 50.3c-.4 12.4-4 24.4-10.6 34.9-9.5 15.3-19.2 30.5-29.2 45.5l-8.9 99.1c-4.6 50.7-14.7 100.8-30 149.4-14.1 44.3-14.3 91.9-.8 136.4l9.5 8.4c9.6 8.5 20 15.8 31.3 21.9 21.7 11.8 40.8 27.6 56.4 46.7 9.2 11.2 22.5 18.2 36.9 19.5 8.2.7 16.1 3.3 23.1 7.7 7.5 4.7 16.8 5.3 24.8 1.6 2.9-1.3 6.3-1 8.9.8 2.6 1.8 4 4.9 3.7 8.1-1.2 13.3-11.2 24.1-24.4 26.4-10.2 1.8-19-3.9-29.2-5.7-9.4-1.6-19.1-.8-28.2 2.4-14.3 5.1-44.3 3-58.1-3.4-27.5-12.7-45.1-16.1-71.9-12.1-33.5 5-53 16.1-84.2 2.8-8-3.4-15.4-9.8-16.8-18.4-3-18.9 8.2-56 10.3-64.8v-135.6c0-50.6-8.6-100.9-25.3-148.6-7.8-22.3-8.4-46.4-1.6-69 14.6-48.6 29.7-97.1 45.5-145.4l.8-32.5-39.8-141.3 239.4-50.4z"></path><path fill="#db310f" d="m2245.4 1770.1-.2 7.5c-.4 12.4-4 24.4-10.6 34.9-9.5 15.3-19.2 30.5-29.2 45.5l-.2 2.2c-15.9 2.3-31.2-7.3-35.9-22.7l-4.1-13.4c27.6.7 53.6-12.9 68.7-36.1l11.5-17.9z"></path><path fill="#db310f" d="M2057.8 2285.1v-135.6c0-50.6-8.6-100.9-25.3-148.6-7.8-22.3-8.4-46.4-1.6-69 14.6-48.6 29.7-97.1 45.5-145.4l.8-32.5-39.8-141.3 26.2-5.5 181.3 43.2-86.9 112.8c-20.1 26.2-14.8 60.8-6.4 92.7l-41.5 67.6c-14 19.5-21.4 79.9-18.7 103.8 10.3 89.8 5.9 168.2 32.2 232l-19.5 11.9a62.891 62.891 0 0 0-30 58.5c.7 9.2 5.9 17.4 13.8 22 7.9 4.6 17.7 5 26 1.1 25-11.8 54.1-11.3 78.8 1.2 16.2 8.2 34.9 9.8 52.2 4.5 24-7.4 49.8-5.5 72.5 5.3 14.2 6.8 31.2 4.4 43-6.1-1.2 13.3-11.2 24.1-24.4 26.4-10.2 1.8-19-3.9-29.2-5.7-9.4-1.6-19.1-.8-28.2 2.4-14.3 5.1-44.3 3-58.1-3.4-27.5-12.7-45.1-16.1-71.9-12.1-33.5 5-53 16.1-84.2 2.8-8-3.4-15.4-9.8-16.8-18.4-3.1-18.7 8.1-55.8 10.2-64.6z"></path><path fill="#300" d="m1816.4 1611.2 4.1 5.3c18.7 24 48.5 36.6 78.8 33.5l-5.7-93.2-77.2 54.4z"></path><path fill="#db310f" d="m1792.1 1873.8-46.3 61.6c-15 20-23.1 44.4-22.9 69.4.4 53.4 4.8 106.7 13.2 159.5l56-290.5zM1829.4 1607.9l-7.6 59.4c-4.4 37.4-2.9 75.2 4.5 112.1l31.6-156.7-17.6-17.2-10.9 2.4z"></path><path fill="#f93" d="M2070 1616.5c-13.3 59.6-35.1 118.9-61.7 174.6-4.2 8.9-11.4 16.1-20.3 20.3l-12.2 30.9c-6.6 16.7-17.9 31.1-32.5 41.4l-17.1 49.5-4.9 29.2c-4 24.2-6.7 48.6-8.1 73.1-2.1 36.8-11.2 72.9-26.8 106.4-37.7 80.5-49 170.9-32.5 258.2l19.2 28.2c12.7 18.6 27.3 35.9 43.4 51.6 7.2 7 13.2 15.1 17.9 24 5.5 10.5 16.6 16.9 28.4 16.2 30.7-.4 19 40-1.2 46.2-4.6 1.4-9.3 2.7-13.9 2.4-4.1-.3-7.6.9-10.8 3.5l-1.3 1.1c-7 5.8-16.7 6.5-24.3 2.4-4.3-2.3-8.9-2.5-13.3-.6l-2.4 1c-6.3 2.7-13.4 2.3-19.3-.9-3.6-1.9-7.3-2.4-11.2-1.4l-2.5.7c-6.5 1.7-13.3.4-18.7-3.4-3-2.1-6.2-3-9.8-2.7l-6.8.4c-10.6.7-20.9-3.9-27.6-12.2-.7-.9-9.8-4.1-16.1-10.5-9.3-9.5-16.8-23.3-17.5-23.8-2.5-2-5.2-3.4-8.2-4.2-9.4-2.7-16.8-7.5-23-15.1l-1.3-1.6c-10.4-12.8-10.4-31.1 0-43.9 9.2-11.2 15.4-24.5 18-38.7l-8.9-21.9c-4.9-12.1-3.4-25.8 4.1-36.5 6.3-9 8.9-20 7.3-30.9-16.6-115.1-24.1-209.4-20.5-325.6.6-18.1 2.4-32.2 11.4-47.9l64.3-112.1c11.4-17.3 17.3-37.7 17.1-58.5-.8-59.7 5.4-129.3 15.3-188.2l140.6-35.1 87.7 54.4z"></path><path fill="#f27324" d="m1750.4 2424.1 1.2-5.4-8.3-20.3c2 4.1 6 7 10.6 7.5 5.2.6 10.3-1.9 13-6.4 4.6-7.5 6.5-16.2 5.7-24.9l-.4-4.1c7.5 12.3 9.9 44.7-10.8 48.7-3.9.9-7.7 2.5-11 4.9zM1943.3 1883.6l-17.1 49.5-4.9 29.2c-4 24.2-6.7 48.6-8.1 73.1-2.1 36.8-11.2 72.9-26.8 106.4-37.7 80.5-49 170.9-32.5 258.2l19.2 28.2c12.7 18.6 27.3 35.9 43.4 51.6 7.2 7 13.2 15.1 17.9 24 5.5 10.5 16.6 16.9 28.4 16.2 30.7-.4 19 40-1.2 46.2-4.6 1.4-9.3 2.7-13.9 2.4-4.1-.3-7.6.9-10.8 3.5l-1.3 1.1c-7 5.8-16.7 6.5-24.3 2.4-4.3-2.3-8.9-2.5-13.3-.6l-2.4 1c-6.3 2.7-13.4 2.3-19.3-.9-3.6-1.9-7.3-2.4-11.2-1.4l-2.5.7c-6.5 1.7-13.3.4-18.7-3.4-3-2.1-6.2-3-9.8-2.7l-6.8.4c-10.6.7-20.9-3.9-27.6-12.2-.6-.7-6.4-2.9-12-7 11.5 5.6 25.2 4.5 35.6-3 5.3-3.8 12.5-3.5 17.5.8 5.7 4.9 14 5.1 19.9.4 6.8-5.5 16.7-4.8 22.7 1.6 2.3 2.5 5.5 3.9 8.9 4 3.4.1 6.6-1.2 9-3.6 4.5-4.4 10.8-6.3 17-5.3 5.8 1 11.6-1.4 14.9-6.2 3.4-4.8 3.7-11 .9-16.2-4.8-8.6-11.8-15.6-20.4-20.3-31.5-17.3-57.7-42.8-75.8-73.9l-13.2-22.6c-26-149-4.8-307.8 33.1-451.5 5.4-20.4 23-35.4 41.5-45.7 14.7-8 29.3-16.2 44-24.4zM2070 1616.5c-13.3 59.6-35.1 118.9-61.7 174.6-4.2 8.9-11.4 16.1-20.3 20.3-26.5-16-59.5-16.6-86.6-1.6l-17.6 9.7c6.2-20.5 20.6-37.6 39.8-47.1 35.2-17.4 55-55.7 48.8-94.5-6.2-38.8-36.9-69-75.8-74.6l-24.7-3.5 5.4-11.5 105.1-26.2 87.6 54.4z"></path><path fill="#590000" d="M1905.8 1063.1c-8.8 19.9-17.6 39.8-26.3 59.8-32.6 74-36.1 157.7-9.7 234.2-28.6 92.5-41.2 149.7-53.3 254.2 69-18.4 153.5-27.6 231.7 30 73 53.8 173 51.8 243.7-4.9l.6-129.9c.5-100.8-8.9-201.5-28.1-300.5-6.1-31.5-10.5-63.2-13.3-95.1-87.1-37-174.1-74.1-261.2-111.1-28 21-56 42.1-84.1 63.3z"></path><path fill="#300" d="m1886.7 1106.5-7.2 16.3c-25.1 57-33 119.8-23.2 180.6-7.6-49.6 4.9-100.2 34.7-140.6 42.9-58.2 104.6-95.8 156.8-79.6l14.1-52.9-36.3-15.4-47.2-6.5-38.3 28.8 38.9-5.2 7.9 20c-18.1 39.1-73.6 66.2-100.2 54.5z"></path><path fill="#750404" d="M1848.4 1603.7c34.9-6.9 72.6-9.6 110.7-2.1 4.4-16.7 8.3-34.4 11.5-52.6 18-103.6 6.9-187.5-24.9-187.5-31.8 0-72.1 84-90.2 187.5-3.4 19-5.7 37.4-7.1 54.7z"></path><path fill="#300" d="M2061.5 1650.3c80.6 54 171.7 33.1 230.4-13.9l.6-129.9c.5-100.8-8.9-201.5-28.1-300.5-6.1-31.5-10.5-63.2-13.3-95.1-18.6 95.1-37.7 162.8-84.3 198.4-24.6 18.8-39 43.7-43 74.3-15.9 120-37.6 195.5-62.3 266.7z"></path><path fill="#590000" d="M2231.6 1670.2c22.2-8.1 42.7-19.8 60.3-33.9l.6-129.9c.2-42.2-1.3-84.4-4.6-126.4-3.6 82.4-18.1 163.9-43.1 242.5l-15.2 47.6 2 .1z"></path><path fill="#fff" d="M1859 1202.9c9.4-2.4 19.8-3.9 26.3-1.3 13.7 5.6 17.5 20 27.5 30.7 3.2 3.5 6.6 6.7 10.2 9.8 3.7 3.2 6.1 7.8 6.5 12.8.7 6.9 3.7 13.3 8.6 18.1 1.8 1.7 2.5 4.3 1.9 6.8-.6 2.5-2.4 4.6-4.9 5.5l-1.2.2c-11.2 0-21.7-4.5-29.1-12.5-3.8-4.1-6.9-8.8-9.1-14l-4.5-2.5c.1.8.3 1.6.4 2.4l16.4 34.1c2 4.2 2.9 8.9 2.9 13.5l3.4 7.4c9.6 21-15.7 39.3-30.9 25.3-.6-.6-1.3-1.2-1.9-1.8-.4 0-.7-.1-1.1-.1l1.2 2.7c9.6 21-15.7 39.3-30.9 25.3-.6-.6-1.3-1.2-1.9-1.8-1.3-.1-2.5-.3-3.7-.5-5.6 6.3-14.6 9.2-22.5 5.8-12.4 6.9-26.9 2.4-33.2-10.6l-.2-.5c-12.4 6.9-27 2.5-33.2-10.5l-4.5-9.5c-6.2-3.7-11.8-9.2-16.1-16.1-9.5-15.3-12.2-34.5-7-51.2l10.5-34.2c-5.5-1-9.2-3-10.1-6.4l-13.4-50c-1.2-4.6 3-9.8 10.7-15l-.9-3.2c-10.2-38.2 98.8-69.2 109-31l.9 3.2c7.8.6 13.1 2.8 14.2 6.9l13.4 50c.9 3.2-1 6.7-4.7 10.3l1 1.9z"></path><path fill="#e85c10" d="m2142.7 525.7 106.4 9.2c20.5 1.8 37.7 16.3 42.8 36.2l23 52c7.2 16.3 7.2 34.9 0 51.2-3.1 7.1-2.5 15.3 1.6 21.9 15.3 24.2 24.2 51.8 26 80.4h35.7l25.2-16.2 39 63.3c-22.3 44.5-39.2 81.3-91.8 105.6-14.5 6.7-29.9 11-42.2 21.1-2.4 2-5.5 2.9-8.6 2.6-1.5-.1-27.3-15.9-32-17.4-36.9-11.6-69.3-59.4-83.8-95.1l-41.3-314.8z"></path><path fill="#db310f" d="m2418.6 785.1 23.7 38.5c-22.3 44.5-39.2 81.3-91.8 105.6-14.5 6.7-29.9 11-42.2 21.1-2.4 2-5.5 2.9-8.6 2.6-1.5-.1-27.3-15.9-32-17.4-36.9-11.6-69.3-59.4-83.8-95.1l-11.5-87.5 75.6-89.5 32.2 48.7-23.8 50.2c-6.2 13.1-5.6 28.3 1.6 40.8 7.2 12.5 20 20.8 34.4 22.1l23.9-17c42.5 10.1 78.3 13.3 102.3-23.1z"></path><path fill="#f93" d="m2145.1 511.1 52 35.7c49.1 33.7 83.2 110 93.3 168.7 6.3 22.8-6.4 62-51.1 69.2l10.6 88.5c3.4 28.4.6 57.2-8.1 84.5-11.3 35.2 1.9 70.1 8.9 106.4 5.7 29.4 6 49-13 65l-18.7 6.5c-59.1 20.5-124.7 2.4-164.8-45.5-33.5-39.9-90.3-51.1-136.4-26.8-3.7 2-8.2 1.9-11.9-.3-3.6-2.2-5.9-6-6-10.3-.6-32.5-1.1-65-1.6-97.4-.3-20.4-7.5-40.2-20.3-56-80.4-99.5-96.3-236.4-40.6-351.6 2-4 6.1-6.6 10.6-6.5l21.9-18.7a213 213 0 0 1 75.5-41.4c24.5-7.5 44.8-24.9 56-47.9l143.7 77.9z"></path><path fill="#fa8220" d="m2145.1 511.1 52 35.7c49.1 33.7 83.2 110 93.3 168.7 6.3 22.8-6.4 62-51.1 69.2l10.6 88.5c3.4 28.4.6 57.2-8.1 84.5-11.3 35.2 1.9 70.1 8.9 106.4 5.7 29.4 6 49-13 65l-18.7 6.5c-3.7 1.3-7.5 2.4-11.2 3.4.1-10.1-.9-20.1-3.1-30l-3.5-16.1c-32.4-77.9-2.7-173.9-16.8-253.3 2.9-20.8 4.4-41.8 4.4-62.8v-16.3c-.1-91.8-33.7-180.5-94.5-249.3l-47.2-53.3 98 53.2z"></path><path fill="#f27324" d="M2277.8 667.4c5.7 16.6 10 33 12.6 48.2 6.3 22.8-6.4 62-51.1 69.2l7.6 63.8c-8.5-45.4-32.2-40.7-41.8-60.6-5.4-11.2-19.1-5.1-29.1.3-80.4 43.3-149.6 27.2-117.3 152 23.3 90.1-17.1 120.5 3.6 158.7-2.8-2.9-5.5-5.9-8.2-9-17.6-21-41.6-34-67.1-38.1 1.5-24.1-4.3-48.4-17.2-69.5-17-27.8-44.5-47.2-76.1-54.1-3.4-10.5-8.8-20.4-15.8-29.1-73-90.2-92.8-211.3-54.3-319l45 15.5 26.8 34.1c62.2 79.2 182.1 111.3 277.4 78.8 14.1-4.8 15.1-5 28.7.8 58.4 25 93.3 31.2 76.3-42z"></path><path fill="#db310f" d="M1877.9 899.3c-11.6-14.3-21.8-29.4-30.7-45.1 5-6.6 9.6-13.7 13.8-21 15.1-26.3 28.7-53.1 41.6-80.4 3.9-8.3 10.3-14 19.1-16.9 8.7-2.9 17.3-2.1 25.4 2.2 50 26.9 94.6 35.6 178.5 17.4-48.4 23.9-98.5 28.6-148.6 9.4-15.2-4.7-37.7-18-50-13.8-44.2 15.1-58.6 93.4-49.1 148.2zM2184.4 839.7l8.9 46.2c4.9 25.2 4.6 51.2-.8 76.3-9.9 45.8-5.6 93.5 12.2 136.9l-13.8-24c-16.3-28.2-21.7-61.4-15.4-93.4 9.1-46.7 13.3-91.3 8.9-142z"></path><ellipse cx="2014.4" cy="725.8" fill="#db310f" rx="23.9" ry="9.8"></ellipse><path fill="#f93" d="m1939 671.6 20.2-44.4c9.6-18.2 7-40.7-6.5-56.1-23.1-26.3-57.3-39.6-91.8-35.5-34.5 4.1-64.8 25.1-81.2 56.1-7.2 13.7-10.6 29.1-9.7 44.6.6 11.7-3.1 23.2-10.6 32.2-20.4 24.7-40.6 52.7-38.2 86.7-6 42.5-18 103.5-34.1 143.2-8.3 20.5-8.4 23.9-1.6 45 3.1 9.7.7 19.6 0 29.7-3.9 60.1 11.1 136.2 47.1 192.3l82-21.8-4.2-40.1c-2.9-27.2 14.9-111.3-.7-181.2-2-8.8-8.2-34.1 0-37.5 23-9.7 38.6-29.7 51.2-51.6 36.8-63.8 59.8-121.4 78.1-161.6z"></path><path fill="#f27324" d="M1809.8 884.8c23-9.7 38.6-29.7 51.2-51.6 36.8-63.8 59.7-121.4 78.1-161.6-32.5-23.4-54.5-3.7-97.6 3.6-9.8 1.7-22.8 9.7-10.4 21.2 45 41.7 43.3 127.7-21.3 188.4z"></path><path fill="#ffb463" d="M1836.5 558.9c32.9-15 72.3-12.5 88 5.5s1.8 44.8-31 59.8c-32.9 15-72.3 12.5-88-5.5-15.8-18-1.9-44.8 31-59.8z"></path><path fill="#fff" d="M1845.5 565.4c11.3-6 25.5-5.2 31.6 1.8 6.1 7 1.9 17.6-9.4 23.6s-25.5 5.2-31.6-1.8c-6.2-7-1.9-17.5 9.4-23.6z"></path><path fill="#f26a16" d="m2277.8 667.4.3.8.1.2.4 1.3.3.8.3.8.5 1.6.3.8.2.8.5 1.5.2.8.2.8.5 1.5.2.8.2.8.4 1.5.2.8.2.8.3 1 .6 2.1.2.8.5 1.9.3 1v.1l.2.8.4 1.4v.2l.2.6.4 1.5.2.8.1.3.6 2.3.1.3v.1l.2.7.3 1.5.1.6v.2l.5 2.2.1.4.1.3c.4 1.7.7 3.4 1.1 5.1V710.3l.5 2.6v.1c.2.9.3 1.8.5 2.7 6.3 22.8-6.4 62-51.1 69.2l7.6 63.8c-8.5-45.4-32.2-40.7-41.8-60.5-3.3-6.8-9.6-7.2-16.4-5.3V760.7c0-18.6-1.4-37.1-4.1-55.4 4.9-.7 8.5.6 17 4.2 58.4 24.9 93.3 31.1 76.3-42.1z"></path><path fill="#db310f" d="m2201.1 754 9.2 6.5c14.3 10 25.3 24 31.9 40.1l-1.8-14.9 9.1-2c-18.2-15.9-25.9-19.6-48.4-29.7z"></path><path fill="#f27324" d="m1719.3 921.8 1.6 47.6c2 57.8 16.7 114.5 43 166l-4.9-26.8c-11.3-62.6-30.2-121.1-39.7-186.8zM1799 723.7c-20.2 52.9-30.7 94.9 0 148.6-10.1-43.9-8.3-94.4 0-148.6z"></path><path fill="#ffb463" d="M1737.4 726c3.1-17.1 14.9-32 26.4-33.3 11.5-1.3 18.3 11.6 15.2 28.7-3.1 17.1-14.9 32-26.4 33.3-11.5 1.3-18.3-11.6-15.2-28.7zM1766.3 992c-4.8-40.6-.1-78.4 10.5-84.4s23.1 22 27.8 62.6.1 78.4-10.5 84.4-23-22-27.8-62.6z"></path><path fill="#fff" d="M1771.4 944.8c-2.4-13.1 0-25.3 5.3-27.2s11.5 7.1 13.9 20.2c2.4 13.1 0 25.3-5.3 27.2-5.3 1.9-11.5-7.1-13.9-20.2zM1781.5 1004.9c-.5-5.4 1.3-10.4 4-11.2 2.7-.8 5.4 2.9 5.9 8.3s-1.3 10.4-4 11.2-5.4-2.9-5.9-8.3z"></path><path fill="#f27324" d="M1731.5 854.8c.3 31.3-.5 55.9 10.1 86.5 3.5-50.7-3.5-46.5-10.1-86.5z"></path><path fill="#fff" d="M1742.6 745.6c-.5-5.4 1.3-10.4 4-11.2s5.4 2.9 5.9 8.3-1.3 10.4-4 11.2-5.4-3-5.9-8.3z"></path><path fill="#db310f" d="M1897.9 502.3c-15.8 11.9-29.3 26-40.3 42.2-37 5.5-78.3 28.7-87.5 91.8-5.2-43.4 25.1-91.5 80.4-104 14.7-11.4 30.4-21.6 47.4-30zM1686.7 961.3c-10.2 58.1-6.6 108.6 29.6 174.4-19.2-59.1-29.5-117.3-29.6-174.4zM2289.5 735c.5.4 1.1.8 1.6 1.3-.9 5.6-2.8 11.4-5.7 17l-.3-.2c-6.9-5.2-11.5-13.4-10.3-18.4 1.2-4.9 7.8-4.8 14.7.3z"></path><path fill="#f93" d="M1931.4 776.6c13 35.1 22.5 59.1 59.1 75.6-56.2 0-59.1-43.9-59.1-75.6z"></path><path fill="#f93" d="M1931.4 776.6c13 35.1 22.5 59.1 59.1 75.6-56.2 0-59.1-43.9-59.1-75.6zM1921.9 828.9c13 23.5 22.5 39.6 59.1 50.7-56.2 0-59.1-29.4-59.1-50.7z"></path><path fill="#ffb463" d="M2117 867c-10.5 3.9-23.6 1.3-29.3-6-5.7-7.2-1.8-16.3 8.6-20.3l10.3-3.9c6.5-2.4 13.4-4.1 20.5-4.8 7.1-.7 14.3-.6 21.5.5 11.7 1.7 19.2 9.6 16.7 17.7-2.4 8.1-13.9 13.3-25.5 11.6-2.1-.3-4.3-.3-6.5-.1-2.2.2-4.3.7-6.1 1.4L2117 867zM2117 925.5c-10.5 3.9-23.6 1.3-29.3-6-5.7-7.2-1.8-16.3 8.6-20.3l10.3-3.9c6.5-2.4 13.4-4.1 20.5-4.8 7.1-.7 14.3-.6 21.5.5 11.7 1.7 19.2 9.6 16.7 17.7-2.4 8.1-13.9 13.3-25.5 11.6-2.1-.3-4.3-.3-6.5-.1-2.2.2-4.3.7-6.1 1.4l-10.2 3.9zM2109.7 994.7c-10.5 3.9-23.6 1.3-29.3-6-5.7-7.2-1.8-16.3 8.6-20.2l10.3-3.9c6.5-2.4 13.4-4 20.5-4.8 7.1-.7 14.3-.6 21.5.5 11.7 1.7 19.2 9.6 16.7 17.7-2.4 8.1-13.9 13.3-25.5 11.6-2.1-.3-4.3-.3-6.5-.1-2.2.2-4.3.7-6.1 1.4l-10.2 3.8zM2132.3 1139.3c-27.1-15.9-44.8-56.9-49.5-65.4-16.4-30.2 38.4-45.8 60.9-41.1 11.7 2.4 16.5 13.6 16.7 25.5.4 21.6 13.4 63.6 21.1 85.1-16.5 1.4-33.2 0-49.2-4.1z"></path><path fill="#fff" d="M2131.2 1078.1c-2.4-10.2 0-19.8 5.3-21.3s11.5 5.6 13.9 15.8 0 19.8-5.3 21.3c-5.2 1.5-11.5-5.6-13.9-15.8zM2151.7 1122.6c-1-4.1 0-7.9 2.1-8.5 2.1-.6 4.6 2.2 5.5 6.3 1 4.1 0 7.9-2.1 8.5-2.1.6-4.5-2.3-5.5-6.3zM2137.3 971.3c-1.6-2.8 0-5.4 3.4-5.9 3.5-.4 7.6 1.5 9.1 4.3s0 5.4-3.4 5.9c-3.5.5-7.6-1.5-9.1-4.3zM2111.9 534.9c30.5 40.5 47.1 85 67.2 140.9-4-58.9-19.3-104.6-67.2-140.9z"></path><path fill="#f27324" d="M2067.4 525.4c-36.4-7.1-67.3-13.3-107.5-8.7l19.2-5.3c31.1-8.5 60.2-2.1 88.3 14z"></path><path fill="#ffb463" d="M1956 570.7c46.1-15 101.3-12.5 123.3 5.5s2.6 44.8-43.5 59.8-101.3 12.5-123.3-5.5c-22-18.1-2.5-44.8 43.5-59.8z"></path><path fill="#fff" d="M1993.2 576.8c11.3-3 25.5-2.6 31.6.9 6.1 3.5 1.9 8.8-9.4 11.8s-25.5 2.6-31.6-.9c-6.1-3.5-1.9-8.8 9.4-11.8z"></path><path fill="#f93" d="M2219.6 1000.8c2.8 3.1 6.3 1 7.8-4.8s.5-13-2.3-16.2l-2.7-3.1c-1.7-2-3.6-3.2-5.4-3.8-1.9-.6-3.8-.5-5.7.4-3.1 1.3-5.1 7.7-4.4 14.1.6 6.4 3.7 10.6 6.8 9.2.6-.2 1.1-.3 1.7-.1.6.2 1.1.5 1.6 1.1l2.6 3.2zM2227.2 933c2.7 2.7 6.2.9 7.7-4.1s.5-11.2-2.3-13.9l-2.7-2.7c-1.7-1.7-3.5-2.8-5.4-3.3-1.8-.5-3.8-.4-5.6.3-3.1 1.2-5 6.6-4.4 12.1.6 5.5 3.6 9.1 6.7 7.9.6-.2 1.1-.2 1.7-.1.6.2 1.1.5 1.6.9l2.7 2.9zM2221.4 866.9c3.1 2.4 7 .8 8.8-3.7 1.7-4.5.5-10.1-2.6-12.5l-3.1-2.4c-1.9-1.5-4-2.5-6.1-2.9-2.1-.4-4.3-.4-6.4.3-3.5 1-5.7 5.9-5 10.9.7 5 4.1 8.2 7.6 7.2.6-.2 1.3-.2 1.9-.1.7.1 1.3.4 1.8.8l3.1 2.4zM2238 1128.8l-.4.3-14.2 4.9c-.8-21.7-2.5-54-4.7-71.8-1.4-11.4-1.5-22.1 1.1-24.4 5.1-4.5 20.9 10.4 20.4 39.2 0 6.7.3 33.7-2.2 51.8z"></path><path fill="#f27324" d="M1832.4 1211.2c10.4-4 29.9-9.9 40.2-5.8 14 5.6 18.6 20 29.1 30.7 3.4 3.5 7 6.7 10.7 9.8 3.9 3.2 6.5 7.8 7.2 12.8 1 6.9 4.4 13.3 9.5 18.1 1.9 1.7 2.7 4.3 2.2 6.8s-2.2 4.6-4.6 5.5l-1.2.2c-11.2 0-21.9-4.5-29.8-12.5-4-4.1-7.3-8.8-9.9-14l-23.4-12.4-45.8 16.7-10.7-44.3 26.5-11.6z"></path><path fill="#300" d="M1710.3 1165.4c-12.2-38.2 95.1-69.2 107.4-31l26.3 82.2c12.2 38.2-95.1 69.2-107.4 31l-26.3-82.2z"></path><path fill="#300" d="m1736.1 1208.1-16.9 66.3c-4.3 16.7-.6 36 9.7 51.2 10.7 15.9 27.8 24.2 43.7 21.3 34-6.3 65.9-19.8 94.1-39.9 16.9-12 21.1-38.2 9.7-60.2l-48-64.1-93.8 19.8 1.5 5.6z"></path><path fill="#590000" d="M1701.5 1183.7c-7.4-23.3 124.3-62.4 131.8-39.1l16 50c7.4 23.2-124.3 62.4-131.8 39.1l-16-50z"></path><path fill="#f27324" d="m1824.1 1307.4 18.7 36.5c10.7 21-13.6 39.3-29.6 25.3-14.7-12.9-26.5-28.8-34.5-46.7l45.4-15.1z"></path><path fill="#f27324" d="m1857.5 1307.4 18.7 36.5c10.7 21-13.6 39.3-29.6 25.3-14.7-12.9-26.5-28.8-34.5-46.7l45.4-15.1z"></path><path fill="#300" d="m1845.4 1279.2 20.6 38.6c8.8 16.5 5.9 36.8-6.4 45.3s-29.4 2-38.2-14.5l-20.6-38.6c-8.8-16.5-5.9-36.8 6.4-45.3 12.3-8.6 29.4-2 38.2 14.5z"></path><path fill="#f27324" d="m1888.8 1281.3 18.7 36.5c10.7 21-13.6 39.3-29.6 25.3-14.7-12.9-26.5-28.8-34.5-46.7l45.4-15.1z"></path><path fill="#300" d="m1806.2 1287.6 20.6 38.6c8.8 16.5 5.9 36.8-6.4 45.3s-29.4 2-38.2-14.5l-20.6-38.6c-8.8-16.5-5.9-36.8 6.4-45.3 12.3-8.6 29.4-2.1 38.2 14.5z"></path><path fill="#300" d="m1772.2 1276.6 20.6 38.6c8.8 16.5 5.9 36.8-6.4 45.3s-29.4 2-38.2-14.5l-20.6-38.6c-8.8-16.5-5.9-36.8 6.4-45.3s29.4-2 38.2 14.5zM1876.7 1253.1l20.6 38.6c8.8 16.5 5.9 36.8-6.4 45.3s-29.4 2-38.2-14.5l-20.6-38.6c-8.8-16.5-5.9-36.8 6.4-45.3s29.4-2 38.2 14.5z"></path><path fill="#590000" d="M1747.6 1317.1c-4.9 0-9.6-2.5-12.9-6.8-3.2-4.2-4.7-9.8-3.9-15.1l2.3-17.7c1.5-11.4 8.4-20.9 18.1-24.7 3-1.2 6.2-1.9 9.4-2.2 16.1-1.3 31.7-5.7 46.1-13.2 5-2.6 11-1.5 15.2 2.8 6.9 7 12.3 15.6 15.8 25.1 3.8 10.3.5 21.8-7.9 27.3-24.7 16.4-53.1 24.8-82.2 24.5z"></path><path fill="#ab1d1d" d="M1717.3 1195.3c-2.7-6.8 65.7-30 68.5-23.2l5.9 14.5c2.7 6.8-65.7 30-68.5 23.2l-5.9-14.5z"></path><path fill="#db310f" d="M2176.8 1007c4.5.5 8.6 9.6 9 20.3s-2.9 19-7.5 18.5c-4.5-.5-8.6-9.6-9-20.3s3-18.9 7.5-18.5z"></path><path fill="#300" d="m2369.1 760 26-21.1c75.7-61.5 159.1 80.6 78.8 121.6l-40.2 20.5c-58.8 30-111.6-82.7-64.6-121z"></path><path fill="#ffb463" d="M1842.6 1846.9c9.7 2.8-18.7 64.2-41.7 143.5-23 79.2-32 146.3-41.7 143.5-9.7-2.8-19-119.5-9-160.6 10-41.1 82.7-129.2 92.4-126.4z"></path><path fill="#fff" d="M1761.7 1970.3c2.8-10.1 9.4-17.4 14.8-16.2 5.4 1.2 7.5 10.4 4.7 20.5s-9.4 17.4-14.8 16.2-7.5-10.4-4.7-20.5zM1758.5 2019.2c1.1-4 3.7-6.9 5.9-6.4s3 4.1 1.9 8.2c-1.1 4-3.7 6.9-5.9 6.4s-3-4.2-1.9-8.2z"></path><path fill="#ffb463" d="M1937.9 1665.2c-18.1 43.4-39.3 71.3-57.6 71.3-23.8 0-36-46.9-33.1-113.9 33.9 3.8 65.9 18.8 90.7 42.6z"></path><path fill="#fff" d="M1884.4 1675.7c2.1-8.2 8.2-14 13.7-13.1s8.2 8.4 6.1 16.5c-2.1 8.2-8.2 14-13.7 13.1-5.5-.9-8.2-8.3-6.1-16.5z"></path><path fill="#300" d="m1979.1 1151.6 29.6 21.9c59.6 44.2 95 113.7 95.8 187.9l6.5-35.1c7.6-40.9-2.4-83.2-27.5-116.4s-62.9-54.4-104.4-58.3z"></path><path fill="#300" d="M2059.6 1277.3c42.4 105.9 29.6 178.2-19 279.5l5.9-34.3c14.1-81.4 31.2-164.7 13.1-245.2z"></path><path fill="#f93" d="m1901.3 1972.1-7.7 27.9c-15.2 55.4-27.8 111.5-37.8 168.1l1.8-33c3.1-56.8 18.4-108.5 43.7-163z"></path><path fill="#ab1d1d" d="M1937.1 1400.1c8.9 0 11.3 21.7 5.3 48.5-6 26.8-18.1 48.5-27 48.5-8.9 0-11.3-21.7-5.3-48.5 6-26.8 18.1-48.5 27-48.5z"></path><path fill="#f93" d="M1960.7 788.6c8.9 16.2 15.5 27.2 40.6 34.8-38.7 0-40.6-20.2-40.6-34.8z"></path><path fill="#db310f" d="M2151.5 1903.9c-26.1 66.1-26.8 132.1-16 198.1.2-66 4.3-132 16-198.1z"></path><path fill="#300" d="m2359.5 777.9 21.4-17.4c62.5-50.8 131.3 66.5 65 100.3l-33.2 16.9c-48.4 24.8-92-68.2-53.2-99.8z"></path><path fill="#7a0505" d="m2505.7 669.6 13.3-7.1c1.6-.9 3.6-1 5.3-.4s3.1 2 3.8 3.7l32.6 65c1.1 2.2 1.2 4.7.4 7-.8 2.3-2.6 4.2-4.8 5.1l-5.1 4.4c-2 1.7-4.7 2.3-7.3 1.5-2.5-.8-4.5-2.7-5.2-5.3l-.4-.5-34.2-63.7c-1.5-2.8-1.4-8.1 1.6-9.7z"></path><path fill="#590000" d="M2236.7 1277.3c51.9 129.6 45.7 225 6.6 363.8l2.8-45.2c6.6-107.4 16-217.7-9.4-318.6zM2409 739.6l-2.3-22.4c-2.5-24.8 10.1-47.7 33.2-60l34.3-13.4c14.7-5.7 32.9.2 41.5 13.4l41.2 82.4c8.4 16.9 5.4 35.6-7.6 48.2-24 23-53.5 41-86.7 53-39.4 7.5-83.4-74.8-53.6-101.2z"></path><ellipse cx="2416.1" cy="645.5" fill="#f26a16" rx="11.4" ry="15.9" transform="rotate(-18.968 2416.17 645.606)"></ellipse><path fill="#fa8220" d="m2454.3 667.2-24.8 12.8c-8.5 4.4-14.5 12.4-16.3 21.8-.8 4 .3 8.2 2.8 11.3 2.6 3.2 6.4 5.1 10.5 5.2 6.3.2 12.6-1.1 18.4-3.6l25.8-11.4c6.5-2.9 11-9 11.7-16.1.7-7.1-2.4-14-8.2-18.1-5.9-4.2-13.6-5.1-19.9-1.9z"></path><path fill="#fa8220" d="m2471.5 698.1-26.9 12.8c-9.2 4.4-15.7 12.4-17.6 21.8-.8 4 .3 8.2 3.1 11.3 2.8 3.2 6.9 5.1 11.3 5.2 6.9.2 13.7-1.1 19.9-3.6l27.9-11.4c7-2.9 11.9-9 12.6-16.1.8-7.1-2.6-14-8.9-18.1-6.2-4.2-14.5-5.1-21.4-1.9z"></path><path fill="#fa8220" d="m2486.4 729.8-24.3 8.7c-8.3 3-14.8 9.6-17.6 18-1.2 3.6-.7 7.5 1.2 10.7 2 3.2 5.2 5.4 9 6 5.8.9 11.7.6 17.3-1.1 8.3-2.5 16.7-4.9 25-7.3 6.3-1.8 11.2-6.9 12.7-13.4 1.5-6.4-.5-13.1-5.4-17.6-4.7-4.4-11.7-6.2-17.9-4z"></path><path fill="#fa8220" d="m2499 762.6-20.9 5.6c-7.2 1.9-13.2 7.5-16.3 15.2-1.3 3.3-1.3 7.1 0 10.4 1.3 3.3 3.8 5.8 6.8 6.8 4.7 1.5 9.6 1.8 14.4.9 7.1-1.4 14.3-2.8 21.4-4.2 5.4-1.1 9.9-5.4 11.8-11.3 1.9-5.9.8-12.6-2.7-17.4-3.6-5-9.1-7.4-14.5-6z"></path><path fill="#f93" d="m2433.4 678-3.9 2c-8.5 4.4-14.5 12.4-16.3 21.8-.8 4 .3 8.2 2.8 11.3 2.6 3.2 6.4 5.1 10.5 5.2 6.3.2 12.6-1.1 18.4-3.6l9.1-4c3.1-7 2.7-15.2-1.6-21.9-4.2-6.7-11.4-10.7-19-10.8z"></path><path fill="#f93" d="m2448.9 708.9-4.3 2c-9.2 4.4-15.7 12.4-17.6 21.8-.8 4 .3 8.2 3.1 11.3 2.8 3.2 6.9 5.1 11.3 5.2 6.9.2 13.7-1.1 19.9-3.6l9.8-4c3.4-7 2.9-15.2-1.7-21.9-4.4-6.7-12.2-10.6-20.5-10.8z"></path><path fill="#f93" d="m2466 737.1-3.9 1.4c-8.3 3-14.8 9.6-17.6 18-1.2 3.6-.7 7.5 1.2 10.7 2 3.2 5.2 5.4 9 6 5.8.9 11.7.6 17.3-1.1l8.8-2.6c3.7-6 4.3-13.6 1.2-20.3-2.9-6.5-9.1-11-16-12.1z"></path><path fill="#f93" d="m2481.4 767.3-3.3.9c-7.2 1.9-13.2 7.5-16.3 15.2-1.3 3.3-1.3 7.1 0 10.4 1.3 3.3 3.8 5.8 6.8 6.8 4.7 1.5 9.6 1.8 14.4.9l7.6-1.5c3.7-5.3 4.9-12.5 3-19.2-1.9-6.7-6.6-11.7-12.2-13.5z"></path><path fill="#db310f" d="m1746.6 2435.7-6.6 9.1c-4.9 6.8-9.7 13.8-14.3 20.9-4.6 7.2-5.8 16-3.2 24.2 2.6 8.1 8.8 14.6 16.7 17.7l-6.7-9.2c-7.4-10.2-7.4-23.9 0-34.1 6.4-8.6 10.9-18 14.1-28.6z"></path><ellipse cx="1754.6" cy="2372.5" fill="#ffb463" rx="17.8" ry="8.1" transform="rotate(-72.158 1754.61 2372.538)"></ellipse><ellipse cx="1754.6" cy="2369.1" fill="#fff" rx="7.2" ry="3.3" transform="rotate(-72.158 1754.606 2369.162)"></ellipse><path fill="#f27324" d="m1821.3 2384 1.5 29.7c1.8 36.8 19.4 71.1 48.3 94l-12.5-15.3a90.249 90.249 0 0 1-18.8-73.7l-18.5-34.7zM1806.4 2421c3.2 34.1 9.8 59.5 32.3 86.7-29.9-24.8-37.9-42.2-32.3-86.7z"></path><ellipse cx="2101.7" cy="2256.4" fill="#e85c10" rx="20.6" ry="26.5" transform="rotate(-26.865 2101.677 2256.39)"></ellipse><path fill="#fff" d="M2122 1396.4c-15.5 98.5-41.4 191.2-69.1 282.7 2.5 5.1 4.9 10.2 7.4 15.2 30.9-100.9 56.9-201 61.7-297.9z"></path><path fill="#f93" d="m2117.3 202.1 24.2 58.6 2.8 39.5 9.2 26.8c3 8.8 4 18.3 2.8 27.5-3.4 26.7-3.7 43.8-11.1 69.7-5 17.5-27 22.6-44.6 18l-76.2-19.9c-14.8-3.9-26.5-15.1-31-29.6-9.8-31.5-23.6-61.6-40.9-89.6l-8.5-48 40.9-38.1c35.9-33.6 89.7-39.7 132.4-14.9z"></path><path fill="#e85c10" d="m2117.3 202.1 24.2 58.6 2.8 39.5 9.2 26.8c3 8.8 4 18.3 2.8 27.5-3.4 26.7-3.7 43.8-11.1 69.7-2.2 7.5-7.4 12.7-14.1 15.9 6.4-4.8 10.2-12.4 10.3-20.4.1-8-3.6-15.7-10-20.6l-7.6-5.9c1.7-10.4 0-27.4-2.4-37.7-1.4-6.2 8.9-8.6 14.2-12.1 5.8-3.9 4.8-6.9.7-12.6l-22.9-36c.1-7.2 2.1-24.3 0-31.2-10.1-33.6-7.6-46.8-37.7-75.7 14.3 1.9 28.4 6.6 41.6 14.2z"></path><path fill="#fa8220" d="m2094.6 440.7-70.3-18.4c-14.8-3.9-26.5-15.1-31.1-29.6-9.8-31.5-23.6-61.6-40.9-89.6l-6.7-38 70.9-41.8 8.5 16.5c5.8 11.2 11.9 22.2 18.3 33.1 3.9 6.6 3.9 14.8 0 21.3-10.2 17.2-7.3 39.1 6.9 53.1 15.2 14.9 24.2 35.1 25.1 56.4.7 14.5 7.7 28.1 19.3 37z"></path><path fill="#590000" d="M2127 225.6c1.8-9 2.5-18 2-26.9-1.1-18.8-12.9-34.3-30-40.5 12.5 7.4 21.2 20.7 21.9 36.3l.3 6.4-3.5-13c-4-17.2-18.5-30-36.1-31.7l-36.1-3.6c-50 .8-99.5 17.6-129.7 61.7-3.4 6.7-3.6 14.5-.4 21.3-16.3 11.4-13 34.5-3.9 55.7 18.7 43.8 45.6 71.5 70 112.4l11.8-62.8c2.7-14.4-.5-36.1 26.4-37.5l-10.4-24.5c-4.5-10.7 2.1-27.5 7.8-37.7 5.7-10.1 14.9-16.4 26.4-18.1 26.6-3.9 52.7 9.8 79.1-8.4l4.4 10.9z"></path><path fill="#300" d="M2127 225.6c1.8-9 2.5-18 2-26.9-1.1-18.8-12.9-34.3-30-40.5 12.5 7.4 21.2 20.7 21.9 36.3l.3 6.4-3.5-13c-4-17.2-18.5-30-36.1-31.7l-36.1-3.6c-10.2.2-20.4 1-30.4 2.6 31.5 1.3 77-6.7 86.3 46.2 1.1 6.2 1.4 13.3.4 22 6.9-1.3 13.8-3.9 20.7-8.6l4.5 10.8zM1915.3 235.5c-16.3 11.4-13 34.5-3.9 55.7 18.7 43.8 43.4 86.8 70 112.4l11.8-62.8c1-5.3 2-12.4 4.2-19.2 3.8-11.8 9.7-4.4 22.2-18.3l-10.4-24.5c-4.5-10.7 2.1-27.5 7.8-37.7 1.4-2.5 3.1-4.8 4.9-6.9-5.4-70.5-110-33.2-106.6 1.3z"></path><path fill="#fa8220" d="M1976.8 299.3c11.7-3.1 27.4 12.4 35.2 34.5 7.8 22.1 4.6 42.6-7.1 45.7-11.7 3.1-27.4-12.4-35.2-34.5-7.7-22.2-4.5-42.6 7.1-45.7z"></path><path fill="#db310f" d="m2000.3 406.3 6.7 11.5c2.2 3.7 5.5 6.7 9.5 8.3 29.5 12.5 61.5 14 93.2 17.6-37.9-9-65.5-15-91.8-25.3-6.3-2.4-12-6-17.6-12.1z"></path><path fill="#300" d="m2102.1 264.2-16 1.2c-8.1.6-16.3 2.5-24.5 5.7-6.5 2.5-12.6 7.5-17 14l11.6-3.2c14.7-4.1 29.4-6 43.8-5.7l2.1-12z"></path><path fill="#e85c10" d="m2112.3 232.3-14.3-.4c-10.3-.3-20.6.4-30.8 2.3h19.6c8.9 0 17.7.7 26.4 2.2l-.9-4.1zM2113 240.4l-18.1-.6c-13.1-.4-26.2.6-39.1 2.9h24.9c11.2 0 22.5.9 33.6 2.8l-1.3-5.1zM2116.6 246.9l-14.3-.4c-10.3-.3-20.6.4-30.8 2.3h19.6c8.9 0 17.7.7 26.4 2.2l-.9-4.1z"></path><path fill="#f93" d="m2138.1 377-3.2 4.2c-2.4 3.1-6.2 4.7-10.1 4.5-2-.1-4-.9-5.5-2.3l2.3-6.3 12-2 4.5 1.9z"></path><path fill="#300" d="m2129.6 258.2-3.4 16.3c4.3-4.6 12.8-6.3 17.4-5l2.6-11c-2.9-2.1-12.9-2.2-16.6-.3z"></path><path fill="#db310f" d="m2128.1 371.8-6.9.1c-16.9.3-20 11.7-32.4 12.5l4.4.7c5.6.9 11.5-.2 16.2-3.2 5.6-3.5 12.7-4.9 19.4-3.9 2.2-2.5 4.9-3.6 7.6-1.3 2 1.6 4.3 1.3 6.3-1.1l1.6-1.9c-1.9 1-3.9.6-5.7-1-2.3-2.2-4.9-2.9-7.5-2l-3 1.1z"></path><path fill="#e85c10" d="M2095.1 301.2c-15.3-20.1-44-19.8-42.1 6.7l42.1-6.7zM2127.6 385.5l-3.3.1c-7 .2-13.6 3.5-18 9l2.3-1.2c6.2-3.2 13.4-4 20.1-2.3l-1.1-5.6z"></path><path fill="#300" d="M2097.7 303.2c-21.6-18-41.7-8.6-46.2 8.4 20.3 5.4 29.3 9.3 46.2-8.4z"></path><path fill="#fff" d="M2094.8 305.9c-16.1-13.1-31.9-3.1-38.3 7.1 16.1 4.3 29.3 6.2 38.3-7.1z"></path><circle cx="2070.9" cy="305.3" r="8.8" fill="#300" transform="rotate(-4.319 2070.95 305.272) scale(1.00004)"></circle><circle cx="2077.9" cy="307.9" r="3.6" fill="#fff" transform="rotate(-4.319 2077.956 307.877) scale(1.00004)"></circle><path fill="#db310f" d="M2117.8 298.4c7.9-25.1 16.4-31.6 25.7-13.6-8.5 4.5-17.1 9.1-25.7 13.6z"></path><path fill="#300" d="M2118.9 296.6c5.2-14.7 12.7-24.1 25.7-12.3-.2 16.4-12.2 24.5-25.7 12.3z"></path><path fill="#fff" d="M2117.8 298.4c5.7-9.7 22.8-20.5 25.8-10.2 1.8 17.5-18.9 22.4-25.8 10.2z"></path><path fill="#300" d="M2137.6 283.4c1.7 2.6 2.1 6.2.6 9.6-2.1 4.8-7 7-11 5.1-2.7-1.3-4.4-4.3-4.5-7.5 4.1-5.3 9.1-9.1 14.9-7.2z"></path><path fill="#fff" d="M2135.8 291.7c1.7.8 2.3 3.1 1.5 5.1-.9 2-2.9 2.9-4.6 2.1-1.7-.8-2.3-3.1-1.5-5.1s2.9-2.9 4.6-2.1z"></path><path fill="#e85c10" d="m2117.2 339.8-6.4 1.8c-1.4.4-2.4 1.5-2.7 2.9-.3 1.4.2 2.8 1.3 3.7 1.1.9 2.6 1.1 3.9.5 1.3-.6 2.4-1.6 3.1-2.9.6-1.3 1.5-2.4 2.6-3.3.7-.5.8-1.5.3-2.2-.4-.7-1.2-.8-2.1-.5z"></path><ellipse cx="1984.6" cy="331.4" fill="#e85c10" rx="12.4" ry="19.2" transform="rotate(-15.528 1984.39 331.458)"></ellipse><ellipse cx="1996.8" cy="338.4" fill="#fa8220" rx="12.4" ry="19.2" transform="rotate(-15.528 1996.507 338.408)"></ellipse><path fill="#fff" d="m1734.1 704.1-10.2 14.9c-7.8 11.4-10.9 25.4-8.8 39 1.5 9.5 4.5 18.6 9 27.1l-2.8-30-.2-5.9c-.5-16 5.4-30.8 13-45.1z"></path></g></g></svg>