<svg xmlns="http://www.w3.org/2000/svg" enable-background="new 0 0 1920 1080" viewBox="0 0 1920 1080" id="american-football"><path fill="#2a94f4" d="M1164.4 857.3H324.5l259.1-737h580.8c203.5 0 368.5 165 368.5 368.5S1368 857.3 1164.4 857.3z" opacity=".1"></path><ellipse cx="1075.1" cy="1069.4" fill="#2a94f4" opacity=".1" rx="54.1" ry="10.6"></ellipse><ellipse cx="677.5" cy="1063.7" fill="#2a94f4" opacity=".1" rx="83.5" ry="16.3"></ellipse><path fill="#ffbe55" d="m952.9 195.5 12.8-3.3 80.4-4.1s15.3 50.2 0 70.5c-15.3 20.3-42.6 10.5-46.4 5.8s-54.6-55.9-46.8-68.9z"></path><path fill="#231f20" d="m952.9 195.5 12.8-3.3 80.4-4.1s15.3 50.2 0 70.5c-15.3 20.3-42.6 10.5-46.4 5.8s-54.6-55.9-46.8-68.9z" opacity=".2"></path><path fill="#ffe3ca" d="M1059.6 105.2s9.5 34.6 1.5 54.4c-8 19.8-24.3 13.9-24.3 13.9l-.9 23.9s-7.1 35.8-14 38.7c0 0-48.2-30.1-56.3-44 0 0 8.9-24.8 7.4-41.2 0 .1 30.9-88.4 86.6-45.7z"></path><path fill="#ffbe55" d="M961.5 151.6c8 1.3 21.5 4.5 31.7 11.6 4.4 3.1 10.1 3.7 15.1 1.7l16.3-6.7c7.5-3.1 10.1-12.5 5.2-18.9-4-5.2-7.7-10.8-7.8-13.9-.3-7-2-15.4 5.7-19h40.4s-5.3-50.8-50.5-57.1c-45.1-6.3-69.2 13-74.8 31.7-4.4 14.4 4.9 47.8 9.4 62.6 1.3 4.1 4.9 7.3 9.3 8z"></path><path fill="#0b4870" d="M874.7 783.8s-67.9 7.7-125.3 84.2c-21 28.1-70.2 77.2-70.2 77.2l-12 25.1 8 9S867.7 865 888.7 852s22.1-27.1 22.1-27.1-1.5-51.5-36.1-41.1z"></path><path fill="#0b4870" d="M938.8 586.4s-58.1 168.4-64.2 197.5l28.3 56.3s96.8-72.5 136-138.1C1076 640 1070 601.6 1070 601.6s-110.1-38.3-131.2-15.2z"></path><path fill="#0e538c" d="M1197.1 658.2s-44.7 30.6-78.9 103.6c-34.5 73.7-48.1 85.2-48.1 85.2l7 41.1L1276 671.6s-49.2-45.8-78.9-13.4z"></path><path fill="#0e538c" d="M929.9 537.2s-9.5 59.6 25.3 89c34.7 29.4 117.6 6.7 151 14.7s90.9 17.4 90.9 17.4 69.5 29.4 78.9 13.4c9.4-16 32.1-53.5-34.7-88.2-66.8-34.7-143.1-69.7-143.1-69.7s-116.2 22-168.3 23.4z"></path><path fill="#ffbe55" d="M952.9 195.5s-54.1-17-97.2 28.1l13 82.2s31.1 42.1 46.1 84.2c11.8 33 8.2 101.3 14.3 142.2 2.3 15.4 15.2 27.1 30.8 27.7 30 1.1 82.5.1 115.6-18 13.3-7.3 22-20.8 23.3-35.9 2.6-29.3 7.5-87.9 7.5-113 0-34.1 23.1-47.1 12-107.3 0 0 33.1-31.1 39.1-59.1s-65.2-55.1-107.3-40.1l-4 1.7s0 44.4-19.4 64.2c0-.1-61.1-27.5-73.8-56.9zM1072.7 845.9s-.2 28.5 11.6 36.1c0 0 13.1 7 3.1 15s-24.1 18.7-27.4 35.4c-3.3 16.7-7.4 33.4-22.7 34.1h-12.7v-125c-.1.1 40.7-5.3 48.1 4.4zM677.9 940.9s-.2 27.5 11.2 34.8c0 0 12.7 6.7 3 14.5-9.7 7.7-20.6 10.1-23.8 26.2-3.2 16.1 36.1 24.7 6.1 40.8l-13-3c-44.8-19.3-29.9-117.5-29.9-117.5s39.3-5.2 46.4 4.2z"></path><path fill="#ffbe55" d="m874.7 207.7-98.2 21.8-7 66.2s85.2 21 115.3 15c30-6 26-97.7-10.1-103z"></path><path fill="#ffe3ca" d="M1196.4 266.6s54.1 54.1 59.1 89.2-191.5 61.1-194.5 61.1-36.1 12-47.1 8-21-48.1 6-49.1c27.1-1 22.1 9 39.1 10s118.3-38.1 128.3-50.1l-29.7-19c.1 0-19.3-65.1 38.8-50.1zM776.5 229.5h-42.1s35.1-99.2 42.1-114.8c7-15.5 21.6-4.5 32.6-24.1s16.5-23.1 16.5-23.1-6.5-4.5-13.5 3S767 85 756 82c0 0 1 17-7.5 27.6-8.5 10.5-66.3 87.2-70.7 125.3-5.5 48.6 91.7 60.6 91.7 60.6l7-66z"></path><path fill="#0b4870" d="m996.2 123.2 9.7 15.1c2.7 4.2-.3 9.7-5.3 9.7h-2.7c-2.2 0-4.2-1.1-5.3-3l-9.5-15.1c-2.6-4.2.4-9.6 5.3-9.6h2.5c2.1 0 4.1 1.1 5.3 2.9zM1072.5 174.7c-8.2 0-46-10.9-49-15.9-2.7-4.7-11.2-36.1-11.5-44.5-.4-9 10.9-11.6 11.4-11.7H1077.5v2.6h-41.1c0 9.1.2 21.7.2 28.6 0 3.3 2.7 6 6 6.1l30.7-.1c3.1 0 5.6 2.4 5.8 5.5.5 10.5.4 23.9-3.4 28-.8.9-1.8 1.4-2.8 1.4h-.4zm-48.6-69.5c-1.1.3-9.5 2.6-9.2 9 .3 7.9 8.6 38.9 11.2 43.3 2.1 3.5 39 15 46.9 14.6.2 0 .6-.1 1-.6 2.4-2.6 3.4-12.3 2.7-26-.1-1.7-1.5-3-3.2-3l-30.7.1c-4.8-.2-8.5-4-8.6-8.7-.1-6.9-.2-19.5-.2-28.6h-9.9z"></path><path fill="#944932" d="M708.6 43.4S743 .3 790.8 0c16.9-.1 31.8 5.3 44 12.4 22.1 12.8 35.2 31 35.2 31s-33.8 46.4-80.7 45.1c-62-1.6-80.7-45.1-80.7-45.1z"></path><path fill="#fff" d="M834.8 12.4v62.9s17.5-9.1 16.6-12.3V24.2l-5.7-5.1c-.6-.5-1.2-1-1.8-1.3l-9.1-5.4zM742.8 14.2v62.9s-17.5-9.1-16.6-12.3V26l5.7-5.1c.6-.5 1.2-1 1.8-1.3l9.1-5.4zM751.8 31.7l-.6-5.3c1.8-.2 45.5-5.1 74.7-.7l-.8 5.2c-28.5-4.2-72.8.8-73.3.8z"></path><path fill="#fff" d="M777.7 16.6h3.5v18.9h-3.5zM787.7 16.6h3.5v18.9h-3.5zM797.6 16.6h3.5v18.9h-3.5zM807.5 16.6h3.5v18.9h-3.5zM767.8 16.6h3.5v18.9h-3.5zM817.4 18.1h3.5V34h-3.5zM757.9 18.1h3.5V34h-3.5z"></path><path fill="#ffbe55" d="M1122.8 190.7s39.6 9.8 73.7 75.9l-36.8 52.3s-32-8.2-53.3-32.3c-21.2-24-44.3-89.6 16.4-95.9z"></path><path fill="#ffbe55" d="m1196.4 266.6-36.7 52.4 7.4 3.8 36.8-48.4zM770.5 295.9l5.7-66.4h-10.1l-7.2 64.5z"></path><path fill="#231f20" d="m1196.4 266.6-36.7 52.4 7.4 3.8 36.8-48.4zM770.5 295.9l5.7-66.4h-10.1l-7.2 64.5z" opacity=".08"></path></svg>