<?xml version="1.0" encoding="iso-8859-1"?>
<!-- Uploaded to: SVG Repo, www.svgrepo.com, Generator: SVG Repo Mixer Tools -->
<svg height="800px" width="800px" version="1.1" id="Layer_1" xmlns="http://www.w3.org/2000/svg" xmlns:xlink="http://www.w3.org/1999/xlink" 
	 viewBox="0 0 512 512" xml:space="preserve">
<polygon style="fill:#FFFFFF;" points="208.446,81.608 303.556,81.608 256.001,140.423 "/>
<polygon style="fill:#FF633E;" points="503.647,214.027 436.965,281.087 405.243,249.188 387.969,231.813 372.331,216.097 
	372.331,430.391 139.671,430.391 139.671,216.097 126.081,229.754 103.764,252.204 75.037,281.087 8.343,214.027 36.882,185.321 
	59.209,162.882 140.016,81.608 208.446,81.608 255.995,140.421 303.556,81.608 371.986,81.608 454.84,164.941 472.115,182.316 "/>
<polygon style="fill:#FF3100;" points="503.647,214.027 436.965,281.087 405.243,249.188 387.969,231.813 372.331,216.097 
	372.331,430.391 255.995,430.391 255.995,140.421 303.556,81.608 371.986,81.608 454.84,164.941 472.115,182.316 "/>
<g>
	<polygon style="fill:#FFFFFF;" points="126.081,229.754 103.764,252.204 36.882,185.321 59.209,162.882 	"/>
	<polygon style="fill:#FFFFFF;" points="472.115,182.316 405.243,249.188 387.969,231.813 454.84,164.941 	"/>
</g>
<g>
	<path style="fill:#423F40;" d="M509.572,208.138l-29.251-29.417c0-0.001-0.001-0.001-0.001-0.002l-0.001-0.001L377.906,75.723
		c-1.567-1.576-3.698-2.462-5.919-2.462h-68.435h-95.101h-68.434c-2.222,0-4.352,0.886-5.919,2.462L2.428,208.138
		c-3.238,3.256-3.238,8.516,0,11.772l66.689,67.068c1.567,1.576,3.698,2.462,5.919,2.462c2.222,0,4.352-0.886,5.919-2.462
		l29.185-29.35l0.001-0.001l0.001-0.001l21.176-21.296v194.062c0,4.61,3.736,8.348,8.348,8.348h123.638
		c4.611,0,8.348-3.738,8.348-8.348s-3.736-8.348-8.348-8.348H148.016v-205.95c0-3.381-2.039-6.428-5.165-7.717
		c-3.125-1.291-6.721-0.567-9.104,1.831l-9.168,9.22l-54.916-55.229l73.824-74.242h60.977l45.045,55.715
		c1.585,1.96,3.97,3.1,6.491,3.1s4.906-1.139,6.491-3.1l45.045-55.715h60.978l73.823,74.242l-54.916,55.228l-9.167-9.219
		c-2.385-2.398-5.979-3.122-9.104-1.831c-3.125,1.289-5.165,4.336-5.165,7.717v205.95h-48.926c-4.611,0-8.348,3.738-8.348,8.348
		s3.736,8.348,8.348,8.348h57.274c4.611,0,8.348-3.738,8.348-8.348V236.328l0.853,0.858l0,0l0,0l49.508,49.79
		c1.567,1.576,3.698,2.462,5.919,2.462c2.222,0,4.352-0.886,5.919-2.462l66.689-67.068
		C512.81,216.652,512.81,211.393,509.572,208.138z M75.037,269.251L20.12,214.023l17.447-17.546l54.916,55.228L75.037,269.251z
		 M112.808,231.267l-8.552,8.599L49.34,184.638l8.552-8.6L112.808,231.267z M256,127.145l-30.067-37.189h60.132L256,127.145z
		 M454.109,176.038l8.552,8.6l-54.916,55.228l-8.552-8.6L454.109,176.038z M436.963,269.251l-17.446-17.546l54.916-55.228
		l17.446,17.545L436.963,269.251z"/>
	<path style="fill:#423F40;" d="M250.115,222.565c0-21.297-18.601-32.899-37.043-32.899c-18.124,0-35.93,11.126-35.93,30.515
		c0,10.013,4.769,12.873,11.129,12.873c8.107,0,13.037-4.451,13.037-9.059c0-8.742,5.564-11.92,11.924-11.92
		c8.902,0,12.082,6.199,12.082,11.284c0,20.184-50.08,34.489-50.08,59.441v15.417c0,4.609,6.36,7.629,10.811,7.629h56.598
		c3.974,0,7.472-5.245,7.472-10.967c0-5.722-3.498-10.648-7.472-10.648h-41.655v-1.43
		C200.989,268.338,250.115,257.054,250.115,222.565z"/>
	<path style="fill:#423F40;" d="M258.068,272.152v1.907c0,23.681,17.171,32.741,39.111,32.741c21.939,0,38.951-9.059,38.951-32.741
		v-1.907c0-16.371-7.79-25.906-19.555-29.88c9.381-3.179,15.74-11.126,15.74-24.317c0-19.867-14.626-28.29-35.134-28.29
		c-20.51,0-35.135,8.424-35.135,28.29c0,13.192,6.359,21.138,15.74,24.317C266.016,246.246,258.068,255.781,258.068,272.152z
		 M297.178,209.532c7.154,0,11.287,3.496,11.287,11.602c0,8.264-4.134,11.443-11.287,11.443c-7.155,0-11.288-3.178-11.288-11.443
		C285.891,213.028,290.024,209.532,297.178,209.532z M282.87,267.543c0-10.331,5.405-15.098,14.308-15.098
		c8.902,0,14.149,4.768,14.149,15.098v3.496c0,10.648-5.087,15.893-14.149,15.893c-8.744,0-14.308-4.927-14.308-15.893V267.543z"/>
</g>
</svg>