<svg xmlns="http://www.w3.org/2000/svg" xmlns:xlink="http://www.w3.org/1999/xlink" viewBox="0 0 3000 3000" id="girl-doing-meditation"><defs><linearGradient id="f" x1="1073.924" x2="1893.383" y1="1850.912" y2="1850.912" gradientUnits="userSpaceOnUse"><stop offset="0" stop-color="#4a98f7"></stop><stop offset="1" stop-color="#0469bc"></stop></linearGradient><linearGradient id="c" x1="1689.637" x2="2051.002" y1="2184.515" y2="1504.885" gradientUnits="userSpaceOnUse"><stop offset="0" stop-color="#0469bc"></stop><stop offset="1" stop-color="#4a98f7"></stop></linearGradient><linearGradient id="a" x1="3002.12" x2="3160.521" y1="2039.842" y2="2039.842" gradientTransform="matrix(-1 0 0 1 4611.771 0)" gradientUnits="userSpaceOnUse"><stop offset="0" stop-color="#f9f7fc"></stop><stop offset="1" stop-color="#f0ddfc"></stop></linearGradient><linearGradient id="i" x1="863.605" x2="1289.71" y1="2080.167" y2="2080.167" xlink:href="#a"></linearGradient><linearGradient id="b" x1="863.605" x2="1049.789" y1="2074.561" y2="2074.561" gradientUnits="userSpaceOnUse"><stop offset="0" stop-color="#92f37f"></stop><stop offset="1" stop-color="#4ab272"></stop></linearGradient><linearGradient id="j" x1="3363.867" x2="3675.825" y1="2160.147" y2="2160.147" gradientTransform="matrix(-1 0 0 1 4611.771 0)" xlink:href="#b"></linearGradient><linearGradient id="k" x1="3322.675" x2="3668.184" y1="2022.118" y2="2022.118" gradientTransform="matrix(-1 0 0 1 4611.771 0)" xlink:href="#b"></linearGradient><linearGradient id="l" x1="967.138" x2="2028.235" y1="625.858" y2="625.858" gradientUnits="userSpaceOnUse"><stop offset="0" stop-color="#3c3b41"></stop><stop offset="1" stop-color="#1a1a1a"></stop></linearGradient><linearGradient id="m" x1="1139.796" x2="1135.33" y1="2162.125" y2="2034.243" gradientTransform="matrix(-1 0 0 1 2178.823 0)" xlink:href="#b"></linearGradient><linearGradient id="n" x1="1092.973" x2="1088.507" y1="2161.478" y2="2033.596" gradientTransform="matrix(-1 0 0 1 2178.823 0)" xlink:href="#b"></linearGradient><linearGradient id="o" x1="1046.107" x2="1041.825" y1="2162.13" y2="2039.505" gradientTransform="matrix(-1 0 0 1 2178.823 0)" xlink:href="#b"></linearGradient><linearGradient id="w" x1="1681.059" x2="2109.728" y1="2076.888" y2="2076.888" xlink:href="#a"></linearGradient><linearGradient id="x" x1="1923.544" x2="2109.728" y1="2074.564" y2="2074.564" xlink:href="#b"></linearGradient><linearGradient id="y" x1="1725.433" x2="2037.391" y1="2160.147" y2="2160.147" xlink:href="#b"></linearGradient><linearGradient id="z" x1="1684.241" x2="2029.75" y1="2022.118" y2="2022.118" xlink:href="#b"></linearGradient><linearGradient id="A" x1="1382.085" x2="1373.469" y1="2148.459" y2="1984.06" xlink:href="#c"></linearGradient><linearGradient id="B" x1="1118.332" x2="1086.433" y1="2146.623" y2="1537.937" xlink:href="#c"></linearGradient><linearGradient id="C" x1="1360.555" x2="1518.955" y1="2045.062" y2="2045.062" xlink:href="#a"></linearGradient><linearGradient id="H" x1="1940.999" x2="1905.367" y1="1771.173" y2="750.825" gradientTransform="matrix(-1 0 0 1 3415.924 0)" gradientUnits="userSpaceOnUse"><stop offset="0" stop-color="#fa321b"></stop><stop offset=".006" stop-color="#fa351d"></stop><stop offset=".053" stop-color="#fc4b2b"></stop><stop offset=".109" stop-color="#fd5c36"></stop><stop offset=".178" stop-color="#fe673e"></stop><stop offset=".276" stop-color="#ff6e43"></stop><stop offset=".547" stop-color="#ff7044"></stop><stop offset=".547" stop-color="#ff6d42"></stop><stop offset=".548" stop-color="#ff6b41"></stop><stop offset=".704" stop-color="#ff683f"></stop><stop offset=".799" stop-color="#fe603a"></stop><stop offset=".877" stop-color="#fd5230"></stop><stop offset=".947" stop-color="#fb3d22"></stop><stop offset="1" stop-color="#f92814"></stop></linearGradient><linearGradient id="K" x1="1924.107" x2="1919.641" y1="2162.125" y2="2034.243" xlink:href="#b"></linearGradient><linearGradient id="L" x1="1877.284" x2="1872.818" y1="2161.478" y2="2033.596" xlink:href="#b"></linearGradient><linearGradient id="M" x1="1830.418" x2="1826.136" y1="2162.13" y2="2039.505" xlink:href="#b"></linearGradient><radialGradient id="d" cx="1385.287" cy="2069.71" r="127.095" gradientUnits="userSpaceOnUse"><stop offset="0" stop-color="#ffdaaa"></stop><stop offset=".421" stop-color="#ffd8a8"></stop><stop offset=".652" stop-color="#fed1a0"></stop><stop offset=".836" stop-color="#fdc592"></stop><stop offset=".995" stop-color="#fcb47f"></stop><stop offset="1" stop-color="#fcb37e"></stop></radialGradient><radialGradient id="p" cx="1133.628" cy="2033.59" r="11.472" gradientTransform="matrix(-1 0 0 1 2178.823 0)" xlink:href="#a"></radialGradient><radialGradient id="q" cx="1135.896" cy="2158.778" r="11.472" gradientTransform="matrix(-1 0 0 1 2178.823 0)" xlink:href="#a"></radialGradient><radialGradient id="r" cx="1043.358" cy="2050.93" r="11.472" gradientTransform="matrix(-1 0 0 1 2178.823 0)" xlink:href="#a"></radialGradient><radialGradient id="s" cx="1040.07" cy="2158.778" r="11.472" gradientTransform="matrix(-1 0 0 1 2178.823 0)" xlink:href="#a"></radialGradient><radialGradient id="t" cx="1086.933" cy="2043.146" r="11.472" gradientTransform="matrix(-1 0 0 1 2178.823 0)" xlink:href="#a"></radialGradient><radialGradient id="u" cx="1088.434" cy="2153.144" r="11.472" gradientTransform="matrix(-1 0 0 1 2178.823 0)" xlink:href="#a"></radialGradient><radialGradient id="v" cx="1588.046" cy="2069.714" r="127.095" xlink:href="#d"></radialGradient><radialGradient id="D" cx="925.712" cy="1317.036" r="282.12" xlink:href="#d"></radialGradient><radialGradient id="E" cx="2074.596" cy="1318.148" r="281.418" xlink:href="#d"></radialGradient><radialGradient id="I" cx="1508.913" cy="710.08" r="140.908" gradientTransform="matrix(.91574 0 0 1 125.46 0)" xlink:href="#d"></radialGradient><radialGradient id="J" cx="1518.172" cy="473.185" r="209.186" gradientTransform="matrix(1 0 0 1.06453 0 -35.876)" xlink:href="#d"></radialGradient><radialGradient id="N" cx="1917.939" cy="2033.59" r="11.472" xlink:href="#a"></radialGradient><radialGradient id="O" cx="1920.207" cy="2158.778" r="11.472" xlink:href="#a"></radialGradient><radialGradient id="P" cx="1827.669" cy="2050.93" r="11.472" xlink:href="#a"></radialGradient><radialGradient id="Q" cx="1824.381" cy="2158.778" r="11.472" xlink:href="#a"></radialGradient><radialGradient id="R" cx="1871.244" cy="2043.146" r="11.472" xlink:href="#a"></radialGradient><radialGradient id="S" cx="1872.745" cy="2153.144" r="11.472" xlink:href="#a"></radialGradient><filter id="e" color-interpolation-filters="sRGB" filterUnits="userSpaceOnUse"><feColorMatrix values="-1 0 0 0 1 0 -1 0 0 1 0 0 -1 0 1 0 0 0 1 0"></feColorMatrix></filter></defs><g data-name="Layer 1" style="isolation:isolate"><path fill="#c6c6c6" d="M259.822 2192.729h177.744q90.998 0 132.773 42.295 41.76 42.311 41.76 130.096v29.981q0 57.82-18.739 94.227-18.746 36.414-57.285 52.467v2.14q87.785 29.99 87.802 156.33v64.245q0 86.732-45.507 132.238-45.523 45.525-133.308 45.507h-185.24Zm163.824 305.165q35.336 0 53.003-18.204 17.667-18.194 17.667-61.033V2376.9q0-40.68-14.455-58.892-14.455-18.194-45.507-18.202h-56.75v198.089Zm21.416 337.287q31.043 0 46.042-16.598 14.982-16.588 14.99-57.285v-65.316q0-51.395-17.667-71.205-17.668-19.8-58.356-19.809h-52.467v230.212ZM692.396 2192.729h321.225v107.076H810.18v198.089h161.683v107.074H810.18v230.212h203.442v107.075H692.396ZM1081.07 2192.729h117.782v642.452h193.806v107.074H1081.07ZM1449.402 2192.729h117.782v749.526h-117.782ZM1654.971 2192.729h321.226v107.076h-203.444v198.089h161.684v107.074h-161.684v230.212h203.444v107.075h-321.226ZM2012.593 2192.729h118.854l77.093 581.419h2.142l77.093-581.419h108.147l-113.5 749.526h-156.33ZM2452.66 2192.729h321.226v107.076h-203.444v198.089h161.684v107.074h-161.684v230.212h203.444v107.075H2452.66Z"></path><path fill="#e1e1e3" d="M241.114 2192.729H418.86q90.997 0 132.773 42.295 41.76 42.311 41.759 130.096v29.981q0 57.82-18.738 94.227-18.746 36.414-57.285 52.467v2.14q87.784 29.99 87.801 156.33v64.245q0 86.732-45.507 132.238-45.523 45.525-133.308 45.507h-185.24Zm163.825 305.165q35.335 0 53.002-18.204 17.667-18.194 17.667-61.033V2376.9q0-40.68-14.455-58.892-14.454-18.194-45.507-18.202h-56.75v198.089Zm21.415 337.287q31.043 0 46.042-16.598 14.983-16.588 14.99-57.285v-65.316q0-51.395-17.667-71.205-17.667-19.8-58.356-19.809h-52.466v230.212ZM673.688 2192.729h321.226v107.076H791.47v198.089h161.683v107.074H791.471v230.212h203.443v107.075H673.688ZM1062.362 2192.729h117.782v642.452h193.807v107.074h-311.59ZM1430.694 2192.729h117.782v749.526h-117.782ZM1636.263 2192.729h321.226v107.076h-203.444v198.089h161.684v107.074h-161.684v230.212h203.444v107.075h-321.226ZM1993.885 2192.729h118.854l77.094 581.419h2.14l77.095-581.419h108.146l-113.5 749.526h-156.33ZM2433.952 2192.729h321.226v107.076h-203.444v198.089h161.684v107.074h-161.684v230.212h203.444v107.075h-321.226Z"></path><path fill="url(#f)" d="M1893.383 1795.687c-22.037 38.718-69.9 110.33-157.629 162.848-164.507 98.502-336.938 50.681-380.448 36.703-1.367-.438-2.6-.845-3.706-1.21q-8.314-2.756-16.337-5.742a469.339 469.339 0 0 1-66.976-31.087q-6.123-3.445-12.047-7.025c-70.901-42.748-119.056-97.114-148.598-138.223a494.916 494.916 0 0 1-14.792-21.723c-9.093-14.135-15.314-25.377-18.926-32.121q15.768-3.46 31.525-6.91 47.978-10.523 95.945-21.046c.344-.083.689-.156 1.033-.23 277.959-52.382 490.423-59.836 546.898-29.228 24 13.007 50.107 29.229 50.107 29.229a1040.923 1040.923 0 0 1 93.95 65.765Z"></path><path fill="url(#c)" d="M2220.926 1792.556q-75.426 69.35-150.864 138.702l-172.744 158.808c-2.088-44.887-90.579 56.37-92.667 11.483-99.514 59.158-112.625-27.83-212.15 31.317q-49.575-93.95-99.17-187.901c1.575-.783 3.141-1.556 4.697-2.339a1444.363 1444.363 0 0 0 168.589-98.92c172.19-117.542 287.072-220.262 287.072-220.262 27.256-24.354 46.286-42.507 65.285-54.825 14.604-9.468 29.187-15.502 47.456-18.248 48.228-7.244 114.442 9.479 153.254 57.383a137.577 137.577 0 0 1 20.032 33.436c31.61 75.057-14.99 145.812-18.79 151.366Z"></path><g opacity=".52"><path fill="#0a56a4" d="m2070.062 1931.258-172.744 158.808c-2.088-44.887-90.579 56.37-92.667 11.483-99.514 59.158-112.625-27.83-212.15 31.317q-49.575-93.95-99.17-187.901a27.346 27.346 0 0 1 4.697-2.339c29.761-11.524 62.686 37.841 145.55 51.35 89.702 14.624 179.895-22.225 220.377-38.77 42.821-17.497 60.39-31.35 103.054-36.725 20.283-2.558 64.554-8.142 103.053 12.777Z"></path><g mask="url(#g)"><path fill="#0d2756" d="m2070.062 1931.258-172.744 158.808c-2.088-44.887-90.579 56.37-92.667 11.483-99.514 59.158-112.625-27.83-212.15 31.317q-49.575-93.95-99.17-187.901a27.346 27.346 0 0 1 4.697-2.339c29.761-11.524 62.686 37.841 145.55 51.35 89.702 14.624 179.895-22.225 220.377-38.77 42.821-17.497 60.39-31.35 103.054-36.725 20.283-2.558 64.554-8.142 103.053 12.777Z" style="mix-blend-mode:screen"></path></g></g><g opacity=".3"><path fill="#0a56a4" d="m1565.693 2006.67-210.387-11.432q-11.963-.657-23.916-1.304a18.985 18.985 0 0 0 3.873-5.648c7.182-17.558-41.724-21.431-66.976-31.087-5.314-2.025-9.573-4.301-12.047-7.025-3.486-3.821-3.434-8.498 2.213-14.553-104.588-27.965-64.92-91.121-150.811-123.67a206.042 206.042 0 0 0-19.761-6.305q2.49-7.704 4.969-15.418 6.31-19.51 12.6-39.032 47.977-10.522 95.944-21.045c14.802 14.302 33.55 30.357 57.3 48.218 19.145 14.385 36.421 25.617 70.995 48.061 86.466 56.14 105.59 62.352 144.517 92.05a560.996 560.996 0 0 1 91.487 88.19Z"></path><g mask="url(#h)"><path fill="#0d2756" d="m1565.693 2006.67-210.387-11.432q-11.963-.657-23.916-1.304a18.985 18.985 0 0 0 3.873-5.648c7.182-17.558-41.724-21.431-66.976-31.087-5.314-2.025-9.573-4.301-12.047-7.025-3.486-3.821-3.434-8.498 2.213-14.553-104.588-27.965-64.92-91.121-150.811-123.67a206.042 206.042 0 0 0-19.761-6.305q2.49-7.704 4.969-15.418 6.31-19.51 12.6-39.032 47.977-10.522 95.944-21.045c14.802 14.302 33.55 30.357 57.3 48.218 19.145 14.385 36.421 25.617 70.995 48.061 86.466 56.14 105.59 62.352 144.517 92.05a560.996 560.996 0 0 1 91.487 88.19Z" style="mix-blend-mode:screen"></path></g></g><path fill="url(#a)" d="M1573.586 2154.96a22.935 22.935 0 0 1-29.201-3.214 343.422 343.422 0 0 1-92.948-194.413 22.95 22.95 0 0 1 16.44-24.958l36.742-10.564a22.99 22.99 0 0 1 29.241 20.29 272.995 272.995 0 0 0 69.813 161.18 22.992 22.992 0 0 1-4.303 34.629l-25.784 17.05Z"></path><path fill="url(#d)" d="M1525.69 2103.637a2524.861 2524.861 0 0 1-130.486 40.712q-7.172 2.02-14.28 3.987c-.126.042-.251.073-.376.105q-70.464 19.463-135.665 33.488 6.686-36.218 13.362-72.446l13.779-74.743q3.43-.345 6.952-.752a597.445 597.445 0 0 0 191.336-55.003 608.885 608.885 0 0 0 40.764-21.494q7.313 73.078 14.615 146.146Z"></path><path fill="url(#i)" d="M1289.71 2103.319a145.236 145.236 0 0 1-4.115 18.064c-4.167 14.043-12.981 41.239-37.695 58.594a53.186 53.186 0 0 1-3.017 1.952c-32.392 19.615-69.096 6.576-112.741 0-46.767-7.046-89.326-1.91-135.675 4.551a121.77 121.77 0 0 1-12.392 1.086c-2.4.094-4.802.115-7.182.052q-.94-.015-1.879-.062a69.682 69.682 0 0 1-3.33-.157c-.668-.042-1.325-.094-1.983-.146-.303-.02-.605-.042-.908-.073-.418-.042-.835-.073-1.263-.126a35.658 35.658 0 0 1-1.514-.156 43.806 43.806 0 0 1-1.639-.199 3.44 3.44 0 0 1-.564-.072 55.428 55.428 0 0 1-1.826-.251c-.334-.042-.658-.094-.992-.146-.616-.094-1.242-.188-1.858-.303a41.99 41.99 0 0 1-2.046-.365 69.57 69.57 0 0 1-2.025-.408 74.695 74.695 0 0 1-3.445-.751c-.867-.209-1.733-.418-2.59-.647-1.784-.46-3.548-.971-5.302-1.514a107.3 107.3 0 0 1-2.61-.845.078.078 0 0 1-.052-.01c-.752-.262-1.503-.523-2.244-.794a8.197 8.197 0 0 1-.658-.23c-.741-.282-1.482-.553-2.224-.845-.563-.22-1.127-.439-1.69-.669-1.67-.678-3.341-1.398-4.98-2.16a116.747 116.747 0 0 1-4.875-2.38l-1.597-.846q-2.38-1.284-4.698-2.672a46.46 46.46 0 0 1-1.534-.94c-.856-.532-1.712-1.065-2.547-1.628q-1.222-.783-2.412-1.629c-.344-.24-.7-.48-1.044-.73q-1.566-1.097-3.069-2.255c-.365-.282-.74-.575-1.106-.856a79.603 79.603 0 0 1-2.944-2.391 66.328 66.328 0 0 1-.97-.825 107.325 107.325 0 0 1-8.227-7.797c-.303-.314-.605-.627-.898-.95a30.572 30.572 0 0 1-.574-.627c-.334-.355-.657-.72-.981-1.086a83.757 83.757 0 0 1-2.37-2.735c-.355-.427-.71-.856-1.054-1.284a105.392 105.392 0 0 1-4.854-6.461c-.23-.313-.449-.648-.668-.97a94.07 94.07 0 0 1-2.975-4.626 87.174 87.174 0 0 1-1.869-3.173c-.282-.49-.553-.981-.825-1.482-.052-.094-.104-.178-.146-.272-.271-.49-.532-.991-.793-1.503-.48-.908-.94-1.827-1.399-2.756-.26-.532-.511-1.075-.762-1.618-.24-.49-.47-.991-.678-1.493a80.417 80.417 0 0 1-1.128-2.578c-.177-.438-.355-.877-.532-1.305-.22-.532-.428-1.075-.637-1.618a80.322 80.322 0 0 1-.637-1.68 104.895 104.895 0 0 1-1.472-4.302c-.188-.584-.375-1.169-.553-1.753a75.961 75.961 0 0 1-.793-2.746c-.146-.49-.272-.981-.407-1.472-.094-.386-.199-.772-.293-1.169a101.62 101.62 0 0 1-.95-4.092 53.489 53.489 0 0 1-.26-1.253 41.4 41.4 0 0 1-.314-1.639 2.518 2.518 0 0 1-.073-.386 68.987 68.987 0 0 1-.449-2.557c-7.276-45.18 18.216-79.691 21.922-84.556a81.42 81.42 0 0 1 1.66-2.108q.548-.69 1.127-1.378c.261-.314.522-.627.794-.94.407-.48.814-.95 1.231-1.42l.877-.97c.49-.543.982-1.076 1.483-1.598a109.25 109.25 0 0 1 3.298-3.309c.407-.396.815-.772 1.222-1.159a104.665 104.665 0 0 1 5.157-4.499q1.456-1.174 2.943-2.317a79.96 79.96 0 0 1 2.213-1.639c1.013-.73 2.036-1.44 3.07-2.14.208-.146.417-.282.626-.418.532-.354 1.075-.71 1.628-1.054.7-.46 1.41-.898 2.12-1.326.49-.302.991-.605 1.492-.897 1.295-.762 2.61-1.504 3.925-2.214a103.07 103.07 0 0 1 1.837-.96c.606-.324 1.211-.626 1.827-.929.741-.376 1.493-.73 2.234-1.086.783-.365 1.566-.73 2.36-1.075a122.448 122.448 0 0 1 3.444-1.492c.825-.345 1.66-.68 2.495-.992.501-.21 1.013-.397 1.524-.585a119.1 119.1 0 0 1 3.831-1.378 3.063 3.063 0 0 1 .408-.135q.892-.314 1.785-.595a3.219 3.219 0 0 1 .448-.147c.856-.282 1.712-.543 2.579-.804 41.276 39.037 78.914 53.437 105.538 59.398 61.139 13.69 156.264 3.492 193.326 25.723a125.987 125.987 0 0 1 23.466 18.705 110.854 110.854 0 0 1 20.916 31.459Z"></path><path fill="url(#b)" d="M940.065 2038.915c-5.418 8.832-26.359 42.956-15.659 82.468 7.673 28.331 29.605 52.049 59.67 66.183-2.401.094-4.802.115-7.182.052q-.94-.015-1.88-.062a69.682 69.682 0 0 1-3.33-.157c-.668-.042-1.325-.094-1.983-.146-.303-.02-.605-.042-.908-.073-.418-.042-.835-.073-1.263-.125a35.658 35.658 0 0 1-1.514-.157 43.806 43.806 0 0 1-1.639-.198 3.44 3.44 0 0 1-.564-.073 55.428 55.428 0 0 1-1.826-.25c-.334-.043-.658-.095-.992-.147-.616-.094-1.242-.188-1.858-.303a41.99 41.99 0 0 1-2.046-.365 69.57 69.57 0 0 1-2.025-.407 74.695 74.695 0 0 1-3.445-.752c-.867-.209-1.733-.417-2.59-.647q-2.677-.689-5.302-1.514a107.3 107.3 0 0 1-2.61-.845.078.078 0 0 1-.052-.01c-.752-.262-1.503-.523-2.244-.794a8.197 8.197 0 0 1-.658-.23c-.741-.282-1.482-.553-2.224-.845-.563-.22-1.127-.439-1.69-.669a95.453 95.453 0 0 1-4.98-2.16 95.437 95.437 0 0 1-4.875-2.38l-1.597-.846q-2.38-1.268-4.698-2.672a46.46 46.46 0 0 1-1.534-.94c-.856-.532-1.712-1.065-2.547-1.628q-1.222-.783-2.412-1.629c-.344-.24-.7-.48-1.044-.73q-1.566-1.097-3.069-2.255c-.365-.282-.74-.575-1.106-.856a79.603 79.603 0 0 1-2.944-2.39 66.328 66.328 0 0 1-.97-.826 107.325 107.325 0 0 1-8.227-7.797c-.303-.314-.605-.627-.898-.95a30.572 30.572 0 0 1-.574-.627c-.334-.355-.657-.72-.981-1.086a83.757 83.757 0 0 1-2.37-2.734c-.354-.428-.71-.856-1.054-1.284a105.392 105.392 0 0 1-4.854-6.462c-.23-.313-.449-.647-.668-.97a94.07 94.07 0 0 1-2.975-4.625 74.282 74.282 0 0 1-1.869-3.174c-.282-.49-.553-.981-.824-1.482-.053-.094-.105-.178-.147-.272-.271-.49-.532-.991-.793-1.503-.48-.908-.94-1.827-1.399-2.756-.26-.532-.511-1.075-.762-1.618-.24-.49-.47-.991-.678-1.493a80.417 80.417 0 0 1-1.128-2.578c-.177-.438-.355-.877-.532-1.305-.22-.532-.428-1.075-.637-1.618a80.322 80.322 0 0 1-.637-1.68 104.895 104.895 0 0 1-1.472-4.301c-.188-.585-.375-1.17-.553-1.754a75.961 75.961 0 0 1-.793-2.745c-.146-.491-.272-.982-.407-1.473-.094-.386-.199-.772-.293-1.169a101.62 101.62 0 0 1-.95-4.092 53.489 53.489 0 0 1-.26-1.252 41.4 41.4 0 0 1-.314-1.64 2.518 2.518 0 0 1-.073-.386 68.987 68.987 0 0 1-.449-2.557c-7.276-45.18 18.216-79.691 21.922-84.556a81.42 81.42 0 0 1 1.66-2.108q.548-.69 1.127-1.378c.261-.314.522-.627.794-.94.407-.48.814-.95 1.231-1.42l.877-.97c.49-.543.982-1.076 1.483-1.598a109.25 109.25 0 0 1 3.298-3.309c.407-.396.815-.772 1.222-1.158a104.665 104.665 0 0 1 5.157-4.5q1.456-1.174 2.943-2.317a79.96 79.96 0 0 1 2.213-1.639c1.013-.73 2.036-1.44 3.07-2.14.208-.146.417-.282.626-.418.532-.354 1.075-.71 1.628-1.054.7-.46 1.41-.897 2.12-1.325.49-.303.991-.606 1.492-.898 1.295-.762 2.61-1.504 3.925-2.213a103.07 103.07 0 0 1 1.838-.96c.605-.324 1.21-.627 1.826-.93.741-.376 1.493-.73 2.234-1.085.783-.366 1.566-.731 2.36-1.076a122.448 122.448 0 0 1 3.444-1.492c.825-.345 1.66-.68 2.495-.992.501-.209 1.013-.397 1.524-.585a83.96 83.96 0 0 1 3.831-1.378 3.063 3.063 0 0 1 .408-.135q.892-.314 1.785-.595a3.219 3.219 0 0 1 .448-.147 73.57 73.57 0 0 1 2.579-.803 46.619 46.619 0 0 1 1.712-.502c.47-.146.94-.271 1.41-.396a84.96 84.96 0 0 1 2.912-.783 83.917 83.917 0 0 1 2.338-.574c2.025-.49 4.05-.93 6.096-1.326.428-.094.856-.167 1.284-.25.888-.167 1.764-.324 2.652-.48 1.023-.178 2.046-.345 3.069-.491.146-.021.292-.052.449-.073.991-.146 1.983-.282 2.985-.418h.01a166.03 166.03 0 0 1 3.268-.386c1.086-.125 2.182-.23 3.267-.334 26.359-2.412 49.23 3.288 71.873 12.652-18.822 2.912-40.66 8.58-60.985 19.416-18.706 9.959-36.129 24.271-48.74 44.825Z"></path><path fill="url(#j)" d="M935.946 2179.521a120.178 120.178 0 0 0 48.134 8.049 121.767 121.767 0 0 0 12.391-1.086c46.35-6.462 88.909-11.598 135.675-4.551 43.646 6.576 80.35 19.615 112.741 0a53.186 53.186 0 0 0 3.017-1.953c-24.062-17.788-66.893-43.342-125.153-50.242-85.6-10.136-152.878 26.129-186.805 49.783Z"></path><path fill="url(#k)" d="M943.587 1968.936q11.024 14.108 22.027 28.227c17.725 18.268 79.586 77.51 173.631 85.004 40.775 3.247 76.59-7.348 115.35-17.59 5.116-1.356 11.41-2.933 17.987-4.947a143.076 143.076 0 0 0 16.514-6.076 62.111 62.111 0 0 0-3.08-8.32 47.669 47.669 0 0 0-7.035-11.242c-18.07-21.254-50.243-16.557-77.228-16.87-42.549-.49-83.282-8.643-121.405-28.06-10.334-5.261-20.418-10.188-30.555-14.385-22.642-9.363-45.514-15.063-71.872-12.652a157.261 157.261 0 0 0-34.334 6.91Z"></path><path fill="url(#l)" d="M1944.523 1117.092c-47.455 41.056-100.517 55.211-159.069 64.272q-4.995.768-10.042 1.493c-64.74 9.248-115.101 10.427-150.798 10.69-166.405 1.224-277.548 2.041-420.85-31.446a1252.406 1252.406 0 0 1-62.505-16.312 195.569 195.569 0 0 1-39.45-17.005c-20.084-11.468-31.184-22.664-82.512-71.403-8.906-8.456-15.997-15.17-19.657-18.634a107.81 107.81 0 0 1-8.038-11.211c-26.223-42.059-30.617-98.315-16.755-145.321 15.43-52.31 46.6-54.993 95.955-127.053 41.005-59.867 69.91-126.144 82.427-197.745 11.837-67.718-29.198-139.475-5.262-204.886 19.01-51.934 70.724-67.436 107.678-102.083 27.81-26.066 44.92-61.548 63.093-94.42 37.977-68.689 82.343-118.806 167.024-89.974a792.854 792.854 0 0 1 144.851 66.225c58.28 34.115 114.714 79.002 138.932 142.043 17.12 44.564 16.41 93.659 23.3 140.905s24.605 97.333 65.4 122.147c26.588 16.17 62.853 22.068 76.81 49.898 14.155 28.227-3.476 61.047-9.134 92.114-9.823 53.917 22.193 96.466 53.145 136.677 77.52 100.694 61.433 217.976-34.543 301.029Z"></path><path fill="url(#m)" d="m1040.126 2162.164 10.42-3.386a196.217 196.217 0 0 1 0-121.267l-10.42-3.385a207.172 207.172 0 0 0 0 128.038Z"></path><path fill="url(#n)" d="m1086.949 2161.517 10.419-3.385a196.217 196.217 0 0 1 0-121.268l-10.42-3.385a207.174 207.174 0 0 0 0 128.038Z"></path><path fill="url(#o)" d="M1133.815 2162.168q5.199-1.707 10.418-3.393a196.059 196.059 0 0 1-6.263-96.643 191.283 191.283 0 0 1 4.833-20.022 11.442 11.442 0 0 0-7.338-2.652 11.707 11.707 0 0 0-3.445.522q-2.788 9.458-4.625 19.103a207.16 207.16 0 0 0 6.42 103.085Z"></path><circle cx="1045.195" cy="2033.59" r="11.472" fill="url(#p)"></circle><circle cx="1042.927" cy="2158.778" r="11.472" fill="url(#q)"></circle><path fill="url(#r)" d="M1123.992 2050.93a11.476 11.476 0 0 0 11.473 11.473 11.665 11.665 0 0 0 2.505-.272 11.475 11.475 0 0 0-2.505-22.673 11.707 11.707 0 0 0-3.445.522 11.477 11.477 0 0 0-8.028 10.95Z"></path><circle cx="1138.753" cy="2158.778" r="11.472" fill="url(#s)"></circle><circle cx="1091.89" cy="2043.146" r="11.472" fill="url(#t)"></circle><circle cx="1090.389" cy="2153.144" r="11.472" fill="url(#u)"></circle><path fill="url(#v)" d="M1462.256 1957.495a598.218 598.218 0 0 0 239.053 77.248l27.141 147.19a2538.564 2538.564 0 0 1-280.808-78.293l14.614-146.145Z"></path><path fill="url(#w)" d="M2108.429 2092.158c-6.765 42.016-34.94 73.354-71.038 87.363a120.178 120.178 0 0 1-48.134 8.049 121.767 121.767 0 0 1-12.39-1.086c-46.35-6.462-88.91-11.598-135.676-4.551-43.645 6.576-80.349 19.615-112.74 0a53.183 53.183 0 0 1-3.018-1.953c-21.87-14.77-32.277-39.407-37.695-58.593-5.616-20.91-9.865-46.235-3.497-67.833a62.111 62.111 0 0 1 3.08-8.32 47.669 47.669 0 0 1 7.036-11.242c18.07-21.254 50.242-16.557 77.227-16.87 42.55-.49 83.282-8.643 121.405-28.06 10.335-5.261 20.419-10.188 30.555-14.385 22.642-9.363 45.514-15.063 71.872-12.652a157.261 157.261 0 0 1 34.334 6.91c22.141 7.162 42.257 19.668 56.757 38.667 3.706 4.864 29.197 39.376 21.922 84.556Z"></path><path fill="url(#x)" d="M2108.429 2092.158c-9.573 59.48-62.06 97.562-119.172 95.412 30.065-14.135 51.997-37.852 59.67-66.183 10.7-39.512-10.241-73.637-15.659-82.468-26.317-42.884-73.584-58.646-109.724-64.242 22.642-9.363 45.514-15.063 71.872-12.652 34.919 3.184 69.326 17.058 91.09 45.577 3.707 4.864 29.198 39.376 21.923 84.556Z"></path><path fill="url(#y)" d="M2037.391 2179.521a120.178 120.178 0 0 1-48.134 8.049 121.767 121.767 0 0 1-12.39-1.086c-46.35-6.462-88.91-11.598-135.676-4.551-43.645 6.576-80.349 19.615-112.74 0a53.183 53.183 0 0 1-3.018-1.953c24.062-17.788 66.893-43.342 125.153-50.242 85.6-10.136 152.879 26.129 186.805 49.783Z"></path><path fill="url(#z)" d="M2029.75 1968.936q-11.023 14.108-22.026 28.227c-17.725 18.268-79.587 77.51-173.632 85.004-40.774 3.247-76.59-7.348-115.35-17.59-5.115-1.356-11.41-2.933-17.987-4.947a143.076 143.076 0 0 1-16.514-6.076 62.111 62.111 0 0 1 3.08-8.32 47.669 47.669 0 0 1 7.036-11.242c18.07-21.254 50.242-16.557 77.227-16.87 42.55-.49 83.282-8.643 121.405-28.06 10.335-5.261 20.419-10.188 30.555-14.385 22.642-9.363 45.514-15.063 71.872-12.652a157.261 157.261 0 0 1 34.334 6.91Z"></path><path fill="#0a56a4" d="M1286.21 2119.013a2476.323 2476.323 0 0 1-50.482-17.464c-13.581-4.854-114.098-40.994-183.726-74.117-17.976-8.55-39.23-19.448-63.198-33.342q-19.964-11.571-42.34-26.056a46.619 46.619 0 0 1 1.712-.5c.47-.147.94-.272 1.41-.397a84.96 84.96 0 0 1 2.912-.783 83.917 83.917 0 0 1 2.338-.574c2.025-.49 4.05-.93 6.096-1.326.428-.094.856-.167 1.284-.25.888-.167 1.764-.324 2.652-.48 1.023-.178 2.046-.345 3.069-.491.146-.021.292-.053.449-.073.991-.146 1.983-.282 2.985-.418h.01a166.03 166.03 0 0 1 3.268-.386c1.086-.125 2.182-.23 3.267-.334 26.359-2.412 49.23 3.288 71.873 12.652 10.136 4.196 20.22 9.123 30.555 14.385 38.123 19.416 78.856 27.569 121.405 28.06 26.984.313 59.157-4.385 77.227 16.869a47.682 47.682 0 0 1 7.036 11.243 62.149 62.149 0 0 1 3.08 8.32c6.127 20.784 2.422 45.023-2.881 65.462Z" opacity=".14"></path><path fill="url(#A)" d="M1470.312 1978.985q-44.689 84.68-89.389 169.351l-.094.188c-.093-.03-.188-.052-.281-.083a2497.27 2497.27 0 0 1-94.337-29.428c5.303-20.44 9.008-44.678 2.88-65.462a62.149 62.149 0 0 0-3.079-8.32 47.682 47.682 0 0 0-7.036-11.243 597.445 597.445 0 0 0 191.336-55.003Z" opacity=".14"></path><path fill="url(#B)" d="M1480 1944.965q-49.575 93.95-99.17 187.901a2495.215 2495.215 0 0 1-145.102-46.975c-13.581-4.855-114.098-40.994-183.726-74.117-65.567-31.192-174.916-93.565-299.599-219.218-3.789-5.554-50.399-76.31-18.79-151.365a137.695 137.695 0 0 1 19.552-32.842c38.75-48.363 105.32-65.254 153.735-57.978 20.847 3.132 36.881 10.533 53.615 22.434 17.047 12.12 34.814 28.905 59.126 50.64 0 0 114.891 102.719 287.072 220.262a1446.614 1446.614 0 0 0 173.286 101.258Z"></path><path fill="url(#C)" d="M1396.62 2160.18a22.935 22.935 0 0 0 29.2-3.214 343.422 343.422 0 0 0 92.949-194.414 22.95 22.95 0 0 0-16.441-24.958l-36.742-10.563a22.99 22.99 0 0 0-29.24 20.289 272.995 272.995 0 0 1-69.813 161.18 22.992 22.992 0 0 0 4.303 34.63l25.784 17.05Z"></path><path fill="#0a56a4" d="m960.515 1572.805-166.21 33.937s-22.245 2.077-41.14 1.607c38.75-48.363 105.32-65.254 153.735-57.978 20.847 3.132 36.881 10.533 53.615 22.434Z" opacity=".19"></path><path fill="url(#D)" d="m1214.086 1102.358-64.617 373.963a65.043 65.043 0 0 1-51.078 52.675l-304.087 62.091s-31.265 2.923-51.15 1.044a224.462 224.462 0 0 1-60.975-14.584 31.96 31.96 0 0 1-15.794-13.403c-13.3-22.308-31.954-62.56-28.665-112.94a182.023 182.023 0 0 1 5.104-32.454 26.3 26.3 0 0 1 18.53-18.894c17.933-4.938 47.006-10.878 53.614.198 1.096 1.827 1.837 4.572 1.012 8.821a8.402 8.402 0 0 1-3.778 5.449l-29.25 18.383a8.626 8.626 0 0 0-3.988 8.153l2.015 20.126a9.288 9.288 0 0 0 6.357 7.923 113.94 113.94 0 0 0 57.686 3.362 11.329 11.329 0 0 0 8.08-6.347c4.687-10.22 4.217-17.256 2.578-22.026-2.798-8.174-8.957-9.52-16.702-21.922-2.537-4.061-10.899-17.454-7.308-21.922 5.272-6.566 34.313 8.675 39.668 11.483 14.667 7.693 49.157 38.75 67.07 55.284a24.145 24.145 0 0 0 25.555 4.583l110.382-45.451a69.77 69.77 0 0 0 41.996-51.62l62.431-333.022a1155.27 1155.27 0 0 1 135.314 61.047Z"></path><path fill="#0a56a4" d="M2219.684 1607.754c-8.194-.47-13.988-1.012-13.988-1.012l-186.722-38.123c14.604-9.468 29.187-15.502 47.455-18.248 48.228-7.244 114.443 9.479 153.255 57.383Z" opacity=".19"></path><path fill="url(#E)" d="M2333.615 1564.14a31.961 31.961 0 0 1-15.794 13.404 224.472 224.472 0 0 1-60.974 14.583c-19.886 1.88-51.151-1.044-51.151-1.044l-304.087-62.09a65.043 65.043 0 0 1-51.078-52.676l-60.807-352.461-3.194-18.55a1168.471 1168.471 0 0 1 134.945-61.767l5.657 30.116 56.527 300.674a69.77 69.77 0 0 0 41.996 51.62l110.381 45.451a24.146 24.146 0 0 0 25.555-4.582c17.913-16.536 52.404-47.591 67.07-55.285 5.356-2.808 34.397-18.049 39.669-11.483 3.59 4.468-4.77 17.861-7.308 21.922-7.745 12.401-13.904 13.748-16.702 21.922-1.639 4.77-2.109 11.806 2.579 22.026a11.327 11.327 0 0 0 8.08 6.347 113.936 113.936 0 0 0 57.685-3.361 9.288 9.288 0 0 0 6.357-7.924l2.015-20.126a8.625 8.625 0 0 0-3.988-8.153l-29.25-18.383a8.402 8.402 0 0 1-3.778-5.449c-.825-4.249-.084-6.994 1.012-8.82 6.608-11.077 35.68-5.137 53.614-.2a26.3 26.3 0 0 1 18.53 18.895 182.011 182.011 0 0 1 5.104 32.455c3.289 50.379-15.366 90.631-28.665 112.94Z"></path><g opacity=".7"><path fill="#ffa65c" d="M1927.132 1073.655c-8.873 6.013-16.18 10.658-17.757 11.368-26.87 12.172-51.59 18.466-89.65 29.97a2600.11 2600.11 0 0 1-30.001 8.863l-3.194-18.55a1168.471 1168.471 0 0 1 134.945-61.767Z"></path><g mask="url(#F)"><path fill="#893e0b" d="M1927.132 1073.655c-8.873 6.013-16.18 10.658-17.757 11.368-26.87 12.172-51.59 18.466-89.65 29.97a2600.11 2600.11 0 0 1-30.001 8.863l-3.194-18.55a1168.471 1168.471 0 0 1 134.945-61.767Z" opacity=".36" style="mix-blend-mode:screen"></path></g></g><g opacity=".7"><path fill="#ffa65c" d="M1072.889 1073.655c8.873 6.013 16.18 10.658 17.757 11.368 26.87 12.172 51.589 18.466 89.65 29.97 11.075 3.34 21.17 6.316 30 8.863l3.195-18.55a1168.471 1168.471 0 0 0-134.945-61.767Z"></path><g mask="url(#G)"><path fill="#893e0b" d="M1072.889 1073.655c8.873 6.013 16.18 10.658 17.757 11.368 26.87 12.172 51.589 18.466 89.65 29.97 11.075 3.34 21.17 6.316 30 8.863l3.195-18.55a1168.471 1168.471 0 0 0-134.945-61.767Z" opacity=".36" style="mix-blend-mode:screen"></path></g></g><path fill="url(#H)" d="M1495.108 1771.442a1108.318 1108.318 0 0 1-292.676-41.52 206.868 206.868 0 0 0 21.922-45.932c14.05-42.298 9.374-75.202 8.257-108.628-2.464-73.521 14.938-70.766 14.343-137.095a376.086 376.086 0 0 0-2.192-39.449c-1.023-7.891-2.579-17.046-13.195-56.245-10.48-38.728-12.308-42.173-14.615-56.37-3.173-19.584-3.194-34.553-3.131-46.976.26-50.242 11.535-98.345 18.884-125.194a2495.871 2495.871 0 0 1-50.567-14.698c-38.06-11.504-62.78-17.799-89.65-29.97-4.77-2.161-61.645-40.078-56.72-43.516 77.534-54.128 55.625-119.33 111.243-177.039 0 0 54.29-52.473 203.414-82.322.157-.031.313-.052.47-.083 12.652-2.203 25.419-4.249 38.3-6.326a736.13 736.13 0 0 1 107.45-9.258h8.574a736.13 736.13 0 0 1 107.45 9.258c12.881 2.077 25.648 4.123 38.3 6.326.157.031.313.052.47.083 149.124 29.85 203.413 82.322 203.414 82.322 55.618 57.709 33.709 122.91 111.244 177.04 4.924 3.437-51.951 41.354-56.722 43.515-26.87 12.171-51.59 18.466-89.65 29.97a2495.846 2495.846 0 0 1-50.566 14.698c7.349 26.849 18.623 74.952 18.884 125.194.063 12.423.042 27.392-3.132 46.976-2.307 14.197-4.133 17.642-14.614 56.37-10.616 39.199-12.172 48.354-13.195 56.245a376.087 376.087 0 0 0-2.192 39.45c-.595 66.328 16.807 63.573 14.343 137.094-1.117 33.426-5.794 66.33 8.257 108.628a206.868 206.868 0 0 0 21.922 45.932 1108.318 1108.318 0 0 1-292.676 41.52"></path><path fill="url(#I)" d="m1638.862 766.444-.004-.04-.038-.006a191.293 191.293 0 0 1-40.679-70.212c-18.364-56.773-5.801-106.508-.623-123.793l-152.42 5.004c-.982 28.309-6.175 74.663-29.633 124.224a291.583 291.583 0 0 1-38.814 61.126l-.485.098a45.009 45.009 0 0 0-.85 8.717c0 42.09 59.057 76.204 131.919 76.204s131.92-34.114 131.92-76.204a44.024 44.024 0 0 0-.293-5.118Z"></path><path fill="url(#J)" d="M1695.741 416.74c45.05 70.444-48.68 291.448-174.793 293.327-75.356 1.123-131.659-76.44-140.944-89.23-34.684-47.783-40.582-94.338-49.137-161.877-.958-7.561-8.852-119.804 19.344-151.124 14.636-16.257 27.54-14.304 51.151-38.894a175.441 175.441 0 0 0 30.273-43.338c20.569 32.27 53.995 75.863 105.434 111.125 87.557 60.022 136.013 44.578 158.672 80.01Z"></path><path fill="url(#K)" d="m1923.008 2162.164-10.42-3.386a196.217 196.217 0 0 0 0-121.267l10.42-3.385a207.172 207.172 0 0 1 0 128.038Z"></path><path fill="url(#L)" d="m1876.185 2161.517-10.419-3.385a196.217 196.217 0 0 0 0-121.268l10.42-3.385a207.174 207.174 0 0 1 0 128.038Z"></path><path fill="url(#M)" d="M1829.319 2162.168q-5.199-1.707-10.418-3.393a196.059 196.059 0 0 0 6.263-96.643 191.28 191.28 0 0 0-4.833-20.022 11.442 11.442 0 0 1 7.338-2.652 11.707 11.707 0 0 1 3.445.522q2.788 9.458 4.625 19.103a207.16 207.16 0 0 1-6.42 103.085Z"></path><circle cx="1917.939" cy="2033.59" r="11.472" fill="url(#N)"></circle><circle cx="1920.207" cy="2158.778" r="11.472" fill="url(#O)"></circle><path fill="url(#P)" d="M1839.142 2050.93a11.476 11.476 0 0 1-11.473 11.473 11.665 11.665 0 0 1-2.505-.272 11.475 11.475 0 0 1 2.505-22.673 11.707 11.707 0 0 1 3.445.522 11.477 11.477 0 0 1 8.028 10.95Z"></path><circle cx="1824.381" cy="2158.778" r="11.472" fill="url(#Q)"></circle><circle cx="1871.244" cy="2043.146" r="11.472" fill="url(#R)"></circle><circle cx="1872.745" cy="2153.144" r="11.472" fill="url(#S)"></circle><path fill="none" stroke="#57565c" stroke-miterlimit="10" stroke-width="7" d="M0 2938.755h3000"></path></g></svg>