<svg xmlns="http://www.w3.org/2000/svg" enable-background="new 0 0 1600 1200" viewBox="0 0 1600 1200" id="start-business"><g><g><g><g><ellipse cx="863.5" cy="1080" stroke="#000" stroke-miterlimit="10" rx="523.5" ry="1.6"></ellipse></g></g></g><g><g><g><ellipse cx="311.5" cy="1010.8" stroke="#000" stroke-miterlimit="10" rx="281.8" ry="1.6"></ellipse></g></g></g><g><g><g><ellipse cx="1087.6" cy="966.2" stroke="#000" stroke-miterlimit="10" rx="288.5" ry="1.6"></ellipse></g></g></g><g><g><g><ellipse cx="899.2" cy="914.9" stroke="#000" stroke-miterlimit="10" rx="111.4" ry="1.6"></ellipse></g></g></g><g><g><g><ellipse cx="467.6" cy="892.6" stroke="#000" stroke-miterlimit="10" rx="199.4" ry="1.6"></ellipse></g></g></g><g><g><g><ellipse cx="1450" cy="932.8" stroke="#000" stroke-miterlimit="10" rx="89.1" ry="1.6"></ellipse></g></g></g></g><g><path fill="#e0af90" d="M737 618.3c.3 5.4 1.1 13.5 3.2 23.1 5.1 22.7 12.8 30.4 15.6 46.8 2.2 12.6 0 22.1-3.7 37.7-8.4 35.6-18.6 39.7-31.2 74.4-2.5 7-.5 2.5-22 80.8-2.3 8.3-3.8 19.9-12.6 30.7-4.1 5.1-13.4 14.6-26.9 21.7-6.5 3.4-11 4.7-16.7 10.2-5.9 5.7-11.4 14.1-9.4 16.5 2.2 2.6 13.3-1.8 20.6-6 7.4-4.4 12.1-9.5 18.3-8.1.9.2 1.9.5 3.3 1.4 4.2 2.5 6.1 7.3 14.4 16.3 18 19.5 39.1 30.1 41.1 27.8 2-2.2-12.3-17.6-9.3-20.8 1.3-1.3 4.1 1.1 8.2-.6 3.2-1.4 3.1-3.6 7.5-6.7 3.4-2.4 3.9-1.4 6.4-3.4 2.7-2.2 4-5.1 6.4-10.9 2.1-5.1 3.2-7.7 3-9.7-.5-4.8-4.6-7.2-8.6-10.9-6.2-5.8-3.7-7.2-15.3-28.1-6.7-12-9.2-14.6-8.6-19.8.8-7.3 7-12.1 8.6-13.5 20.5-17 50.2-88 59.5-112.7 8.7-23 24.5-71.4 18.3-127.6-1.8-16.1-4.9-29.2-14.6-34.1-13.3-6.6-34.9 3.7-55.5 25.5zM625.2 592.4c-2.2 9.2-5.4 23.4-8.6 40.8-7.6 41.1-6.5 52.1-12.3 75.1-4.3 16.8-11.8 32.5-26.8 63.3-30.7 63-31.4 73.5-45.6 85.9-13.9 12.1-31 20.4-41.9 25.8-11.3 5.5-30.1 8.5-41.9 16.1-2.4 1.5-5.2 3.7-4.8 5.4.4 1.5 4.4.4 8.6 2.7 2.8 1.6 3.9 3.7 4.8 4.8 5.5 6.6 26.9 1 43.5-6.4 10.3-4.6 21.4-7.7 31.1-13.4 2.1-1.2 5.4-3.3 8.6-2.1 5.3 1.9 3.7 10.6 10.7 16.1.3.2 6.8 5.2 11.8 2.7 4.5-2.3 4.8-9 4.8-10.2.3-6.8-6.7-8-7-14.5-.2-4.8 3.5-5.2 3.8-11.3.2-4.6-1.8-5.8-1.7-10.5.1-4.1 1.7-7.3 3.3-9.9 16.2-27.1 33.8-47.2 33.8-47.2 16.8-19.6 34.6-40.7 38.6-69.2 1.5-10.4.8-19.2 0-24.7 4.2-5.3 10-13.4 15.6-24.2 2.4-4.6 6.8-13.7 16.1-45.6 2.3-7.8 5.3-18.4 8.6-31.1.2-1.2 2.5-17.8-8.1-26.8-10.8-9.4-31.6-7.5-45 8.4zM496.5 331.5c-.2 5.1-.2 11.9.5 19.9.7 6.8 2.7 22.7 10.6 41.9 11.9 29 29 45.6 33.6 49.9 14 13 21.4 14 24.2 14.1 10.4.6 21.9-5 28.4-13.5 6.4-8.2 6-16.7 10.5-17.2 3.4-.4 4.3 4.4 11.2 10.5 2.3 2 14.2 12.5 28.4 12 4.3-.1 8.5-1.3 9.7.7 1.3 2.2-2.6 5.3-1.5 9 .9 3.1 5 4.9 7.5 5.2 8.3 1 16.2-12.5 22.5-23.2 16.5-28.5 15.9-48.7 15.7-53.2-.3-5.8-.9-16-6-18-4.9-1.9-8.3 6.1-19.5 9-4.4 1.1-3.7-.1-28.3-1.7-11.2-.7-13.5-.6-16.5 0-7.3 1.4-10.5 4.1-12.9 2.4-3.2-2.3.8-8.4-2.2-16.5-2-5.2-7-11.2-12.7-11.2-4.5-.1-8 3.5-10.5 6-4.2 4.3-3 8.1-6 9.7-4.3 2.3-11.2-2.6-12.7-3.7-12.1-8.7-11-19.8-19.5-32.9-8-12.5-25-27.3-38.2-23.2-11.1 3.5-15.2 19.4-16.3 24zM501 395.9c-.5 1-2.8 6.1-.7 12 2.2 6.4 8.3 10.7 9.7 9.7 1.1-.8-.2-5.8-9-21.7zM895.2 661.7c2.2 9.7 5.8 16.7 8.6 21.2 6.4 10.3 12.5 13.5 38.5 38.5 3.3 3.2 3.4 3.3 5 4.8 8.8 8.2 23.8 20.3 64.6 48.2 23.6 16.1 41.9 28.2 56.3 37.4 30.5 19.5 40.7 21.5 54 36.6 23.4 26.6 23.6 26.8 23.6 26.8 7 8.8 12 15.9 21.9 19.9 3.2 1.3 8.8 3.4 15.9 2.7 12-1.3 13-9.3 24.5-10 5.8-.3 9.5 1.5 16.7-.7 3.7-1.1 6.8-2 7.2-3.9.9-4.8-17.2-7.6-36.2-23.5-11.8-9.9-20.1-20.9-20.1-20.9-2.9-3.9-5-7.4-10.3-13.9-6.9-8.5-11.3-12.2-32.2-39.8-37.9-50.2-33.1-51-45.1-59-32.3-21.4-53.7-25.9-53.7-25.9-8-1.7-20.3-3.2-24.5-11.9-3.5-7.2 1.1-13.9-3.3-19.9-3.8-5.1-11-5.5-17.9-6-39.5-2.7-33.2-6.1-55-5.3-9.8.3-23 1.4-38.5 4.6zM1175.7 707.5c12.4 5.5 31.4 13.6 55 21.9 43.2 15.2 50.6 13.5 88.2 25.2 56.3 17.4 100.3 41.2 134.6 59.7 16.2 8.7 29.4 16.5 38.5 21.9 1.2-2.6 3.2-5.8 6.6-7.3 5.6-2.5 10.5 1.5 12.6-.7 2.6-2.7-3.8-10-5.3-19.9-.3-2.2-2.7-16.8 4.6-22.5 2.1-1.7 3.9-1.7 4-2.7.3-3.5-21.8-7.5-29.8-9.3-22-4.8-37-13.8-67-31.8-33.2-19.9-32-28.6-79.6-61-14.9-10.2-24.9-16.1-38.5-20.6-24.2-8-46.4-8.6-46.4-8.6-3.2-.1-9.7-.1-18.6-1.3-8.5-1.1-15.4-2.8-19.9-4-10 12.5-20.2 27-29.8 43.8-3.3 5.8-6.4 11.5-9.2 17.2z"></path><path fill="#d1a95e" d="M486.3 347.2c-3.3 5.2-10.7 10-14.6 8.2-5.8-2.7-5.1-20.8.5-34.8 5.1-13 13.5-20.1 28.5-32.3 16.2-13.1 34-27.6 51.8-26.3 10.7.8 20.3 5.3 20.3 5.3 4.5 2.3 6.7 6.1 9 5.3 3-1.1 1.2-7.5 6-13.5 1.7-2.2 5.3-5.4 7.5-4.5 3.4 1.4 2.4 11.9 2.3 13.5-.7 7.5-3.2 11.3-1.5 12.8 1.8 1.5 5.3-2.3 9.8-.8 3.1 1 5.7 4.3 5.3 6.8-.6 3.1-6.1 3.6-6 5.3.1 1.9 7.5 1.4 13.5 5.3 5.6 3.6 7.7 9.4 9 12.8 3.3 8.9.1 12.3 0 33.1-.1 11.2.8 15.8 3 20.3 3.2 6.6 8.7 7.4 8.3 10.5-.8 5.6-17.1 10.6-22.5 5.3-3.6-3.5.4-8.7-3.8-17.3-1.1-2.4-4.1-8.6-9.8-9.8-5.5-1.2-11.7 2.8-14.7 7.2-2.6 3.8-1.8 6.5-4.7 8.2-3.1 1.9-8 1.3-9.8-1.1-1.6-2.2 0-5.1-1.5-6-1-.6-2.2.3-5.6 1.9-3.7 1.7-5.5 2.6-6.4 2.6-5.5.2-10.7-8-14.3-13.5-1.7-2.7-7.7-12.4-8.3-25.5-.2-4 .2-8.1-.8-8.3-1.2-.2-2.1 6.8-7.5 12.8-5.2 5.6-11.8 7.3-12.8 7.5-4 .9-13.4 4.4-21 0-3.3-1.9-5.6-4.9-6.7-4.2-.8.6.4 2.8.2 6.2-.3 3.2-1.8 5.7-2.7 7z"></path><path fill="#ff4f03" d="M678.8 485.8c4.9-9.4 8-11.3 9.9-10.9 6.8 1.1 1.8 28 12.9 62.7 7.2 22.6 12.6 21.5 18.9 44.8 6.1 22.7 1 35.9 9.9 41.8 4.5 2.9 12.9 1.1 29.8-2.6 13.9-3 25-5.6 37.8-13.3 7.1-4.3 12.3-8.8 15.7-12 1.6-17.7-.5-30.9-2.9-39.7-1.8-7-4.3-13.2-4.6-23-.3-9.7 1.7-17.8 3.5-23 10.2-5.6 25.3-13.4 44-21.7 40.7-18.1 61.6-27 86.5-23.9 9.8 1.2 25.6 5 43.7 17.9 2.9-3 7.3-7.5 12.7-13.2 17.9-19.1 24.1-27.2 30.1-33.5 33-34.9 89.3-49.2 97-59.1.6-.8 3.4-4.7 8.4-6.6 1.8-.7 3.4-.9 4.2-.9-13.4-7.1-32.1-16.4-54.9-25.9-4.3-1.8-38.6-16.5-67.6-23.9-68.4-17.4-130.5-8.3-164.1-3-14.2 2.2-63.4 10.6-122.3 35.8-14.8 6.3-26.9 12.3-35.8 16.9 2 3.3 4.6 8.4 6 14.9.8 3.9 2.2 12.9-8.6 42.7-7.2 20-11.6 26.2-17.3 30.9-2.7 2.2-8.9 7.2-14.4 5.5-5.1-1.6-5.8-7.5-8.4-7.5-4.8.1-8.3 20.1-9.9 33.8-3.7 31.2-5.5 46.9-7 50.7-12.3 32.9-16.9 40.8-16.9 40.8-1.7 2.8-5.1 8.5-3 11.9 2.7 4.4 13.1 2.5 16.9 2 14.9-2 20.3 7.7 57.7 20.9 2.4.8 7.3 3.1 9.9 1 3.1-2.5-.6-7.9 1.3-16.8 1.7-8.4 6.1-9.1 6.7-16 .5-6.1-2.5-10-6.2-16.8-.5-1-3.8-10-10.4-28.1-3.8-10.8-8.1-27.6-9.2-53.6z"></path><g><g><g><path fill="#ff4f03" stroke="#ff4f03" stroke-miterlimit="10" d="M934.2 646.9c-.1 0 0-1 .4-2.7.2-.9.5-2 .7-3.2.3-1.3.8-2.7 1.3-4.3 2-6.5 5.6-15.8 11.4-26.5.4-.7.7-1.3 1.1-2 .4-.7.8-1.4 1.2-2 .8-1.4 1.6-2.8 2.5-4.2 1.8-2.8 3.6-5.8 5.7-8.7 4.1-5.9 8.6-12.1 13.7-18.3 5.1-6.2 10.6-12.6 16.5-19.1 5.9-6.5 12.1-13.1 18.4-19.8 12.6-13.5 24.4-26.6 33.9-39.4 4.8-6.4 9-12.7 12.7-18.7 1.8-3.1 3.6-6 5-8.9 1.6-2.9 3-5.7 4.2-8.5 4.9-11 6.2-20.8 5.2-27.4-.4-3.3-1.3-5.8-1.9-7.4-.7-1.6-1-2.5-.9-2.6.1-.1.6.7 1.5 2.3.8 1.6 1.9 4.1 2.5 7.5.6 3.4.8 7.7.1 12.6-.3 2.4-.9 5-1.6 7.7-.8 2.7-1.7 5.4-2.9 8.3-1.2 2.8-2.5 5.8-4.1 8.7-1.4 3-3.2 6-4.9 9.1-3.6 6.2-7.9 12.6-12.6 19.1-9.5 13-21.3 26.3-33.9 39.8-6.3 6.8-12.5 13.4-18.4 19.8-5.9 6.4-11.4 12.7-16.5 18.9-5.1 6.1-9.7 12.2-13.8 17.9-2.1 2.9-3.9 5.7-5.8 8.5-.9 1.4-1.7 2.8-2.6 4.1-.4.7-.8 1.3-1.2 2-.4.7-.8 1.3-1.1 2-6.1 10.4-9.9 19.4-12.2 25.8-.6 1.6-1.2 3-1.5 4.2-.4 1.2-.8 2.3-1 3.1-.6 1.5-1 2.4-1.1 2.3z"></path></g></g></g><g><g><g><path fill="#ff4f03" stroke="#ff4f03" stroke-miterlimit="10" d="M962 661.2c-.1 0 0-1.1.3-3 .3-2 .9-4.8 1.7-8.5.9-3.6 2.1-8.1 3.9-13.2 1.7-5.1 4-10.7 6.9-16.8 5.7-12.2 14-26.1 24.6-40.4 10.6-14.3 23.4-29.1 37.1-44.3 6.8-7.6 13.5-15 19.9-22.3 6.3-7.3 12.3-14.3 17.5-21.4 5.2-7.1 9.6-14.2 12.9-21.2 3.3-7 5.5-14 6.6-20.5 1.2-6.5 1.2-12.5.8-17.8-.5-5.2-1.6-9.7-2.8-13.1-.2-.4-.3-.9-.4-1.3-.2-.4-.3-.8-.5-1.2-.3-.8-.6-1.5-.9-2.1-.6-1.3-1.1-2.4-1.6-3.2-1-1.7-1.4-2.6-1.4-2.7.1-.1.7.7 1.9 2.4.6.8 1.2 1.9 1.9 3.2.4.6.7 1.4 1 2.1l.6 1.2c.2.4.3.8.5 1.3 1.4 3.5 2.8 8 3.4 13.4.7 5.4.8 11.6-.3 18.3-1 6.7-3.1 14-6.5 21.3-3.3 7.3-7.7 14.6-13 21.9-5.2 7.3-11.2 14.4-17.6 21.8-6.3 7.3-13 14.8-19.9 22.4-13.7 15.2-26.5 29.8-37.2 44-10.6 14.1-19 27.7-25 39.6-3 6-5.4 11.5-7.3 16.5-1.9 4.9-3.3 9.3-4.4 12.9-1 3.6-1.8 6.4-2.3 8.3 0 1.4-.3 2.4-.4 2.4z"></path></g></g></g><path fill="#ff4f03" d="M1104 944.8c11-14.7 22.6-24.2 30.6-29.8 8.6-6.1 18.3-12.9 32.7-16.3 9.6-2.3 15.3 1.4 25.6-2.8 7.1-2.9 8.1-5.6 14.7-6.6 7.2-1.1 10.8 1.4 17.3-1.2 5.1-2.1 5.4-4.8 7.8-4.3 5.1 1 5.2 11.4 12.1 26.3 2.6 5.7 5.3 10 7.1 12.8-15.9 3.6-32.5 7-49.7 9.9-34.8 5.9-67.6 9.7-98.2 12zM1509.5 796.9c-3.1 9.5-2.6 16.6-1.5 21.4 1.3 5.6 3.7 8.9 2.2 13.3-1.6 4.6-5.7 5.3-9.6 8.9-6.5 5.9-5.2 13.3-8.1 28.8-3.3 17.4-5 26.1-10.3 32.5-6.7 8-11.7 6-26.6 17.7-9 7.1-16 12.6-14.8 16.2 2.5 7.5 37.4 2.1 57.6-3 14.2-3.5 21.4-5.4 26.6-11.1 9.2-10 3.7-18.9 12.6-40.6 4-9.9 9.2-17.9 16.2-28.8 8.3-12.8 13.2-17.4 14.8-27.3.7-4.6 2.1-13.7-3-20.7-4.6-6.2-10.8-5.8-28.8-14-5.1-2.3-9.1-4.5-11.8-5.9-3.4-3.2-8.2-4.1-11.8-2.2-4.7 2.5-6.8 9.2-3.7 14.8z"></path><g><g><g><path stroke="#000" stroke-miterlimit="10" d="M557.2 454.5c0 .1-.5 0-1.4-.3-.5-.1-1-.3-1.7-.6-.7-.2-1.4-.5-2.2-.9-3.3-1.4-7.9-3.9-13.2-7.6-1.4-.9-2.6-2-4.1-3-1.4-1.1-2.8-2.3-4.2-3.5-2.8-2.6-5.7-5.4-8.5-8.6-5.7-6.4-11.1-14.2-15.7-22.9-4.5-8.7-7.9-17.5-10.3-25.7-2.4-8.2-4-15.7-5-22-1-6.3-1.6-11.5-1.8-15.1-.3-3.6-.2-5.6 0-5.6.5-.1 1.5 7.8 4.1 20.2 1.3 6.2 3.1 13.6 5.6 21.5 2.5 8 5.9 16.5 10.3 25.1 4.5 8.5 9.7 16.1 15.1 22.4 2.7 3.2 5.4 6 8.1 8.6 1.4 1.3 2.7 2.5 4 3.6 1.3 1.1 2.6 2.2 3.8 3.1 5 3.8 9.3 6.6 12.4 8.3.8.5 1.4.8 2.1 1.2.6.3 1.1.6 1.5.9.8.5 1.2.8 1.1.9z"></path></g></g></g><g><g><g><path stroke="#000" stroke-miterlimit="10" d="M589.3 446.3c-.3-.4 1.6-2 4.1-4.9.3-.4.6-.7 1-1.1.3-.4.7-.8 1-1.3.7-.9 1.4-1.9 2.1-2.9 1.3-2.1 2.7-4.5 3.8-7.2 1.1-2.7 1.9-5.3 2.4-7.8.2-1.2.5-2.4.6-3.5.1-.6.2-1.1.2-1.6s.1-1 .1-1.5c.2-3.8 0-6.3.5-6.4.4-.1 1.4 2.3 1.8 6.4 0 .5.1 1 .1 1.6v1.7c0 1.2-.2 2.5-.3 3.8-.4 2.7-1.2 5.6-2.3 8.5-1.2 2.9-2.8 5.5-4.4 7.7-.8 1.1-1.6 2.1-2.5 2.9-.4.4-.8.9-1.2 1.2-.4.4-.8.7-1.2 1.1-3.3 2.7-5.6 3.6-5.8 3.3z"></path></g></g></g><g><g><g><path stroke="#000" stroke-miterlimit="10" d="M597.7 403.9c-.1-.2 1-.7 2.8-1.6 1.8-.9 4.4-2.4 6.9-4.8 1.3-1.2 2.5-2.7 3.5-4.4 1-1.8 1.8-3.8 2.2-6 .9-4.5.4-9.7-.7-15.1-1.2-5.4-2.5-10.6-5.2-14.2-1.3-1.8-3-3.1-4.7-3.9-1.7-.8-3.6-.9-5.2-.7-1.6.3-3.1.9-4.3 1.5-1.2.7-2.2 1.4-3 2-1.6 1.3-2.3 2.1-2.5 2-.2-.1.3-1.2 1.7-2.9.7-.8 1.6-1.8 2.9-2.7 1.3-.9 2.9-1.8 4.8-2.3 2-.5 4.4-.5 6.7.4s4.4 2.5 6.1 4.6c1.7 2.1 2.9 4.6 3.8 7.2.9 2.6 1.6 5.3 2.2 8.1 1.2 5.6 1.7 11.3.5 16.4-.6 2.5-1.6 4.9-2.8 6.8-1.3 1.9-2.8 3.5-4.3 4.7-3 2.5-5.9 3.7-8 4.3-2.1.8-3.3.8-3.4.6z"></path></g></g></g><g><g><g><path stroke="#000" stroke-miterlimit="10" d="M587.9 390.6c-.4 0-1.1-1.6-1.2-4.4-.1-1.4 0-3.1.4-5 .4-1.8.9-3.8 1.8-5.8s2-3.8 3.1-5.3 2.3-2.7 3.4-3.6c2.2-1.8 3.8-2.5 4.1-2.1.3.4-.8 1.7-2.4 3.7-.8 1-1.7 2.3-2.6 3.7-.9 1.5-1.8 3.1-2.6 4.9-.8 1.8-1.4 3.6-1.8 5.2-.4 1.6-.8 3.1-1 4.4-.5 2.5-.7 4.2-1.2 4.3z"></path></g></g></g><g><g><g><path stroke="#000" stroke-miterlimit="10" d="M604 385.1c-.4.2-1.2-.5-2.4-1.4-1.2-.9-2.9-2-4.9-2.5-.9-.2-1.9-.2-2.8-.1-.9.1-1.6.4-2.2.7-1.1.6-1.6 1.5-2.1 1.4-.2 0-.4-.3-.4-.9 0-.6.3-1.4.9-2.2 1.3-1.6 4.2-2.7 7.2-2.1 2.9.7 5 2.6 5.9 4.1 1.1 1.6 1.2 2.8.8 3z"></path></g></g></g><g><g><g><path stroke="#000" stroke-miterlimit="10" d="M572.4 358.9c.2.2-.4 1-1.6 2.3-1.2 1.3-3.2 3.1-6.4 4.4-1.6.6-3.5 1-5.6.8-2.1-.2-4.2-1-6.1-2.3-1.9-1.3-3.5-2.9-5-4.8-1.5-1.8-2.8-3.8-4-6-5-8.5-6.9-17.4-7.2-23.8-.3-6.4.6-10.3 1-10.2.5 0 .4 3.9 1.3 10 .9 6 3.1 14.3 7.7 22.4 1.2 2 2.4 3.9 3.7 5.6 1.3 1.7 2.7 3.2 4.2 4.3 1.5 1.1 3.1 1.8 4.7 2.1 1.6.3 3.1.1 4.5-.3 2.8-.8 4.8-2.2 6.3-3.2 1.5-.9 2.4-1.5 2.5-1.3z"></path></g></g></g><g><g><g><path stroke="#000" stroke-miterlimit="10" d="M583.5 363.9c.2.1.3.4.3 1s-.3 1.4-1 2.2c-.6.8-1.6 1.7-3 2.2-1.3.5-3 .7-4.7.2-1.7-.5-3-1.7-3.8-2.9-.8-1.2-1.2-2.5-1.2-3.5 0-1.1.2-1.9.5-2.4s.6-.7.8-.7c.5.1.4 1.2 1 2.6.5 1.4 1.8 3.1 3.7 3.7 1.8.6 3.9-.2 5.1-1 1.2-.6 1.8-1.5 2.3-1.4z"></path></g></g></g><g><g><g><path stroke="#000" stroke-miterlimit="10" d="M639.4 371.1c0 .2-1.4.5-3.7-.5-1.1-.5-2.4-1.4-3.6-2.7-1.2-1.3-2.2-3.1-3-5.1-.7-2-1.2-4.4-1.6-6.8-.4-2.4-.6-5.1-.8-7.8-.1-2.8-.1-5.7.1-8.7.2-3 .6-6.1.9-9.2.7-6.2 1.2-12.1.2-17.2-.8-5.1-3-9.4-5.7-12.1-2.7-2.8-5.7-4.1-7.8-4.7-2.1-.6-3.4-.5-3.5-.8 0-.2 1.3-.7 3.7-.5 2.4.2 5.9 1.3 9.2 4.3 1.6 1.4 3.2 3.3 4.4 5.6 1.2 2.3 2.1 4.9 2.7 7.7.6 2.8.8 5.8.8 8.8 0 3-.3 6.2-.7 9.3-.4 3.1-.8 6.2-1 9.1-.2 2.9-.3 5.7-.3 8.4s.2 5.2.4 7.6c.2 2.4.6 4.5 1.1 6.4.5 1.9 1.3 3.5 2.2 4.7.9 1.2 1.9 2.1 2.8 2.7 1.9 1 3.2 1.2 3.2 1.5z"></path></g></g></g><g><g><g><path stroke="#000" stroke-miterlimit="10" d="M643.6 318.9c-.5 0-.7-2.3-1.4-5.9-.2-.9-.4-1.9-.6-2.9-.2-1-.6-2.1-.9-3.3-.7-2.3-1.6-4.7-2.8-7.2-1.2-2.5-2.5-4.7-3.9-6.7-.7-1-1.3-1.9-2-2.7-.6-.9-1.3-1.6-1.9-2.3-2.4-2.7-4-4.3-3.8-4.7.2-.3 2.4.6 5.4 3.1.7.6 1.5 1.3 2.3 2.2.8.8 1.6 1.7 2.4 2.7 1.6 2 3.1 4.4 4.4 7 1.3 2.7 2.2 5.3 2.8 7.8.3 1.2.5 2.4.6 3.6.2 1.1.2 2.2.3 3.1.1 3.9-.5 6.2-.9 6.2z"></path></g></g></g><g><g><g><path stroke="#000" stroke-miterlimit="10" d="M657.8 448.6c0 .4-3.2 1.2-8.5 1.3h-2.1c-.7 0-1.5-.1-2.3-.2-1.6-.1-3.2-.4-5-.6-3.5-.7-7.2-1.7-11-3.1-3.8-1.5-7.2-3.4-10.2-5.2-1.5-1-2.9-1.9-4.1-2.9-.6-.5-1.2-.9-1.8-1.4-.5-.5-1.1-1-1.5-1.4-3.9-3.7-5.7-6.5-5.4-6.7.4-.3 2.7 1.9 6.8 5 .5.4 1.1.8 1.6 1.2l1.8 1.2c1.2.9 2.6 1.7 4.1 2.5 2.9 1.7 6.2 3.3 9.8 4.8 3.6 1.4 7.2 2.4 10.5 3.2 1.6.3 3.2.7 4.7.9.7.1 1.5.3 2.1.3.7.1 1.4.2 2 .2 5.3.4 8.5.4 8.5.9z"></path></g></g></g><g><g><g><path stroke="#000" stroke-miterlimit="10" d="M697.3 382.3c.3 0 1 6.3-.2 16.4-.6 5.1-1.6 11.1-3.4 17.6-1.8 6.5-4.4 13.5-7.8 20.5-3.4 7-7.3 13.3-11.4 18.8-2 2.7-4.3 5.3-7.1 7-1.4.8-2.9 1.4-4.4 1.7-1.5.3-3.1.2-4.4-.1-2.7-.8-4.8-2.3-6.2-4-1.4-1.7-2.1-3.4-2.5-4.9-.2-.7-.2-1.4-.2-2 0-.6.1-1.1.1-1.4.2-.8.4-1.1.5-1.1.3 0-.1 1.6.9 4.2.5 1.2 1.3 2.7 2.6 4 1.3 1.3 3.1 2.5 5.3 2.9 1.1.2 2.2.2 3.4-.1 1.2-.3 2.4-.8 3.5-1.6 2.2-1.5 4.2-3.8 6.1-6.5 3.8-5.4 7.6-11.6 10.9-18.4 3.3-6.8 5.9-13.6 7.8-19.9 1.9-6.3 3.2-12.1 4.1-17 1.7-9.8 1.8-16.1 2.4-16.1z"></path></g></g></g><g><g><g><path stroke="#000" stroke-miterlimit="10" d="M637.6 376.2c.2.4-.3 1.2-1.5 2.2-1.2.9-3.1 2.1-5.6 2.4-2.7.3-5-.8-6.2-2.1-.6-.7-.9-1.3-.9-1.8-.1-.5 0-.8.2-.9.4-.2 1.1.4 2.2.9 1 .5 2.7.9 4.4.7 1.8-.2 3.5-.8 4.9-1.2 1.3-.5 2.2-.6 2.5-.2z"></path></g></g></g><g><g><g><path stroke="#000" stroke-miterlimit="10" d="M534.8 321.3c.2.1-.2 1-1.1 2.5-.9 1.5-2.3 3.6-4.3 6s-4.6 5.2-8.1 7.6c-3.5 2.4-7.9 4.5-12.9 5.1-5.1.6-10-.7-13.7-3.2-1.9-1.2-3.4-2.8-4.5-4.4-1.1-1.6-1.9-3.3-2.3-4.9-.9-3.2-.8-5.8-.7-7.6.2-1.8.6-2.7.8-2.7.2 0 .3 1 .5 2.7.2 1.7.5 4.1 1.6 6.8.5 1.3 1.3 2.7 2.3 4 1 1.3 2.3 2.5 4 3.4 3.2 1.9 7.4 3 11.7 2.5 4.4-.5 8.3-2.2 11.6-4.3 3.3-2.1 5.9-4.5 8.1-6.7 2.1-2.2 3.8-4 5-5.3 1.1-1 1.8-1.7 2-1.5z"></path></g></g></g><g><g><g><path stroke="#000" stroke-miterlimit="10" d="M485.4 347.7c.1.2-.7 1.2-2.4 2.8-1.7 1.6-4.5 3.8-8.2 5.9-1.9 1-4 2.2-6.8 2.7-1.4.2-2.9.2-4.4-.3-1.5-.5-2.9-1.4-4-2.6-2.1-2.4-3.2-5.6-3.6-8.7-.5-3.2-.4-6.5.2-9.8 1.2-6.6 4.1-12.4 7.2-17.1 3.2-4.7 6.5-8.5 9.3-11.6 5.7-6.3 9.6-9.7 9.9-9.4.3.3-3 4.3-8.1 10.9-2.6 3.3-5.6 7.2-8.5 11.8-2.9 4.6-5.5 10-6.5 16-.5 3-.6 6-.3 8.8.3 2.8 1.2 5.4 2.7 7.2.7.9 1.6 1.5 2.6 1.9 1 .4 2.1.4 3.1.3 2.2-.2 4.2-1.1 6-2 3.7-1.8 6.5-3.6 8.5-4.9 2.1-1.4 3.2-2.1 3.3-1.9z"></path></g></g></g><g><g><g><path stroke="#000" stroke-miterlimit="10" d="M582.9 272.6c-.1.2-1.5 0-3.8-1.1-1.1-.5-2.5-1.3-4-2.2-1.5-.9-3.2-2-5-3.1-1.9-1.1-3.9-2.1-6.3-2.6-2.4-.6-5-.8-7.8-.7-2.8.1-5.7.6-8.7 1.4-3 .7-6 1.8-9.1 3.1-6.1 2.6-11.6 5.7-16.6 8.6-5 2.9-9.6 5.6-13.6 7.6-3.9 2.1-7.3 3.4-9.6 4.3-2.4.8-3.7 1.1-3.8.9-.1-.2 1.1-.9 3.3-2 2.2-1.2 5.3-2.8 9-5.1 3.8-2.2 8.2-5.1 13.1-8.2 5-3.1 10.6-6.4 16.9-9.1 3.2-1.3 6.4-2.4 9.6-3.2 3.2-.8 6.3-1.3 9.4-1.3 3-.1 6 .3 8.6 1.1 2.6.8 4.9 2 6.8 3.3 1.9 1.3 3.5 2.5 4.8 3.6 1.4 1.1 2.6 1.9 3.6 2.6 2.1 1.3 3.3 1.8 3.2 2.1z"></path></g></g></g><g><g><g><path stroke="#000" stroke-miterlimit="10" d="M594.1 280.8c-.5-.1 0-2.7.7-6.8.4-2 .8-4.4 1-7 .1-1.3.1-2.7 0-4.1 0-.7-.1-1.4-.2-2.1-.1-.7-.2-1.5-.4-2-.2-.6-.5-1.1-.7-1.3-.2-.2-.3-.2-.7-.2-.4.1-.9.3-1.4.7-.5.3-1 .7-1.5 1.1-1.8 1.6-2.9 3.7-3.5 5.5-1.2 3.7-.6 6.2-1.1 6.4-.1 0-.3-.1-.4-.4-.2-.3-.4-.7-.6-1.3-.3-1.2-.6-3-.2-5.3.4-2.2 1.5-4.8 3.7-7 .5-.6 1.1-1.1 1.8-1.5.7-.5 1.4-1 2.5-1.2.5-.1 1.2-.1 1.8 0 .6.2 1.2.5 1.7.9.9.9 1.3 1.8 1.6 2.7.3.9.4 1.7.5 2.6.1.8.2 1.6.2 2.4 0 1.6 0 3.1-.2 4.5-.4 2.8-1 5.3-1.7 7.3-1.3 3.9-2.5 6.2-2.9 6.1z"></path></g></g></g><g><g><g><path stroke="#000" stroke-miterlimit="10" d="M603.2 291.3c-.1-.5 1.3-1.1 2.9-2.5.8-.7 1.6-1.8 2.2-2.9.1-.3.2-.5.2-.7 0-.2 0-.2-.1-.4-.1-.3-.7-1-1.2-1.5-1.1-1-2.5-1.5-3.9-1.8-1.4-.2-2.6-.2-3.7 0-2.1.4-3.4 1.3-3.7 1-.2-.1 0-.6.4-1.2.5-.6 1.3-1.4 2.6-1.9 1.3-.6 2.9-.9 4.8-.8 1.8.2 3.9.8 5.7 2.3.8.8 1.6 1.5 2.1 2.8.2.6.3 1.5.1 2.1-.1.7-.4 1.2-.7 1.6-1 1.6-2.3 2.7-3.5 3.4-1.2.7-2.3.9-3 1-.7-.1-1.2-.3-1.2-.5z"></path></g></g></g><g><g><g><path stroke="#000" stroke-miterlimit="10" d="M512.6 381c-.3.3-1.3-.1-2.5-1.2-1.2-1.1-2.5-2.8-3.6-5s-1.7-4.3-1.8-5.9c-.2-1.6.1-2.6.5-2.7.9-.2 2.3 3.2 4.3 7.1 1.9 4 3.8 7.1 3.1 7.7z"></path></g></g></g><g><g><g><path stroke="#000" stroke-miterlimit="10" d="M509.1 356.2c.5.8-2.1 3.4-4.4 7.1-2.4 3.7-3.5 7.2-4.5 7-.4-.1-.7-1.1-.5-2.8.2-1.6.9-3.9 2.2-6 1.4-2.1 3.1-3.7 4.5-4.6 1.4-.8 2.5-1.1 2.7-.7z"></path></g></g></g><g><g><g><path stroke="#000" stroke-miterlimit="10" d="M537.5 400.7c.4 0 .8 2.2.5 5.7-.3 3.5-1.5 8.4-4 13.2-1.3 2.4-2.7 4.6-4.5 6.4-.9.9-2 1.6-3 2.1-1.1.5-2.2.7-3.2.7-2 0-3.6-.9-4.3-1.7-.8-.8-.8-1.5-.6-1.6.2-.1.6.2 1.4.6.8.3 2 .6 3.4.4.7-.1 1.5-.4 2.2-.8.7-.4 1.4-1 2.1-1.8 1.4-1.5 2.6-3.6 3.8-5.8 2.4-4.5 3.8-8.9 4.7-12.1.6-3.2 1.1-5.3 1.5-5.3z"></path></g></g></g><g><g><g><path stroke="#000" stroke-miterlimit="10" d="M513.6 415.3c.1.2-.2.6-1 1.1-.8.5-2 1.1-3.7 1.3-1.7.3-3.9.2-6.1-.9-1.1-.6-2.1-1.4-2.9-2.4-.8-1-1.4-2.2-1.9-3.4-.9-2.5-1.2-4.8-1.3-6.9-.1-2.2.1-4.1.5-5.7.8-3.3 2.4-4.8 2.7-4.6.4.2-.3 2-.4 4.9-.1 1.5 0 3.2.2 5.1.3 1.9.6 4.1 1.4 6.1.7 2 1.8 3.5 3.2 4.4 1.4.9 3.1 1.2 4.5 1.2 2.8 0 4.6-.7 4.8-.2z"></path></g></g></g><g><g><g><path stroke="#000" stroke-miterlimit="10" d="M714.3 586.1c-.1.1-1.5-.9-3.7-3.2-2.2-2.2-5.1-5.7-8.3-10.2-3.2-4.6-6.5-10.3-9.6-17-3.1-6.7-5.9-14.3-8.2-22.5-4.5-16.4-6.3-31.6-7.3-42.6s-1.2-17.8-.8-17.9c.5 0 1.5 6.7 3.1 17.6 1.6 10.9 3.8 25.9 8.2 42 2.2 8 4.9 15.5 7.8 22.1 2.9 6.6 6 12.3 8.8 17 5.7 9.4 10.4 14.4 10 14.7z"></path></g></g></g><g><g><g><path stroke="#000" stroke-miterlimit="10" d="M714.5 625.1c-.4.1-1.5-2.2-2.8-6.1-1.2-3.9-2.5-9.5-3.2-15.7-.7-6.2-.7-12-.3-16.1.3-4.1.9-6.6 1.4-6.6.9.1.8 10.1 2.2 22.3 1.3 12.2 3.6 22 2.7 22.2z"></path></g></g></g><g><g><g><path stroke="#000" stroke-miterlimit="10" d="M803 542.3c-.4 0-.9-4.4-.7-11.6.1-1.8.2-3.8.3-5.8.1-2.1.4-4.3.7-6.7.6-4.7 1.6-9.8 2.9-15.2 1.3-5.3 2.9-10.3 4.5-14.8.8-2.2 1.6-4.3 2.5-6.3.8-2 1.6-3.7 2.4-5.4 3.1-6.5 5.6-10.2 5.9-10 .9.4-7 16.2-12.1 37.1-5.1 21.1-5.4 38.7-6.4 38.7z"></path></g></g></g><g><g><g><path stroke="#000" stroke-miterlimit="10" d="M810.6 587.5c-.5-.1-.1-3.8.1-9.8.1-1.5.1-3.1.1-4.9 0-1.7 0-3.6-.1-5.6-.1-3.9-.4-8.2-1-12.7s-1.4-8.7-2.3-12.6c-.5-1.9-.9-3.7-1.4-5.4-.4-1.7-.9-3.3-1.3-4.7-1.7-5.7-3.1-9.2-2.6-9.4.4-.2 2.4 3 4.8 8.6.6 1.4 1.2 3 1.8 4.7.6 1.7 1.1 3.5 1.7 5.5 1 3.9 2 8.2 2.6 12.9.6 4.6.8 9.1.8 13.1-.1 2-.1 3.9-.3 5.7-.1 1.8-.3 3.4-.5 5-.8 6.1-2 9.7-2.4 9.6z"></path></g></g></g><g><g><g><path stroke="#000" stroke-miterlimit="10" d="M816.3 595c.2.3-4.1 4.7-12.3 10.3-8.1 5.7-20.4 12.3-34.9 16.8-7.3 2.2-14.3 3.8-20.9 4.7-6.5.9-12.4 1.2-17.4 1.2-5 0-9-.4-11.8-1.1-2.7-.7-4.1-1.5-4-1.7.1-.2 1.6.1 4.3.4 2.7.3 6.6.4 11.5.1 4.9-.2 10.7-.8 17-1.9 6.4-1 13.3-2.6 20.4-4.8 14.2-4.4 26.3-10.5 34.6-15.6 8.4-5.1 13.2-8.8 13.5-8.4z"></path></g></g></g><g><g><g><path stroke="#000" stroke-miterlimit="10" d="M620.2 554.9c-.4 0-1.5-5.8-1.8-15.3 0-1.2-.1-2.4-.1-3.8 0-1.3 0-2.7.1-4.1 0-2.8.3-5.8.5-9 .6-6.3 1.5-13.2 3.1-20.4 1.6-7.1 3.6-13.8 5.7-19.8 1.1-3 2.2-5.8 3.3-8.3.6-1.3 1.1-2.5 1.6-3.7.6-1.2 1.1-2.3 1.6-3.4 4.3-8.6 7.7-13.4 8.1-13.2.4.3-2.3 5.5-6 14.1-.5 1.1-.9 2.2-1.4 3.4-.5 1.2-.9 2.5-1.4 3.7-1 2.6-2 5.4-3 8.3-1.9 5.9-3.8 12.5-5.4 19.5-1.5 7-2.6 13.8-3.3 20-.3 3.1-.6 6-.8 8.8-.1 1.4-.2 2.7-.3 4 0 1.3-.1 2.5-.1 3.7-.2 9.6.1 15.5-.4 15.5z"></path></g></g></g><g><g><g><path stroke="#000" stroke-miterlimit="10" d="M606.5 593c-.4 0-.9-2.5-.9-6.6 0-2 .3-4.5.7-7.1.5-2.7 1.2-5.5 2.2-8.5 1-2.9 2.3-5.7 3.5-8 1.3-2.4 2.6-4.4 3.8-6 2.5-3.3 4.4-4.9 4.7-4.6.8.6-5.2 8.5-9 19.8-3.9 11.2-4.1 21-5 21z"></path></g></g></g><g><g><g><path stroke="#000" stroke-miterlimit="10" d="M700.4 624.5c-.3.4-5-2.8-13-7.1-1-.5-2.1-1.1-3.2-1.7-1.1-.6-2.3-1.1-3.5-1.7-2.4-1.2-5-2.3-7.8-3.5-5.5-2.3-11.7-4.5-18.4-6.6-6.6-2-13.1-3.6-18.9-5-5.9-1.3-11.2-2.4-15.7-3.2-9-1.7-14.6-2.7-14.5-3.2.1-.4 5.7-.2 14.9.9 4.6.6 10 1.4 15.9 2.6 6 1.2 12.5 2.7 19.2 4.8 6.7 2.1 13 4.5 18.6 6.9 2.8 1.3 5.4 2.5 7.8 3.8 1.2.6 2.4 1.2 3.5 1.9s2.1 1.3 3.1 1.9c2 1.2 3.7 2.4 5.2 3.4.7.5 1.5 1 2.1 1.5.6.5 1.2.9 1.7 1.4 2.1 1.7 3.1 2.7 3 2.9z"></path></g></g></g><g><g><g><path stroke="#000" stroke-miterlimit="10" d="M632.7 721.2c-.4-.3 3.3-5.7 8.3-14.9 5.1-9.2 11.2-22.3 17.2-37.2 3-7.4 5.7-14.6 8.3-21.1 2.5-6.5 4.8-12.3 6.4-17.3 3.3-9.9 3.4-16.5 3.9-16.5.2 0 .4 1.6.3 4.6-.1 3-.7 7.3-2.1 12.5-1.3 5.2-3.4 11.1-5.8 17.7s-5 13.8-8 21.3c-6 15-12.6 28.2-18.2 37.1-5.7 9.1-10 14-10.3 13.8z"></path></g></g></g><g><g><g><path stroke="#000" stroke-miterlimit="10" d="M595.8 706c-.4 0-.7-6.3-.3-16.5.2-5.1.6-11.2 1.3-17.9.7-6.7 1.7-14.1 3.1-21.7 1.4-7.7 3-14.9 4.6-21.5 1.7-6.5 3.3-12.4 4.9-17.2 3.1-9.7 5.6-15.5 6-15.4.5.2-1.3 6.2-3.8 16-1.3 4.9-2.7 10.8-4.2 17.3s-3 13.7-4.3 21.3c-1.3 7.6-2.4 14.9-3.3 21.5-.9 6.6-1.5 12.6-2 17.7-1 10.1-1.5 16.4-2 16.4z"></path></g></g></g><g><g><g><path stroke="#000" stroke-miterlimit="10" d="M562.1 865.3c-.1 0-.1-.6-.1-1.7 0-.6.1-1.3.2-2.1s.3-1.7.5-2.8c.4-2.1 1.2-4.6 2.2-7.5 1.1-2.8 2.5-6 4.5-9.3 1.9-3.3 4.2-6.8 6.9-10.4 2.7-3.6 5.7-7.3 9-11.1 3.2-3.8 6.7-7.8 10.1-12 3.5-4.2 7-8.5 10.5-13.1 7.1-9.1 13.5-17.9 18.4-26.5 5-8.6 8.3-16.8 10.3-24 2-7.2 2.7-13.2 2.9-17.4.2-4.2.1-6.5.4-6.6.2 0 .7 2.3.9 6.6.2 4.3-.2 10.5-2 18s-5 16.1-10 24.9c-4.9 8.9-11.3 17.9-18.5 27-3.6 4.6-7.1 8.9-10.7 13.1-3.5 4.2-7 8.1-10.3 11.9-3.3 3.8-6.4 7.3-9.1 10.8-2.7 3.5-5.1 6.8-7.1 10-2 3.1-3.5 6.2-4.8 8.8-1.2 2.7-2.1 5.1-2.7 7.1-.3 1-.5 1.9-.8 2.7-.2.8-.3 1.5-.5 2 .1 1-.1 1.6-.2 1.6z"></path></g></g></g><g><g><g><path stroke="#000" stroke-miterlimit="10" d="M521.6 857.1c-.4-.3 5.5-7 12.3-19.6 3.5-6.2 7.2-13.9 11.4-22.4 4.2-8.5 8.7-17.9 13.4-27.8 9.4-19.7 17.7-37.7 23.7-50.7 3-6.5 5.5-11.8 7.2-15.4 1.7-3.6 2.8-5.6 3-5.5.2.1-.5 2.2-1.9 6s-3.5 9.2-6.3 15.8c-5.5 13.3-13.5 31.4-22.9 51.2-4.7 9.9-9.4 19.2-13.7 27.7-4.3 8.4-8.3 16.1-12 22.2-3.7 6.2-7.2 10.9-9.9 14-2.5 3.2-4.1 4.7-4.3 4.5z"></path></g></g></g><g><g><g><path stroke="#000" stroke-miterlimit="10" d="M523.8 853.7c.2.5-1.8 1.6-4.6 3.7-1.4 1.1-3 2.4-4.7 4-1.7 1.6-3.4 3.4-5.2 5.5-3.5 4.1-6.6 8-8.9 10.8-2.4 2.7-4 4.3-4.4 4.1-.4-.3.6-2.3 2.5-5.4 1.9-3.1 4.7-7.3 8.4-11.5 1.9-2.1 3.8-4 5.7-5.6 1.9-1.6 3.8-2.8 5.4-3.7 3.4-1.9 5.7-2.2 5.8-1.9z"></path></g></g></g><g><g><g><path stroke="#000" stroke-miterlimit="10" d="M495.1 881.5c.2.9-15 5.4-33.4 12.5-4.6 1.7-8.9 3.5-12.9 5.1-2 .8-3.7 1.5-4.3 2.6-.3.6-.5 1.2-.4 1.6.1.4.4.9 1 1.2.5.4 1.2.6 1.8.9.6.2 1.3.4 1.8.6 1.2.3 2.2.5 3.1.6 1.7.2 2.8.2 2.8.5 0 .2-.9.6-2.8.8-.9.1-2.1.1-3.4-.1-.7-.1-1.4-.2-2.1-.4-.7-.2-1.5-.4-2.4-.9-.8-.4-1.8-1.2-2.2-2.5-.4-1.3-.2-2.6.4-3.7.6-1.1 1.5-2 2.5-2.6 1-.6 2-1.1 3-1.5 3.9-1.8 8.3-3.6 12.9-5.3 18.6-7.1 34.5-10.3 34.6-9.4z"></path></g></g></g><g><g><g><path stroke="#000" stroke-miterlimit="10" d="M495.7 893c0 1-10.3 1.1-21.8 5.6-4.6 1.8-8.6 3.8-11.8 5.7-3.2 1.9-5.5 3.5-6.9 4.3l.2-.5c0 .2.1.4.1.6.1.1.2.2.2.3 0 .1-.1.2-.4.1-.3 0-.7-.2-.9-.8l-.1-.2.2-.3c1-1.2 3-3.4 6.1-5.7 3.1-2.3 7.3-4.7 12.1-6.5 3-1.2 6-2 8.8-2.5 2.8-.5 5.3-.8 7.4-.8 4.3-.2 6.8.3 6.8.7z"></path></g></g></g><g><g><g><path stroke="#000" stroke-miterlimit="10" d="M541.6 888.9c0 .2-1.2.6-3.4 1.3-2.2.7-5.4 1.7-9.1 3.4-1.9.9-3.9 1.9-5.9 3.1-2.1 1.2-4.1 2.7-6.4 4.3-1.2.8-2.4 1.6-3.7 2.3-1.3.7-2.8 1.4-4.3 1.9-3 1.1-6.1 1.7-9.2 2.4-6.3 1.3-12.2 2.5-17.7 3.5-5.4 1.1-10.4 1.9-14.7 2-4.3.2-7.8-.4-10.1-1.1-2.3-.7-3.4-1.4-3.4-1.6.1-.2 1.4.1 3.6.4 2.3.3 5.6.5 9.7 0 4.1-.4 8.9-1.4 14.3-2.7 5.4-1.2 11.4-2.5 17.6-3.8 3.1-.6 6.1-1.3 8.8-2.2 2.7-.9 5.1-2.2 7.4-3.7 2.3-1.5 4.5-3 6.8-4.2 2.2-1.2 4.4-2.1 6.4-2.9 4-1.5 7.4-2.2 9.8-2.5 2.2-.1 3.5-.1 3.5.1z"></path></g></g></g><g><g><g><path stroke="#000" stroke-miterlimit="10" d="M560.5 910.4c0 .4-1.8.7-4.6-.1-2.7-.7-6.4-2.6-9.3-6-1.4-1.7-2.5-3.5-3.2-5.3-.7-1.8-1-3.4-1.4-4.7-.5-2.6-1.1-4-.7-4.3.2-.1.6.1 1.1.7.5.6 1.2 1.6 1.7 2.8.6 1.2 1.2 2.7 1.9 4.2s1.7 3 3 4.4c2.5 2.9 5.4 4.8 7.6 6 2.4 1.3 4 1.8 3.9 2.3z"></path></g></g></g><g><g><g><path stroke="#000" stroke-miterlimit="10" d="M560.8 890.1c-.9-.3.1-6.2 1.1-13.5.5-3.7.9-7 1.2-9.4.2-1.2.3-2 .3-2.6 0-.6-.2-.9 0-1.1.1-.2.7-.1 1.2.6s.8 1.9.9 3.2c.2 2.5.2 6-.3 9.8-1.1 7.5-3.6 13.3-4.4 13z"></path></g></g></g><g><g><g><path stroke="#000" stroke-miterlimit="10" d="M566.6 904.3c-.3-.4.3-1.3.6-2.8.3-1.5.2-3.7-.8-5.8-1-2.2-2.6-3.9-3.7-5.3s-1.8-2.4-1.5-2.8c.3-.3 1.4 0 3 1.1 1.6 1 3.7 2.8 5.1 5.7 1.4 3 1.1 6.2 0 8-.5.9-1.2 1.6-1.7 1.8-.5.2-.9.2-1 .1z"></path></g></g></g><g><g><g><path stroke="#000" stroke-miterlimit="10" d="M719.4 881.3c-.2-.2 2.2-3.4 6.2-9.5s9.5-15.2 15.8-26.7c6.3-11.5 13.9-25.2 21.9-40.6 8-15.4 16.3-32.5 23.7-51.1 7.4-18.6 12.8-36.8 16.2-53.8 1.7-8.5 2.8-16.6 3.5-24.2.4-3.8.6-7.5.8-11.1 0-1.8.1-3.5.1-5.2 0-.9 0-1.7.1-2.5v-2.5c-.1-13.1-1.4-23.6-2.6-30.8-.3-1.8-.5-3.4-.8-4.8-.3-1.4-.5-2.6-.7-3.5-.3-1.9-.5-2.9-.4-2.9.1 0 .5.9 1 2.8.3.9.6 2.1 1 3.5s.7 3 1.1 4.8c1.6 7.2 3.2 17.8 3.6 31 0 .8.1 1.7.1 2.5v7.9c-.2 3.6-.3 7.4-.6 11.2-.6 7.7-1.6 16-3.3 24.6-3.2 17.2-8.6 35.7-16.1 54.4-7.4 18.7-15.9 35.9-24 51.3-8.2 15.4-15.9 28.9-22.5 40.3-6.6 11.4-12.4 20.4-16.7 26.3-2.2 3-4 5.2-5.2 6.7-1.4 1.2-2.1 2-2.2 1.9z"></path></g></g></g><g><g><g><path stroke="#000" stroke-miterlimit="10" d="M750.4 705.1c-.8.3-8.5-15.9-14.3-37.3-5.8-21.3-7.4-39.3-6.5-39.4 1-.1 3.9 17.4 9.7 38.5 5.7 21.2 12 37.9 11.1 38.2z"></path></g></g></g><g><g><g><path stroke="#000" stroke-miterlimit="10" d="M689 892.3c-.2 0 .1-2.7.9-7.6.2-1.2.4-2.6.7-4 .3-1.5.6-3.1.9-4.8.7-3.4 1.4-7.4 2.4-11.7.5-2.2 1-4.4 1.5-6.8.5-2.3 1.1-4.8 1.8-7.3 1.2-5 2.6-10.4 4.2-16 3.1-11.2 6.9-23.5 11.2-36.2 4.4-12.7 9.1-24.7 13.5-35.4 2.3-5.4 4.4-10.5 6.6-15.2 1.1-2.4 2.1-4.6 3.1-6.8s2-4.2 3-6.2c1.9-4 3.7-7.5 5.3-10.6.8-1.6 1.6-3 2.3-4.3.7-1.3 1.4-2.5 2-3.6 2.4-4.3 3.8-6.6 4-6.5.2.1-.8 2.6-2.9 7.1-.5 1.1-1.1 2.4-1.7 3.7-.6 1.4-1.3 2.8-2 4.4-1.4 3.2-3.1 6.8-4.9 10.8-.9 2-1.8 4.1-2.8 6.3-1 2.2-1.9 4.5-2.9 6.9-2.1 4.7-4.1 9.8-6.3 15.2-4.3 10.8-8.8 22.7-13.2 35.3-4.4 12.7-8.2 24.8-11.4 36-1.6 5.6-3.1 10.9-4.4 15.9-.7 2.5-1.3 4.9-1.9 7.2-.6 2.3-1.2 4.6-1.7 6.7-1.1 4.2-2 8.1-2.8 11.5-.4 1.7-.8 3.3-1.2 4.7-.3 1.5-.7 2.8-.9 4-1.4 4.8-2.2 7.4-2.4 7.3z"></path></g></g></g><g><g><g><path stroke="#000" stroke-miterlimit="10" d="M628.3 952.2c-.2-.1 0-1.2.9-3.1.9-1.9 2.5-4.5 5.1-7.2 2.6-2.7 6.1-5.5 10.1-8.1 4-2.7 8.6-5.3 13-8.4 4.4-3.1 8.1-6.7 11.2-10.2 3.1-3.5 5.5-7 7.4-10 3.8-6.1 5.6-10.2 6.1-10 .4.1-.7 4.6-4.1 11.1-1.7 3.3-4 7-7.1 10.8-3.1 3.8-7 7.6-11.6 10.9-4.6 3.3-9.3 5.8-13.3 8.3-4.1 2.4-7.5 4.9-10.1 7.2-5.3 4.8-7.2 8.9-7.6 8.7z"></path></g></g></g><g><g><g><path stroke="#000" stroke-miterlimit="10" d="M685.4 949c-.1.2-.9-.1-2.4-.6-1.4-.5-3.5-1.2-6.1-1.5-2.6-.4-5.7-.2-8.8 1-3.2 1.2-6.5 3.3-10.3 5.4-3.8 2.1-7.6 3.7-11.1 4.9-1.8.6-3.5 1.1-5.1 1.5-1.6.4-3.2.7-4.6.8-2.9.3-5.4-.4-6.8-1.3-1.4-.9-1.8-1.8-1.7-1.9.2-.2.9.4 2.2.8 1.3.4 3.4.6 6 .1 1.3-.2 2.7-.6 4.2-1.1 1.5-.5 3.1-1.1 4.8-1.7 3.3-1.3 6.9-2.9 10.5-4.9 3.6-2 7.1-4.2 10.8-5.4 1.8-.6 3.7-.9 5.5-1 1.8 0 3.4.2 4.8.5 2.8.7 4.9 1.8 6.2 2.6 1.3.9 2 1.6 1.9 1.8z"></path></g></g></g><g><g><g><path stroke="#000" stroke-miterlimit="10" d="M730.3 992.6c0 .2-1.2.3-3.1 0-2-.3-4.8-.9-8.2-2.1-3.4-1.2-7.3-3-11.3-5.5-4-2.6-8.1-6-11.7-10.1-3.6-4.1-6.6-8.2-9.5-11.9-2.8-3.7-5.4-6.8-7.8-9.3-2.4-2.5-4.5-4.2-6.1-5.4-1.6-1.1-2.4-1.8-2.3-2 .1-.2 1.2.1 3 .9 1.8.9 4.3 2.4 7 4.8 2.7 2.3 5.6 5.5 8.6 9.1 3 3.6 6 7.7 9.5 11.6 3.5 3.9 7.2 7.2 10.9 9.8 3.7 2.6 7.3 4.5 10.5 5.9 3.1 1.4 5.8 2.3 7.6 3 1.9.6 3 .9 2.9 1.2z"></path></g></g></g><g><g><g><path stroke="#000" stroke-miterlimit="10" d="M713.9 963.2c-.3.3-1.4-.3-2.7-1.8-1.3-1.4-2.7-3.8-3.5-6.6-.8-2.9-.9-5.6-.5-7.5.3-1.9.9-3 1.4-2.9.9.2.8 4.5 2.3 9.5 1.3 5 3.7 8.6 3 9.3z"></path></g></g></g><g><g><g><path stroke="#000" stroke-miterlimit="10" d="M731.4 987.9c-.5.1-1.2-1.8-2.7-4.6-1.5-2.8-3.7-6.6-6.9-10.1-1.6-1.8-3.3-3.4-4.9-4.9-1.5-1.6-2.9-3.1-3.8-4.5-2-2.8-2.4-5-2-5.2.4-.2 1.5 1.5 3.8 3.7 1.1 1.1 2.5 2.4 4.1 3.8 1.6 1.4 3.4 3 5.2 4.9 3.5 3.9 5.7 8.2 6.6 11.4 1 3.3 1 5.4.6 5.5z"></path></g></g></g><g><g><g><path stroke="#000" stroke-miterlimit="10" d="M751.4 948c-.2-.1 0-1 .2-2.7.1-1.6 0-4.1-.9-6.8-1-2.8-2.7-5.9-5.3-8.9-2.5-3.1-5.8-6.3-8.7-10.3-2.9-4.1-4.5-8.6-5.7-12.6-1.2-4-2-7.6-2.9-10.5-1.7-5.9-3.7-9.1-3.3-9.4.2-.1.9.5 2 2 1.1 1.4 2.3 3.7 3.5 6.7 1.2 2.9 2.3 6.5 3.6 10.4 1.3 3.9 2.9 7.9 5.5 11.6 2.6 3.7 5.8 7 8.4 10.3 2.6 3.3 4.4 6.9 5.2 10.1.8 3.2.5 6 0 7.7-.7 1.7-1.4 2.4-1.6 2.4z"></path></g></g></g><g><g><g><path stroke="#000" stroke-miterlimit="10" d="M741 962.7c-.2-.1-.1-.6.2-1.5.4-.8 1.2-1.9 2.2-3.1 1-1.2 2.2-2.4 3-3.9.8-1.4 1.1-3.3.9-5.4-.2-2.1-.7-4.2-1.1-6.2-.4-1.9-.8-3.6-1.2-5-.9-2.7-2-4.2-1.7-4.5.1-.2.7 0 1.4.6s1.6 1.6 2.4 3c.8 1.4 1.5 3.2 2.1 5.2.5 1.9 1.2 4.1 1.4 6.6.2 2.5-.2 5.2-1.6 7.2-1.3 1.9-2.9 3.1-4 4-1.2.9-2.1 1.6-2.8 2.2-.6.6-1 .9-1.2.8z"></path></g></g></g><g><g><g><path stroke="#000" stroke-miterlimit="10" d="M732.2 969.5c-.3-.4 1.1-1.6 2.7-3.8.8-1.1 1.6-2.5 2-4 .4-1.6.4-3.4-.1-5.2-.5-1.9-1.4-3.7-2.3-5.2-.9-1.6-1.9-2.9-2.7-4-1.7-2.2-2.9-3.6-2.6-3.9.3-.3 2 .4 4.3 2.4 1.1 1 2.4 2.3 3.5 4 1.1 1.6 2.3 3.6 2.9 6 .6 2.4.6 4.9-.2 7-.7 2.1-2 3.6-3.1 4.6-2.4 1.9-4.2 2.4-4.4 2.1z"></path></g></g></g><g><g><g><path stroke="#000" stroke-miterlimit="10" d="M734.9 967.2c.3.3 0 1.2-.8 2.2-.8 1-2.3 2.4-4.5 3.1-2.3.7-4.6 0-5.8-1.1-.3-.3-.5-.5-.7-.8-.1-.1-.2-.3-.2-.4 0-.1-.1-.2-.1-.3v-.2c0-.1-.1-.2-.1-.4s.2-.3.3-.4c.3-.1.4 0 .5.1.1.1.2.3.1.4-.1.1-.1 0-.2 0s-.1-.1-.1 0v.1c0 .1 0 .1-.1-.1 0-.1-.1 0 0-.1-.3.2.4-.3.3-.3h.1c.1 0 .2.1.3.1.1 0 .2 0 .3.1.2.1.4.1.7.2.9.2 2.3.3 3.7-.1 1.4-.4 2.8-1.2 4-1.7 1.1-.5 2-.7 2.3-.4z"></path></g></g></g><g><g><g><path stroke="#000" stroke-miterlimit="10" d="M984.3 482.3c-.1.2-2.6-.4-7.1-1.5s-11-2.6-19.2-3.6c-8.2-1.1-18-1.7-28.8-.9-5.4.4-11.1 1.1-16.9 2.2-2.9.5-5.8 1.2-8.8 1.9l-4.5 1.2c-1.5.4-3 .8-4.5 1.3-6 1.8-11.7 4.1-17.1 6.5-5.4 2.5-10.5 5.1-15.4 7.5-4.9 2.5-9.7 4.7-14.2 6.6-4.6 1.9-8.9 3.5-12.9 4.7-2 .6-3.9 1.2-5.7 1.7-1.8.5-3.5 1-5.1 1.3-3.2.8-6 1.3-8.3 1.7-4.6.8-7.2 1-7.2.8 0-.2 2.5-.9 6.9-2 2.2-.6 5-1.3 8.1-2.3 1.6-.5 3.2-1 5-1.6 1.8-.5 3.6-1.2 5.6-1.9 3.9-1.3 8.1-3.1 12.5-5 4.4-2 9.1-4.3 13.9-6.8 4.9-2.5 10-5.2 15.4-7.8 5.5-2.5 11.3-4.9 17.4-6.7 1.5-.5 3.1-.9 4.6-1.3 1.5-.4 3-.8 4.6-1.2 3-.7 6-1.4 9-1.9 5.9-1.1 11.7-1.8 17.3-2.1 11.1-.6 21.1.3 29.3 1.7 8.3 1.4 14.8 3.2 19.2 4.7 4.6 1.5 6.9 2.6 6.9 2.8z"></path></g></g></g><g><g><g><path stroke="#000" stroke-miterlimit="10" d="M867.6 674.1c-.1 0 0-.8.2-2.4.2-1.6.5-3.9 1.2-6.8 1.2-5.9 3.5-14.3 7.4-24.2 3.9-10 9.5-21.5 16.8-33.7 3.6-6.1 7.7-12.3 12.1-18.7 4.4-6.3 9.1-12.7 14.1-19.2 10-12.9 19.9-24.8 28.9-35.7 9-10.9 16.9-20.7 23.3-29.2 3.2-4.2 6.1-8.1 8.6-11.5 2.5-3.4 4.3-6.5 5.3-9.2 1-2.7 1.1-5 1-6.5-.2-1.5-.5-2.3-.4-2.3.1 0 .6.7 1 2.2.4 1.6.5 4.1-.4 7-.9 3-2.7 6.3-5 9.8-2.3 3.5-5.1 7.5-8.2 11.9-6.2 8.7-14 18.7-22.9 29.7-8.8 11-18.7 22.9-28.6 35.8-5 6.4-9.7 12.8-14.1 19-4.4 6.2-8.4 12.4-12.1 18.4-7.4 11.9-13 23.2-17.2 33-4.2 9.7-6.7 18-8.3 23.7-.9 2.8-1.4 5.1-1.8 6.6-.5 1.6-.8 2.3-.9 2.3z"></path></g></g></g><g><g><g><path stroke="#000" stroke-miterlimit="10" d="M1035.1 676.8c-.1 0 .2-1.3 1-3.7.4-1.2.9-2.6 1.5-4.4.6-1.7 1.5-3.6 2.4-5.8 3.7-8.7 10.2-20.9 20.2-34.5 5-6.8 10.9-14 17.5-21.4 6.6-7.4 14-15.1 21.8-23 7.9-7.8 16.2-16.1 24.8-24.6 8.5-8.6 17.1-17.6 24.5-28 3.6-5.2 7-10.5 9.8-16 .7-1.4 1.4-2.8 2-4.1l1-2.1.9-2.1 1.8-4.2c.5-1.4 1-2.8 1.6-4.2 2-5.6 3.7-11.3 4.8-16.9.7-2.8 1.1-5.6 1.6-8.4.2-1.4.4-2.8.5-4.2.2-1.4.4-2.8.4-4.1 2-22-1.6-42-7.9-57.4-3.1-7.7-6.8-14.4-10.5-19.8-3.8-5.5-7.6-9.7-10.9-13-6.7-6.5-11.3-9.1-11.1-9.4.1-.1 1.2.5 3.3 1.8 1.1.6 2.3 1.6 3.8 2.6s3.1 2.5 4.9 4c3.5 3.2 7.5 7.4 11.5 12.9s7.9 12.2 11.2 20c6.7 15.6 10.6 36.1 8.7 58.6-.1 1.4-.3 2.8-.4 4.2-.2 1.4-.3 2.8-.5 4.3-.5 2.8-.9 5.7-1.6 8.6-1.2 5.8-2.9 11.6-4.9 17.4-.5 1.4-1.1 2.9-1.6 4.3-.6 1.4-1.2 2.9-1.8 4.3-.3.7-.6 1.4-.9 2.2l-1 2.1c-.7 1.4-1.3 2.9-2.1 4.3-2.9 5.6-6.3 11.1-10 16.4-7.6 10.6-16.4 19.7-24.9 28.3-8.6 8.5-17 16.7-24.9 24.5-7.9 7.8-15.3 15.4-21.9 22.6-6.6 7.3-12.5 14.3-17.7 21-10.2 13.3-16.8 25.2-20.9 33.7-1 2.1-1.9 4-2.6 5.6-.7 1.7-1.3 3.1-1.7 4.2-1 2.3-1.6 3.5-1.7 3.4z"></path></g></g></g><g><g><g><path stroke="#000" stroke-miterlimit="10" d="M1157.6 730.1c-.2.1-1.7-1.2-4.4-3.9-2.6-2.7-6.2-6.9-10.2-12.3-4-5.4-8.4-12.1-12.9-19.8-4.5-7.7-9-16.4-13.6-25.5-9.2-18.3-17.3-35-23-47.1-5.7-12.1-9.1-19.7-8.7-19.9.4-.2 4.5 7 10.7 18.9 6.3 11.9 14.7 28.4 23.9 46.7 4.6 9.1 9 17.8 13.3 25.5 4.3 7.7 8.5 14.5 12.2 20 7.5 10.9 13.1 17 12.7 17.4z"></path></g></g></g><g><g><g><path stroke="#000" stroke-miterlimit="10" d="M1232.2 631.6c-.1.1-.6-.3-1.4-1.1l-1.5-1.5c-.6-.6-1.2-1.3-2-2.1-2.9-3.2-7-8.1-11.2-14.7-4.3-6.5-8.8-14.7-12.8-24.2-4.1-9.5-7.8-20.2-10.9-31.7-3.1-11.5-5.5-22.5-7.6-32.6-2-10-3.9-19.1-5.1-26.8-1.3-7.7-2-13.9-2.3-18.3-.3-4.3-.2-6.8 0-6.8s.6 2.4 1.2 6.6c.7 4.3 1.7 10.4 3.3 18 1.6 7.6 3.6 16.6 5.8 26.6 2.2 10 4.7 21 7.8 32.3 3.1 11.4 6.6 22 10.5 31.4 3.9 9.4 8.1 17.6 12 24.2 8 13.3 14.7 20.3 14.2 20.7z"></path></g></g></g><g><g><g><path stroke="#000" stroke-miterlimit="10" d="M1227.7 630.9c.4.3-4 5.6-10.7 14.4-1.7 2.2-3.5 4.6-5.4 7.2-2 2.6-3.9 5.4-6.1 8.4-4.2 6-8.7 12.6-13.2 19.7s-8.5 14.1-12.1 20.4c-1.7 3.2-3.4 6.2-4.9 9.1-1.5 2.9-2.9 5.6-4.2 8-5 9.9-7.9 16.1-8.4 15.9-.4-.2 1.8-6.7 6.3-16.9 1.1-2.5 2.4-5.3 3.8-8.3 1.4-3 3-6.1 4.7-9.3 3.4-6.5 7.5-13.5 12-20.7 4.5-7.2 9.1-13.8 13.5-19.8 2.2-2.9 4.3-5.7 6.4-8.3 2-2.6 4-4.9 5.8-7 7.3-8.3 12.2-13.1 12.5-12.8z"></path></g></g></g><g><g><g><path stroke="#000" stroke-miterlimit="10" d="M1029 678.1c-.1.2-2.3-.7-6.2-2.4-1-.4-2-.9-3.2-1.4-1.2-.5-2.5-1-3.9-1.5-2.8-1.1-5.9-2.4-9.6-3.6-1.8-.6-3.7-1.2-5.6-1.9-2-.6-4-1.1-6.2-1.8-2.1-.6-4.3-1.3-6.6-1.7-2.3-.5-4.7-1-7.1-1.6-9.8-1.9-20.7-3.3-32.2-3.7-11.5-.3-22.5.4-32.3 1.7-2.5.4-4.9.8-7.2 1.1-2.3.3-4.6.9-6.7 1.3-2.2.5-4.3.8-6.3 1.4-2 .5-3.9 1-5.7 1.5-3.7.9-6.9 2.1-9.8 2.9-1.4.5-2.8.9-4 1.3-1.2.5-2.3.9-3.3 1.2-4 1.5-6.2 2.2-6.3 2-.1-.2 2-1.3 5.8-3.1 1-.5 2-1 3.2-1.5 1.2-.5 2.5-1 3.9-1.5 2.8-1.1 6-2.4 9.7-3.4 1.8-.6 3.7-1.1 5.7-1.8 2-.6 4.1-1 6.3-1.6 2.2-.5 4.4-1.1 6.8-1.5 2.4-.4 4.8-.8 7.3-1.3 10-1.4 21.2-2.3 32.9-2 11.7.4 22.8 2 32.7 4 2.5.6 4.9 1.2 7.2 1.7s4.5 1.3 6.7 1.9c2.1.7 4.2 1.3 6.2 2s3.8 1.4 5.6 2.1c3.6 1.3 6.7 2.8 9.5 4 1.4.6 2.7 1.2 3.8 1.8 1.1.6 2.2 1.2 3.1 1.7 3.9 2.3 5.9 3.5 5.8 3.7z"></path></g></g></g><g><g><g><path stroke="#000" stroke-miterlimit="10" d="M1159.6 888.5c-.1.1-1-.7-2.8-2.2-1.7-1.5-4.3-3.8-7.5-6.7-6.5-5.8-15.8-14.3-27.9-24.2-6-4.9-12.7-10.2-20.2-15.4-7.5-5.3-15.7-10.5-24.6-15.8-17.7-10.6-37.2-22.2-57.7-34.4-20.4-12.2-40-23.8-57-35.6-17.1-11.6-31.6-23.5-42.9-34.5-11.3-10.9-19.1-21-24-28.3-1.3-1.8-2.4-3.4-3.2-4.9-.9-1.4-1.6-2.7-2.2-3.7-1.2-2-1.7-3.1-1.6-3.1s.8.9 2.2 2.8c.7.9 1.5 2.1 2.4 3.5.9 1.4 2.1 2.9 3.4 4.7 5.2 7 13.2 16.7 24.6 27.3 11.3 10.6 25.8 22.2 43 33.6 17 11.6 36.6 23.1 57 35.3 20.4 12.2 39.9 23.9 57.6 34.6 8.8 5.4 17.1 10.7 24.6 16.1 7.5 5.4 14.2 10.8 20.1 15.9 11.9 10.2 21 19 27.3 25.1l7.1 7.1c1.6 1.8 2.4 2.7 2.3 2.8z"></path></g></g></g><g><g><g><path stroke="#000" stroke-miterlimit="10" d="M1214.2 872.8c-.1.1-1-.4-2.7-1.5-.9-.5-1.9-1.2-3.2-2-.6-.4-1.3-.8-2-1.3s-1.4-1-2.2-1.6c-1.5-1.1-3.3-2.4-5.1-3.8-1.8-1.4-3.8-3.1-5.9-4.8-2.1-1.7-4.2-3.7-6.5-5.8-2.3-2-4.6-4.4-7.1-6.8-2.5-2.4-4.9-5.1-7.5-7.8-1.3-1.3-2.5-2.8-3.8-4.3-1.3-1.5-2.6-2.9-3.9-4.5-5.2-6.2-10.7-12.8-16.1-20.1-11-14.4-22.3-30.8-34.5-47.6-6.1-8.4-12.2-16.5-18.8-23.7-6.6-7.2-13.6-13.4-21.1-18.2-7.5-4.8-15.4-8-22.9-10.9-7.5-2.8-14.6-5.2-21-7.8-6.4-2.5-12-5.3-16.7-8.1-4.7-2.8-8.5-5.7-11.3-8.3-2.8-2.6-4.8-4.9-6-6.6-1.2-1.6-1.7-2.6-1.6-2.6.2-.2 2.6 3.4 8.4 8.2 2.9 2.4 6.7 5.1 11.4 7.7 4.7 2.6 10.3 5.1 16.6 7.5 6.4 2.4 13.5 4.7 21.1 7.4 7.6 2.8 15.7 6 23.5 10.9 7.8 4.8 15.1 11.2 21.9 18.5 6.7 7.3 13 15.5 19.1 23.9 12.3 16.9 23.5 33.3 34.3 47.7 5.4 7.2 10.7 13.9 15.8 20.1 1.3 1.5 2.6 3 3.8 4.5 1.3 1.5 2.5 2.9 3.7 4.3 2.5 2.7 4.8 5.4 7.2 7.8 2.4 2.4 4.6 4.8 6.8 6.9 2.2 2.1 4.3 4.2 6.3 5.9 2 1.8 3.9 3.5 5.7 5 1.8 1.5 3.4 2.8 4.9 4 .7.6 1.4 1.2 2.1 1.7.7.5 1.3 1 1.9 1.4 1.2.9 2.2 1.6 3 2.2 1.6 1.7 2.4 2.4 2.4 2.5z"></path></g></g></g><g><g><g><path stroke="#000" stroke-miterlimit="10" d="M1011.9 691.8c-.3.3-1.6-.3-3.2-2.1-.8-.9-1.5-2.1-2.2-3.4-.6-1.4-1.2-3-1.6-4.7-.7-3.4-.7-6.5-.5-8.7.2-2.2.6-3.6 1-3.6.5 0 .9 1.3 1.3 3.5.4 2.1.8 5.1 1.4 8.1.3 1.5.7 3 1.2 4.2.5 1.3.9 2.4 1.4 3.3.8 1.9 1.6 3 1.2 3.4z"></path></g></g></g><g><g><g><path stroke="#000" stroke-miterlimit="10" d="M1173.1 890.8c0 .2-1.2.8-3.4 1.6-.6.2-1.2.4-1.9.6-.7.3-1.4.5-2.2.8-1.6.6-3.4 1.2-5.3 2.1-1 .4-2 .8-3.1 1.3s-2.1 1-3.3 1.5c-2.3 1-4.6 2.3-7.1 3.6-4.9 2.7-10.2 6-15.5 9.7-10.7 7.4-19.8 15-26.4 20.4-6.6 5.4-10.8 8.7-11.2 8.3-.3-.3 3.4-4.2 9.6-10.1 6.3-5.9 15.2-13.8 26.1-21.3 5.4-3.7 10.9-7 15.9-9.6 2.6-1.2 5-2.5 7.4-3.4 1.2-.5 2.3-1 3.4-1.4 1.1-.4 2.2-.8 3.2-1.1 2-.8 3.9-1.2 5.6-1.7.8-.2 1.6-.4 2.3-.6.7-.1 1.4-.3 2-.4 2.5-.4 3.9-.5 3.9-.3z"></path></g></g></g><g><g><g><path stroke="#000" stroke-miterlimit="10" d="M1179 896.8c.1.4-.7 1.1-2.3 1.7-1.6.6-4 .9-6.6.6-1.3-.1-2.5-.4-3.6-.8-.5-.2-1-.4-1.5-.7-.5-.3-1-.7-1.4-1.2l-.2-.2c0-.1 0-.1-.1-.2-.1-.2-.1-.3-.2-.5-.1-.3-.1-.6-.1-.8 0-.5.2-.9.5-1.2.3-.3.5-.4.7-.4.2 0 .3.1.3.2.1.1 0 .2 0 .4 0 .1 0 .3.1.4.1.3.3.6.6.7.3.2 1 .3 2.1.5 1 .2 2 .3 3.1.5 4.5.6 8.3.1 8.6 1z"></path></g></g></g><g><g><g><path stroke="#000" stroke-miterlimit="10" d="M1225.8 887.3c0 .5-2.6 1-6.9 1.5-4.2.6-10.1 1.3-16.3 3-3.1.8-5.9 1.9-8.4 3.1-2.5 1.2-4.6 2.5-6.3 3.7-3.4 2.5-5.3 4.4-5.6 4.1-.3-.2.9-2.7 4.2-5.8 1.6-1.5 3.7-3.2 6.3-4.6 2.6-1.5 5.6-2.7 8.9-3.6 6.6-1.8 12.6-2.1 17-2.1 4.4-.1 7.1.3 7.1.7z"></path></g></g></g><g><g><g><path stroke="#000" stroke-miterlimit="10" d="M1254.1 922.9c-.3.3-2.8-2.2-5.6-6.9-1.4-2.4-2.9-5.3-4.3-8.6s-2.8-7-4.1-10.9c-1.3-3.9-2.7-7.4-4.6-10.1-1.9-2.7-4.3-4.5-6.6-5.7-2.3-1.2-4.3-1.7-5.7-2-1.4-.3-2.3-.4-2.3-.7 0-.2.8-.5 2.4-.6 1.6-.1 3.9.2 6.6 1.2 2.7 1 5.7 3 8.1 6 2.4 3 3.9 6.9 5.3 10.8 1.3 3.9 2.6 7.6 3.8 10.9 1.3 3.3 2.5 6.2 3.6 8.6 2.1 4.9 3.8 7.7 3.4 8z"></path></g></g></g><g><g><g><path stroke="#000" stroke-miterlimit="10" d="M1244.4 926.1c.1.5-8.6 1.9-22.5 4.1-14 2.1-33.2 5.1-54.5 8.4-21.3 3.3-40.5 6.3-54.5 8.5-3.5.5-6.6 1-9.4 1.4-2.8.4-5.4.5-7.4.1-2.1-.4-3.5-1.4-4.2-2.3-.7-.9-.7-1.5-.7-1.5.1-.1.4.4 1.1 1.1.7.6 2 1.3 3.9 1.5 1.9.2 4.2 0 6.9-.6 2.8-.6 5.9-1.2 9.3-1.9 13.9-2.7 33.1-6.2 54.4-9.5 21.3-3.3 40.7-5.8 54.7-7.4 7-.8 12.7-1.4 16.7-1.7 4-.3 6.2-.4 6.2-.2z"></path></g></g></g><g><g><g><path stroke="#000" stroke-miterlimit="10" d="M1163.4 909.9c0 .2-.7.2-1.3.8-.3.2-.6.5-.8.8-.1.1-.1.1-.1.2H1160.3c-1.2-.4-2.7-.9-4.3-1.5-.2-.1-.4-.1-.5-.2l-.3-.1c-.2-.1-.4-.1-.5-.2l-.9-.3c0-.1-.1-.3-.2-.6l-.1-.2.7 1.7v.1l.1.3.1.3c.4 1 .8 2 1.2 3.1.5 1.1.9 2.3 1.4 3.4-2.5-1.2-5.1-2.5-7.7-3.8l-2.4-1.2c-.2-.1-.4-.2-.6 0-.1.1-.1.3-.1.4v.4c0 .3.1.5.1.8.2 1.1.5 2.2.8 3.2.7 2.1 1.5 4.1 2.3 6l-2.5 1.4c-2.8-4.3-6-7.4-8.3-9.5-2.3-2.1-3.8-3.2-3.6-3.5.2-.3 1.9.4 4.7 2.1 2.7 1.8 6.3 4.8 9.6 9.2l-2.5 1.4c-.9-1.9-1.9-3.9-2.7-6.2-.4-1.1-.7-2.3-1-3.6-.1-.3-.1-.6-.2-1l-.1-.5v-.8c0-1.1.3-2.1.9-2.8.5-.5 1.1-.9 1.8-.9.7-.1 1.4.2 2.1.5.8.4 1.5.8 2.2 1.1.4.2.8.5 1.2.7-.1-.2-.1-.3-.1-.5v-.1l.2.4.4 1 .1.2c0 .1 0 .1 0 0v-.2l-.1-.2c-.2-.5-.4-1.1-.6-1.6l-.6-1.5-.1-.4v-.1l.2.6c.1.3.4 1 .3.7-.1-.4-.3-.7-.4-1.1-.5-1.4-1-2.7-1.5-4 1.6.7 3 1.4 4.5 2 .7.3 1.3.6 2 .9.3.1.6.3.9.4l.6.3c.7.4 1.4.7 2.1 1 .3.2.6.3.9.5.3.1.4.2.6.3.1.1.2.1.3.2.1 0 .1.1.2.1 0 0 0-.1.1-.1.1-.2.3-.3.5-.4.7-.4 1.2-.3 1.5-.3.3.7.4.8.4.9z"></path></g></g></g><g><g><g><path stroke="#000" stroke-miterlimit="10" d="M1491.2 837.3c-.1.1-1.1-.4-3-1.6-1.9-1.1-4.7-2.9-8.4-4.9-7.3-4.3-17.9-10.3-31.3-17.1-6.7-3.4-14.2-7-22.2-10.6-4-1.9-8.2-3.6-12.6-5.5-4.4-1.8-8.8-3.7-13.5-5.5-18.5-7.4-39.2-14.7-61.1-21.6-22-6.9-43.1-12.7-62.4-17.9-19.3-5.1-36.7-9.7-51.3-13.5-7.3-2-13.9-3.7-19.7-5.3-5.8-1.6-10.8-2.9-14.8-4.4-4-1.5-6.9-3.3-8.6-4.7-1.7-1.4-2.5-2.4-2.4-2.5.1-.1 1 .7 2.8 1.9 1.8 1.2 4.7 2.8 8.7 4.1 3.9 1.3 9 2.4 14.8 3.9 5.8 1.4 12.5 3 19.8 4.8 14.7 3.6 32.1 7.8 51.5 12.9 19.3 5 40.6 10.8 62.6 17.7 22 6.9 42.8 14.3 61.3 21.9 4.6 1.9 9.1 3.8 13.5 5.7 4.3 2 8.5 3.8 12.6 5.7 8.1 3.7 15.5 7.5 22.2 11 13.4 7.1 23.9 13.5 30.9 18.1 3.6 2.3 6.2 4.2 8.1 5.5 1.6 1 2.5 1.8 2.5 1.9z"></path></g></g></g><g><g><g><path stroke="#000" stroke-miterlimit="10" d="M1512.2 780.5c0 .1-1.2 0-3.4-.3s-5.4-.9-9.6-1.8c-2.1-.5-4.4-1-6.8-1.7-1.2-.3-2.5-.7-3.9-1.1-1.3-.4-2.7-.8-4.2-1.3-5.7-1.8-12.2-4.1-19.2-7-14-5.8-30-14.2-46.8-25-16.8-10.8-34.4-23.9-52.6-38-9.1-7-17.9-14-26.6-20.4-8.6-6.5-17.2-12.3-26-16.9-4.4-2.3-8.7-4.2-13.1-5.8-4.4-1.6-8.7-2.8-13-3.9-8.5-2.1-16.7-3.2-24.1-4-7.5-.8-14.2-1.2-20.2-1.6-6-.4-11.1-.5-15.4-1.1-4.2-.6-7.4-1.6-9.5-2.5-2-.9-3-1.7-2.9-1.7.1-.3 4.2 2.3 12.6 3 4.1.4 9.3.4 15.3.6 6 .2 12.8.4 20.3 1.1 7.5.7 15.8 1.7 24.5 3.7 4.4 1 8.8 2.2 13.3 3.8 4.5 1.6 9 3.5 13.5 5.9 9 4.6 17.8 10.5 26.5 17s17.5 13.4 26.6 20.4c18.2 14.1 35.6 27.2 52.3 38 16.6 10.9 32.4 19.4 46.1 25.4 6.9 3 13.2 5.5 18.8 7.4 1.4.5 2.8.9 4.1 1.4 1.3.4 2.6.8 3.8 1.2 2.4.8 4.7 1.4 6.7 1.9 8.4 2.1 12.9 3 12.9 3.3z"></path></g></g></g><g><g><g><path stroke="#000" stroke-miterlimit="10" d="M1511.4 827.3c-.3.2-2.4-1.9-3.9-6.4-.8-2.2-1.3-4.9-1.5-8-.2-3.1-.1-6.4.2-9.9.4-3.5.9-6.7 1.6-9.7.7-3 1.6-5.6 2.7-7.7 1-2.1 2.2-3.6 3-4.6.9-1 1.5-1.3 1.7-1.2.4.3-1.2 2.6-2.6 6.7-.7 2-1.4 4.5-1.9 7.4-.5 2.8-.9 6-1.3 9.4-.3 3.3-.5 6.5-.5 9.4.1 2.9.3 5.4.8 7.5.9 4.4 2.1 6.8 1.7 7.1z"></path></g></g></g><g><g><g><path stroke="#000" stroke-miterlimit="10" d="M1569.5 804c-.5.8-12.1-5.2-27-11-3.7-1.5-7.3-2.8-10.6-4-3.3-1.2-6.3-2.2-8.7-3.4-2.5-1.2-4.3-2.5-5.4-3.5-1.1-1-1.6-1.8-1.4-1.9.3-.4 2.9 1.6 7.8 3.3 2.4.9 5.4 1.7 8.8 2.7 3.4 1 7 2.3 10.8 3.8 15.1 5.9 26.1 13.3 25.7 14z"></path></g></g></g><g><g><g><path stroke="#000" stroke-miterlimit="10" d="M1525.3 930c-.2 0-.2-1.9 0-5.2.1-1.7.4-3.7.7-6 .1-1.2.4-2.4.6-3.7.2-1.3.4-2.7.8-4.2 1.2-5.8 3.1-12.6 5.8-20 2.7-7.4 6.2-15.3 10.3-23.3 4.1-8 8.5-15.5 12.7-22.1 2.1-3.3 4.1-6.4 6-9.3 1.8-2.9 3.4-5.6 4.6-8.3 2.4-5.2 3.1-9.9 3-13.1-.1-3.2-.6-5-.4-5 .2-.1 1.2 1.6 1.7 5 .5 3.3.1 8.4-2.1 14.1-1.1 2.8-2.6 5.8-4.4 8.8-1.8 3-3.8 6.1-5.8 9.5-4 6.6-8.3 14-12.4 22-4.1 7.9-7.6 15.7-10.4 22.9-2.8 7.2-4.9 13.8-6.4 19.5-3.1 11.2-3.8 18.5-4.3 18.4z"></path></g></g></g><g><g><g><path stroke="#000" stroke-miterlimit="10" d="M1479 896.6c-.4 0-1-3.1-.9-8.3 0-2.6.3-5.7.7-9 .5-3.4 1.2-7.1 2.1-10.9 1.9-7.6 4.3-14.3 6.2-19 1.9-4.7 3.3-7.6 3.8-7.4.4.1-.2 3.3-1.6 8.2-1.3 4.9-3.4 11.6-5.2 19.1-.9 3.7-1.7 7.3-2.3 10.6-.6 3.3-1.1 6.2-1.4 8.7-.7 4.9-.9 8-1.4 8z"></path></g></g></g><g><g><g><path stroke="#000" stroke-miterlimit="10" d="M1433.6 931.4c-.4-.1.3-3.4 3-7.9 1.4-2.2 3.3-4.8 5.6-7.3 2.4-2.5 5.3-5 8.4-7.4 3.2-2.4 6.3-4.4 9.2-6.2 2.9-1.7 5.5-3.3 7.9-4.5 2.4-1.2 4.5-1.8 6-2 1.5-.2 2.3 0 2.3.2s-.7.5-2 1-3.1 1.4-5.2 2.7c-2.1 1.3-4.6 3.1-7.4 5-2.8 1.9-5.8 4-8.9 6.3-3.1 2.3-5.9 4.6-8.3 6.9-2.4 2.3-4.3 4.5-5.9 6.5-2.9 4-4.2 6.8-4.7 6.7z"></path></g></g></g><g><g><g><path stroke="#000" stroke-miterlimit="10" d="M1512.4 928.3c.1.4-4 2-10.9 3.9s-16.5 3.9-27.3 5.1c-10.8 1.3-20.7 1.5-27.8 1.3-1.8 0-3.5-.1-4.9-.4-1.5-.3-2.7-.8-3.6-1.5-.9-.6-1.4-1.4-1.6-1.9-.2-.5-.2-.8-.1-.9.3-.1.7 1 2.3 1.7.8.4 1.9.6 3.2.7 1.3.1 2.8 0 4.6-.1 7.1-.4 16.8-.9 27.4-2.2 21.4-2.4 38.4-6.6 38.7-5.7z"></path></g></g></g><g><g><g><path stroke="#000" stroke-miterlimit="10" d="M1513.6 830.7c-.4.3-1.8-1.2-4.7-1.8-1.4-.3-3.2-.4-5.1-.1-.9.2-1.9.5-2.9.9s-1.9 1-2.8 1.7c-1.8 1.3-3.4 3-4.7 4.6-1.3 1.6-2.4 3.2-3.1 4.5-.7 1.3-.9 2.4-.8 3.1.1.8.4 1.2.2 1.4-.1.2-.8.1-1.4-.9-.6-1-.7-2.7-.2-4.4.3-.9.7-1.8 1.2-2.7.5-.9 1-1.8 1.7-2.7 1.3-1.9 3-3.8 5.2-5.5 1.1-.8 2.3-1.5 3.5-2 1.2-.5 2.5-.8 3.7-.9 2.4-.3 4.6.1 6.3.9 1.7.7 2.8 1.7 3.4 2.5.6.7.7 1.2.5 1.4z"></path></g></g></g><g><g><g><path stroke="#000" stroke-miterlimit="10" d="M1499.1 880.9c-.1.1-.4 0-.9-.5-.4-.5-.9-1.4-1-2.7 0-.6 0-1.4.2-2.1.2-.8.6-1.5 1-2.3.2-.4.5-.7.8-1.1.3-.3.7-.8.8-.9.3-.3.5-.5.7-.8-.3-.2-.7-.3-1-.4h-.2l-.2-.1c-.2-.1-.5-.2-.7-.3-.5-.2-.9-.4-1.4-.6l-3-1.3 3.1-1.4c.5-.2 1.1-.5 1.6-.8l.9.6.2.2.1.1-.2-.1-.7-.5c-1-.7-2-1.3-3-2-.5-.3-1-.7-1.4-1 .5-.3 1.1-.6 1.6-.8 1.1-.6 2.2-1.1 3.3-1.7l1.2-.6.9-.4c.6-.3 1.2-.5 1.7-.7 1.2-.5 2.3-.9 3.4-1.3 2.3-.8 4.5-1.4 6.6-1.9l-.1 2.8c-4.7-1.7-9.1-1.7-12.2-1.5-3 .3-4.8.7-4.9.4-.1-.3 1.5-1.3 4.7-2.1 3.1-.8 8-1.2 13.4.4l4.7 1.4-4.8 1.4c-2 .6-4.1 1.3-6.3 2.1-1.1.4-2.2.8-3.3 1.3-.6.2-1.1.5-1.7.7-.4.2-.9.4-1.3.6l-.5.2-.2.1c.1 0 .1.1.2.1l.4.3.1.1 1 .7c.9.6 1.7 1.2 2.6 1.8-2.5 1-4.9 1.9-7.2 2.8l.1-2.7c1.1.5 2.1 1 3.1 1.5 1.4.7 2.9 1.4 4 2-1.3 1-2.6 2-3.7 2.8-.6.5-.7.6-1 .9-.3.3-.5.5-.7.8-.9 1.1-1.3 2.2-1.5 3.2.1 2.1 1 3.1.7 3.3z"></path></g></g></g><g><g><g><path stroke="#000" stroke-miterlimit="10" d="M603.1 541.6c-.4 0-1.2-4.8-1.2-12.7v-3.1c0-1.1.1-2.2.2-3.3.1-2.3.4-4.8.7-7.4.7-5.2 1.6-10.8 3.1-16.7 1.5-5.8 3.4-11.3 5.3-16.1 1-2.4 1.9-4.7 3-6.8.5-1 1-2.1 1.5-3 .5-1 1-1.9 1.5-2.7 3.8-6.9 6.8-10.8 7.1-10.6.4.3-1.9 4.5-5.1 11.6-.4.9-.8 1.8-1.2 2.8-.4 1-.8 2-1.3 3-.9 2.1-1.7 4.4-2.6 6.8-1.7 4.8-3.4 10.2-4.9 15.9-1.4 5.7-2.5 11.2-3.3 16.3-.3 2.5-.7 4.9-.9 7.2-.1 1.1-.3 2.2-.4 3.3-.1 1.1-.2 2.1-.2 3-.7 7.6-.7 12.5-1.3 12.5z"></path></g></g></g><g><g><g><path stroke="#000" stroke-miterlimit="10" d="M691.7 368.1c.2.4-2.1 2.2-6.1 4.6-4.1 2.4-10 5.4-17.1 7.1-7.2 1.7-14 1.4-18.7.1-4.7-1.3-7.1-3.1-6.9-3.5.2-.5 2.9.6 7.4 1.2s10.8.6 17.5-1.1c6.7-1.6 12.6-4.2 16.8-6 4.2-1.8 6.9-2.8 7.1-2.4z"></path></g></g></g><g><g><g><path stroke="#000" stroke-miterlimit="10" d="M1119.3 361.2c-.1.1-1.4-.7-3.8-2.2-1.2-.7-2.7-1.6-4.5-2.7-1.8-1-3.9-2.2-6.3-3.4-4.8-2.5-10.8-5.2-17.9-8-7.1-2.8-15.4-5.6-24.6-8.4-9.2-2.8-19.4-5.9-30.2-9.1-10.9-3.2-22.5-6.4-34.9-9.4-6.2-1.4-12.6-2.8-19.1-4-3.3-.6-6.6-1.1-9.9-1.6-3.4-.4-6.7-.9-10.2-1.3-3.4-.4-6.9-.6-10.4-.9-3.5-.2-7-.4-10.6-.4-7.1-.1-14.4.1-21.7.6-14.6 1-28.9 2.7-42.6 4.5-13.7 1.8-27 3.9-39.5 6.3s-24.3 5-35.3 7.8c-2.7.7-5.4 1.5-8.1 2.2-1.3.4-2.6.7-3.9 1.1-1.3.4-2.6.8-3.8 1.1-2.5.8-5 1.5-7.4 2.2-2.4.8-4.7 1.6-7 2.3-18.3 6.1-32.6 12.3-42.3 17-4.9 2.2-8.6 4.2-11.2 5.4-2.5 1.3-3.9 1.9-4 1.8-.1-.1 1.2-.9 3.7-2.3s6.1-3.6 10.9-6c9.6-5 23.8-11.6 42.1-18 2.3-.8 4.6-1.6 7-2.4 2.4-.8 4.9-1.5 7.4-2.3 1.3-.4 2.5-.8 3.8-1.2 1.3-.4 2.6-.7 3.9-1.1 2.6-.7 5.3-1.5 8.1-2.3 11-2.9 22.9-5.7 35.4-8.2 12.6-2.5 25.8-4.6 39.6-6.5 13.8-1.8 28.1-3.6 42.9-4.6 7.4-.5 14.7-.7 21.9-.6 3.6 0 7.2.3 10.7.4 3.5.3 7.1.5 10.5 1 3.5.3 6.9.9 10.3 1.3 3.4.6 6.7 1.1 10 1.7 6.6 1.2 13 2.6 19.2 4.1 12.4 3 24.1 6.4 35 9.7 10.9 3.3 21 6.5 30.2 9.4 9.2 3 17.5 5.9 24.6 8.9 7.1 3 13.1 5.9 17.8 8.5 2.4 1.3 4.4 2.6 6.2 3.7 1.8 1.1 3.2 2.1 4.4 2.9 2.5 1.9 3.7 2.9 3.6 3z"></path></g></g></g><g><g><g><path stroke="#000" stroke-miterlimit="10" d="M1000 466.8c-.2-.1 1-2.1 3.4-5.6.6-.9 1.3-1.8 2-2.9.8-1 1.6-2.1 2.6-3.3 1.9-2.3 3.9-5.1 6.5-7.8 1.3-1.4 2.6-2.9 4-4.4 1.4-1.5 3-3 4.5-4.6 3.1-3.2 6.7-6.3 10.3-9.7 7.6-6.5 16.3-13.2 25.8-19.6 9.6-6.4 19-11.9 27.8-16.6 4.4-2.3 8.6-4.5 12.5-6.5 3.9-2 7.7-3.7 11.1-5.3 3.4-1.6 6.5-2.9 9.3-4.1 2.7-1.2 5.1-2.2 7.1-2.9 3.9-1.5 6.1-2.3 6.2-2.1.2.4-8.2 4.5-21.5 11.2-3.3 1.7-7 3.5-10.9 5.6-3.9 2-8 4.3-12.3 6.7-8.6 4.9-17.9 10.4-27.4 16.7-9.4 6.3-18.1 12.9-25.7 19.2-3.7 3.2-7.3 6.2-10.4 9.3-1.6 1.5-3.2 2.9-4.6 4.4-1.4 1.5-2.8 2.9-4.1 4.2-2.7 2.6-4.8 5.2-6.8 7.4-1 1.1-1.9 2.1-2.8 3.1-.8 1-1.5 1.9-2.2 2.7-2.7 3.3-4.2 5-4.4 4.9z"></path></g></g></g><g><g><g><path stroke="#000" stroke-miterlimit="10" d="M696.1 617.8c-.9 0-1.1-9.1 1.7-20 1.7-6.6 4-12.2 5.8-15.4.2-.4.5-.7.6-.8l.3-.3c.1-.1.1-.1.1-.2.1 0 .1-.1.1-.1h-.1l.1-.2s0 .1.1.1c-.1 0-.1.1-.1.1-.1.1-.1 0-.1.1v.1s0 .1-.1.1-.3 0-.3-.2c-.1-.1-.1-.3-.1-.5s.1-.5.6-.6h.5s.1 0 .2.1c.2.1.3.2.4.4.2.3.2.7.2 1-.1.4-.3.7-.4.9-.2.3-.2.4-.2.5-.9 3.4-2.7 9.1-4.4 15.5-2.8 10.7-4 19.4-4.9 19.4z"></path></g></g></g></g></svg>